<?xml version="1.0" encoding="UTF-8" standalone="no"?>
<svg
   xmlns:dc="http://purl.org/dc/elements/1.1/"
   xmlns:cc="http://creativecommons.org/ns#"
   xmlns:rdf="http://www.w3.org/1999/02/22-rdf-syntax-ns#"
   xmlns:svg="http://www.w3.org/2000/svg"
   xmlns="http://www.w3.org/2000/svg"
   xmlns:sodipodi="http://sodipodi.sourceforge.net/DTD/sodipodi-0.dtd"
   xmlns:inkscape="http://www.inkscape.org/namespaces/inkscape"
   version="1.1"
   x="0px"
   y="0px"
   viewBox="0 0 648 396"
   style="enable-background:new 0 0 648 396;"
   xml:space="preserve"
   id="svg25"
   sodipodi:docname="bnb-busd.svg"
   inkscape:version="1.0.2-2 (e86c870879, 2021-01-15)"><metadata
   id="metadata31"><rdf:RDF><cc:Work
       rdf:about=""><dc:format>image/svg+xml</dc:format><dc:type
         rdf:resource="http://purl.org/dc/dcmitype/StillImage" /><dc:title /></cc:Work></rdf:RDF></metadata><defs
   id="defs29" /><sodipodi:namedview
   pagecolor="#ffffff"
   bordercolor="#666666"
   borderopacity="1"
   objecttolerance="10"
   gridtolerance="10"
   guidetolerance="10"
   inkscape:pageopacity="0"
   inkscape:pageshadow="2"
   inkscape:window-width="1920"
   inkscape:window-height="1018"
   id="namedview27"
   showgrid="false"
   inkscape:zoom="1.0421558"
   inkscape:cx="-16.656543"
   inkscape:cy="106.37492"
   inkscape:window-x="2729"
   inkscape:window-y="-6"
   inkscape:window-maximized="1"
   inkscape:current-layer="layer2"
   inkscape:pagecheckerboard="false"
   showguides="true"
   inkscape:guide-bbox="true"
   inkscape:document-rotation="0"><sodipodi:guide
     position="265.46466,292.01927"
     orientation="1,0"
     id="guide207" /><sodipodi:guide
     position="43.179725,345.38377"
     orientation="0,-1"
     id="guide209" /><sodipodi:guide
     position="358.92858,283.7076"
     orientation="1,0"
     id="guide211" /><sodipodi:guide
     position="292.60482,280.99358"
     orientation="1,0"
     id="guide213" /><sodipodi:guide
     position="386.91686,259.28146"
     orientation="1,0"
     id="guide215" /></sodipodi:namedview>
<style
   type="text/css"
   id="style2">
	.st0{fill-rule:evenodd;clip-rule:evenodd;fill:#B1B3B6;}
	.st1{fill-rule:evenodd;clip-rule:evenodd;fill:#F48FA6;}
	.st2{fill-rule:evenodd;clip-rule:evenodd;fill:#FFFFFF;}
	.st3{fill-rule:evenodd;clip-rule:evenodd;fill:#808285;}
</style>
<g
   id="Background">
</g>
<g
   id="Guides">
</g>
<g
   id="Foreground">
	<path
   class="st0"
   d="m 326,74.7 c -1.6,2.6 -7.4,4.8 -13.1,4.2 -4.5,-0.5 -11.3,-0.7 -13.8,0.2 -2.4,0.9 -5.5,4.5 -11.4,4.8 0,0 -12.1,5.4 -10.5,24.1 1.7,19.4 12.7,26 15.3,51.8 4.8,46.6 -34.5,66.4 -34.5,66.4 -0.3,5.1 -5.7,16.6 -16.2,19.1 -8.7,28.5 -7,59.4 -7,59.4 2.8,3.6 4.1,10.7 -0.8,15.6 0,0 -2.5,28.1 5.5,45.7 4.7,1.9 9.2,5.5 11.1,10.4 0,0 -14.1,0 -21.4,0 0,0 -0.7,-4.3 0.3,-6.7 0,0 -9,-25.3 -9.8,-53.4 -4.6,-6.6 -5.4,-20.2 -5.4,-20.2 -2,4.9 -1.3,11.5 -1.3,11.5 2.4,3.8 2.3,10.5 -3,15 0,0 -6,26.5 -1.4,43.4 0,0 8.6,3.6 10,10.3 -6,-0.2 -14.1,0 -22.1,0 0,0 -0.5,-3.1 1,-7 -3.3,-26.8 -3,-34.3 -1.7,-51.8 0,0 -5.6,-5.4 -6.2,-29.7 -0.3,-12.2 0.7,-28.9 0.7,-28.9 0,0 -2.2,-2.1 -3.4,-5.3 0,0 -10.5,3.4 -21.8,3 -32.4,-1.2 -45.1,-14.9 -45.1,-14.9 0,0 0.3,14.5 -7,33.1 -7.2,18.5 -15.6,28.7 -14.5,36.3 3.4,24.6 15.5,54.2 15.5,54.2 0,0 11.1,3 13.5,11 h -23.7 c -0.7,-3.4 0.4,-6.4 0.4,-6.4 0,0 -10,-19.6 -13.5,-30.6 -3.5,-11 -7.2,-23.8 -7.2,-23.8 0,0 -6.9,-5.5 -6.3,-11.8 0.6,-6.3 5.6,-21.3 5.6,-21.3 0,0 -10.5,11.6 -16.6,28.3 -6.1,16.7 -8.1,54.5 -8.1,54.5 0,0 8.5,5.5 10.8,11.1 0,0 -14.7,0 -23.7,0 0,-5.3 3.1,-8.7 3.1,-8.7 0,0 -0.5,-23.9 -0.7,-33.6 -0.2,-9.8 -0.1,-19 -0.1,-19 0,0 -5.8,-4.6 -3.3,-12 2.5,-7.4 12.2,-31.9 12.2,-31.9 1.1,-20.2 -5.7,-26.9 -3.9,-57.7 1.3,-21.1 14.7,-26.4 14.7,-26.4 -4.8,0.3 -13,-2.7 -15.5,-7.4 -1.8,-3.3 -5.8,0.1 -4.1,2.2 1,1.2 0.5,5.9 -3.3,3.7 -18.7,-11 -12.5,-38.7 9.4,-42 18.9,-2.8 26.7,15.6 27.6,19 1,3.4 5,2.9 5,2.9 14.7,-12.5 73.1,-1.5 73.1,-1.5 0,0 18.6,-3.7 37.7,-5.4 15.5,-1.3 31.4,0.8 31.4,0.8 0,0 3,-0.3 7.2,-19.3 3.4,-15 -3.3,-26.7 3.4,-56.7 6.3,-28.3 20,-36.7 20,-36.7 0,0 -6.4,-13.9 2.1,-23.1 5.2,-5.6 9.8,-3.8 9.1,0.9 -0.4,2.9 -0.1,6.6 0.5,8.7 0.5,-3.3 2.5,-8 9.3,-10.5 7.2,-2.6 10.9,1.2 7.7,4.8 -5.2,6 -6.2,13.4 -6.2,13.4 v 0 c 0,0 7.9,0.4 12.2,2.6 3.9,2 4.4,6.9 12.2,8.6 6,1.3 13.1,7.6 13.1,7.6 0,0 4.2,0.2 4.7,2.7 0.4,2.2 0.3,3.7 -0.6,5.6 0.1,2.5 2.1,2.1 3.1,3.2 v 3.6 z"
   id="path6" />
	
	
	<path
   class="st3"
   d="m 326,74.7 c 1.6,2.6 7.4,4.8 13.1,4.2 4.5,-0.5 11.3,-0.7 13.8,0.2 2.4,0.9 5.5,4.5 11.4,4.8 0,0 12.1,5.4 10.5,24.1 -1.7,19.4 -12.7,26 -15.3,51.8 -4.8,46.6 34.5,66.4 34.5,66.4 0.3,5.1 5.7,16.6 16.2,19.1 8.7,28.5 7,59.4 7,59.4 -2.8,3.6 -4.1,10.7 0.8,15.6 0,0 2.5,28.1 -5.5,45.7 -4.7,1.9 -9.2,5.5 -11.1,10.4 0,0 14.1,0 21.4,0 0,0 0.7,-4.3 -0.3,-6.7 0,0 9,-25.3 9.8,-53.4 4.6,-6.6 5.4,-20.2 5.4,-20.2 2,4.9 1.3,11.5 1.3,11.5 -2.4,3.8 -2.3,10.5 3,15 0,0 6,26.5 1.4,43.4 0,0 -8.6,3.6 -10,10.3 6,-0.2 14.1,0 22.1,0 0,0 0.5,-3.1 -1,-7 3.3,-26.8 3,-34.3 1.7,-51.8 0,0 5.6,-5.4 6.2,-29.7 0.3,-12.2 -0.7,-28.9 -0.7,-28.9 0,0 2.2,-2.1 3.4,-5.3 0,0 10.5,3.4 21.8,3 32.4,-1.2 45.1,-14.9 45.1,-14.9 0,0 -0.3,14.5 7,33.1 7.2,18.5 15.6,28.7 14.5,36.3 -3.4,24.6 -15.5,54.2 -15.5,54.2 0,0 -11.1,3 -13.5,11 h 23.7 c 0.7,-3.4 -0.4,-6.4 -0.4,-6.4 0,0 10,-19.6 13.5,-30.6 3.5,-11 7.2,-23.8 7.2,-23.8 0,0 6.9,-5.5 6.3,-11.8 -0.6,-6.3 -5.6,-21.3 -5.6,-21.3 0,0 10.6,11.6 16.7,28.3 6.1,16.7 8.1,54.5 8.1,54.5 0,0 -8.5,5.5 -10.8,11.1 0,0 14.7,0 23.7,0 0,-5.3 -3.1,-8.7 -3.1,-8.7 0,0 0.5,-23.9 0.7,-33.6 0.2,-9.8 0.1,-19 0.1,-19 0,0 5.8,-4.6 3.3,-12 -2.5,-7.4 -12.2,-31.9 -12.2,-31.9 -1.1,-20.2 5.7,-26.9 3.9,-57.7 -1.3,-21.1 -14.7,-26.4 -14.7,-26.4 4.8,0.3 13,-2.7 15.5,-7.4 1.8,-3.3 5.8,0.1 4.1,2.2 -1,1.2 -0.5,5.9 3.3,3.7 18.7,-11 12.5,-38.7 -9.4,-42 -18.9,-2.8 -26.7,15.6 -27.6,19 -1,3.4 -5,2.9 -5,2.9 -14.7,-12.5 -73.1,-1.5 -73.1,-1.5 0,0 -18.6,-3.7 -37.7,-5.4 -15.5,-1.3 -31.4,0.8 -31.4,0.8 0,0 -3,-0.3 -7.2,-19.3 C 413,125 419.7,113.3 413,83.3 406.7,55 393,46.6 393,46.6 c 0,0 6.4,-13.9 -2.1,-23.1 -5.2,-5.6 -9.8,-3.8 -9.1,0.9 0.4,2.9 0.1,6.6 -0.5,8.7 -0.5,-3.3 -2.5,-8 -9.3,-10.5 -7.2,-2.6 -10.9,1.2 -7.7,4.8 5.2,6 6.2,13.4 6.2,13.4 v 0 c 0,0 -7.9,0.4 -12.2,2.6 -3.9,2 -4.4,6.9 -12.2,8.6 -6,1.3 -13.1,7.6 -13.1,7.6 0,0 -4.2,0.2 -4.7,2.7 -0.4,2.2 -0.3,3.7 0.6,5.6 -0.1,2.5 -2.1,2.1 -3.1,3.2 v 3.6 z"
   id="path22" />
</g><g
   inkscape:groupmode="layer"
   id="layer1"
   inkscape:label="Layer 1"
   style="display:inline" />
<g
   inkscape:groupmode="layer"
   id="layer2"
   inkscape:label="Layer 2"
   style="display:inline"><circle
     cx="506.83783"
     cy="150.85007"
     fill="#f0b90b"
     id="circle28"
     style="stroke-width:2.29886"
     r="100" /><path
     fill="#fffdfa"
     fill-rule="evenodd"
     d="m 464.27922,125.45008 42.6,-42.599998 16.98621,16.986208 -42.6,42.59999 z m 0.0299,50.90575 68.08046,-68.07816 16.9862,16.98621 -68.08045,68.07816 z m 93.5402,-42.57012 -68.07815,68.07817 16.9862,16.9862 68.07817,-68.08046 -16.98622,-16.9862 z m -119.01148,17.09885 16.9862,-16.98621 16.98621,16.98621 -16.98621,16.9862 z"
     id="path30"
     style="stroke-width:2.29886" /></g><g
   inkscape:groupmode="layer"
   id="layer3"
   inkscape:label="Layer 3" /><circle
   cx="144.96942"
   cy="150.43237"
   fill="#f0b90b"
   id="circle22"
   style="stroke-width:3.44827"
   r="100" /><path
   fill="#fffdfa"
   d="M 107.6763,150.43237 92.376299,165.83928 76.969404,150.43237 92.376299,135.02548 Z m 37.29309,-37.29309 26.35171,26.35172 15.40691,-15.4069 -26.34828,-26.244821 -15.41034,-15.4069 -41.65172,41.648281 15.4069,15.40688 z m 52.5931,21.8862 -15.29999,15.40689 15.40688,15.40691 15.3,-15.40691 z m -52.5931,52.69999 -26.34828,-26.35172 -15.29999,15.4069 41.64827,41.65172 41.75517,-41.75517 -15.40689,-15.29999 z m 0,-21.88619 15.40689,-15.40691 -15.40689,-15.40689 -15.4069,15.40689 z"
   id="path24"
   style="stroke-width:3.44827" /></svg>
