<?xml version="1.0" encoding="UTF-8" standalone="no"?>
<svg
   xmlns:dc="http://purl.org/dc/elements/1.1/"
   xmlns:cc="http://creativecommons.org/ns#"
   xmlns:rdf="http://www.w3.org/1999/02/22-rdf-syntax-ns#"
   xmlns:svg="http://www.w3.org/2000/svg"
   xmlns="http://www.w3.org/2000/svg"
   xmlns:xlink="http://www.w3.org/1999/xlink"
   xmlns:sodipodi="http://sodipodi.sourceforge.net/DTD/sodipodi-0.dtd"
   xmlns:inkscape="http://www.inkscape.org/namespaces/inkscape"
   version="1.1"
   x="0px"
   y="0px"
   viewBox="0 0 648 396"
   style="enable-background:new 0 0 648 396;"
   xml:space="preserve"
   id="svg25"
   sodipodi:docname="cake-bnb.svg"
   inkscape:version="1.0.2-2 (e86c870879, 2021-01-15)"><metadata
   id="metadata31"><rdf:RDF><cc:Work
       rdf:about=""><dc:format>image/svg+xml</dc:format><dc:type
         rdf:resource="http://purl.org/dc/dcmitype/StillImage" /><dc:title /></cc:Work></rdf:RDF></metadata><defs
   id="defs29"><linearGradient
     id="D"
     x1="125.5"
     x2="125.5"
     y1="29"
     y2="116"
     xlink:href="#G"
     gradientTransform="matrix(2.2988508,0,0,2.2988506,-142.61345,-16.75114)"><stop
       stop-color="#54dade"
       id="stop91" /><stop
       offset=".762"
       stop-color="#24c7d6"
       id="stop93" /></linearGradient><linearGradient
     id="G"
     gradientUnits="userSpaceOnUse" /><linearGradient
     id="E"
     x1="119.469"
     x2="119.469"
     y1="52.268002"
     y2="79.165001"
     xlink:href="#G"><stop
       stop-color="#9f4a08"
       id="stop96" /><stop
       offset=".37"
       stop-color="#7d3900"
       id="stop98" /><stop
       offset="1"
       stop-color="#8d4104"
       id="stop100" /></linearGradient></defs><sodipodi:namedview
   pagecolor="#ffffff"
   bordercolor="#666666"
   borderopacity="1"
   objecttolerance="10"
   gridtolerance="10"
   guidetolerance="10"
   inkscape:pageopacity="0"
   inkscape:pageshadow="2"
   inkscape:window-width="1368"
   inkscape:window-height="850"
   id="namedview27"
   showgrid="false"
   inkscape:zoom="1.0421558"
   inkscape:cx="220.58682"
   inkscape:cy="291.89609"
   inkscape:window-x="-6"
   inkscape:window-y="-6"
   inkscape:window-maximized="1"
   inkscape:current-layer="layer1"
   inkscape:pagecheckerboard="false"
   inkscape:document-rotation="0" />
<style
   type="text/css"
   id="style2">
	.st0{fill-rule:evenodd;clip-rule:evenodd;fill:#B1B3B6;}
	.st1{fill-rule:evenodd;clip-rule:evenodd;fill:#F48FA6;}
	.st2{fill-rule:evenodd;clip-rule:evenodd;fill:#FFFFFF;}
	.st3{fill-rule:evenodd;clip-rule:evenodd;fill:#808285;}
</style>
<g
   id="Background">
</g>
<g
   id="Guides">
</g>
<g
   id="Foreground">
	<path
   class="st0"
   d="M326,74.7c-1.6,2.6-7.4,4.8-13.1,4.2c-4.5-0.5-11.3-0.7-13.8,0.2c-2.4,0.9-5.5,4.5-11.4,4.8   c0,0-12.1,5.4-10.5,24.1c1.7,19.4,12.7,26,15.3,51.8c4.8,46.6-34.5,66.4-34.5,66.4c-0.3,5.1-5.7,16.6-16.2,19.1   c-8.7,28.5-7,59.4-7,59.4c2.8,3.6,4.1,10.7-0.8,15.6c0,0-2.5,28.1,5.5,45.7c4.7,1.9,9.2,5.5,11.1,10.4c0,0-14.1,0-21.4,0   c0,0-0.7-4.3,0.3-6.7c0,0-9-25.3-9.8-53.4c-4.6-6.6-5.4-20.2-5.4-20.2c-2,4.9-1.3,11.5-1.3,11.5c2.4,3.8,2.3,10.5-3,15   c0,0-6,26.5-1.4,43.4c0,0,8.6,3.6,10,10.3c-6-0.2-14.1,0-22.1,0c0,0-0.5-3.1,1-7c-3.3-26.8-3-34.3-1.7-51.8c0,0-5.6-5.4-6.2-29.7   c-0.3-12.2,0.7-28.9,0.7-28.9s-2.2-2.1-3.4-5.3c0,0-10.5,3.4-21.8,3c-32.4-1.2-45.1-14.9-45.1-14.9s0.3,14.5-7,33.1   c-7.2,18.5-15.6,28.7-14.5,36.3c3.4,24.6,15.5,54.2,15.5,54.2s11.1,3,13.5,11h-23.7c-0.7-3.4,0.4-6.4,0.4-6.4s-10-19.6-13.5-30.6   c-3.5-11-7.2-23.8-7.2-23.8s-6.9-5.5-6.3-11.8c0.6-6.3,5.6-21.3,5.6-21.3S72.3,294,66.2,310.7c-6.1,16.7-8.1,54.5-8.1,54.5   s8.5,5.5,10.8,11.1c0,0-14.7,0-23.7,0c0-5.3,3.1-8.7,3.1-8.7s-0.5-23.9-0.7-33.6c-0.2-9.8-0.1-19-0.1-19s-5.8-4.6-3.3-12   c2.5-7.4,12.2-31.9,12.2-31.9c1.1-20.2-5.7-26.9-3.9-57.7c1.3-21.1,14.7-26.4,14.7-26.4c-4.8,0.3-13-2.7-15.5-7.4   c-1.8-3.3-5.8,0.1-4.1,2.2c1,1.2,0.5,5.9-3.3,3.7c-18.7-11-12.5-38.7,9.4-42c18.9-2.8,26.7,15.6,27.6,19c1,3.4,5,2.9,5,2.9   c14.7-12.5,73.1-1.5,73.1-1.5s18.6-3.7,37.7-5.4c15.5-1.3,31.4,0.8,31.4,0.8s3-0.3,7.2-19.3c3.4-15-3.3-26.7,3.4-56.7   c6.3-28.3,20-36.7,20-36.7s-6.4-13.9,2.1-23.1c5.2-5.6,9.8-3.8,9.1,0.9c-0.4,2.9-0.1,6.6,0.5,8.7c0.5-3.3,2.5-8,9.3-10.5   c7.2-2.6,10.9,1.2,7.7,4.8c-5.2,6-6.2,13.4-6.2,13.4l0,0c0,0,7.9,0.4,12.2,2.6c3.9,2,4.4,6.9,12.2,8.6c6,1.3,13.1,7.6,13.1,7.6   s4.2,0.2,4.7,2.7c0.4,2.2,0.3,3.7-0.6,5.6c0.1,2.5,2.1,2.1,3.1,3.2V74.7z"
   id="path6" />
	
	
	<path
   class="st3"
   d="M326,74.7c1.6,2.6,7.4,4.8,13.1,4.2c4.5-0.5,11.3-0.7,13.8,0.2c2.4,0.9,5.5,4.5,11.4,4.8   c0,0,12.1,5.4,10.5,24.1c-1.7,19.4-12.7,26-15.3,51.8c-4.8,46.6,34.5,66.4,34.5,66.4c0.3,5.1,5.7,16.6,16.2,19.1   c8.7,28.5,7,59.4,7,59.4c-2.8,3.6-4.1,10.7,0.8,15.6c0,0,2.5,28.1-5.5,45.7c-4.7,1.9-9.2,5.5-11.1,10.4c0,0,14.1,0,21.4,0   c0,0,0.7-4.3-0.3-6.7c0,0,9-25.3,9.8-53.4c4.6-6.6,5.4-20.2,5.4-20.2c2,4.9,1.3,11.5,1.3,11.5c-2.4,3.8-2.3,10.5,3,15   c0,0,6,26.5,1.4,43.4c0,0-8.6,3.6-10,10.3c6-0.2,14.1,0,22.1,0c0,0,0.5-3.1-1-7c3.3-26.8,3-34.3,1.7-51.8c0,0,5.6-5.4,6.2-29.7   c0.3-12.2-0.7-28.9-0.7-28.9s2.2-2.1,3.4-5.3c0,0,10.5,3.4,21.8,3c32.4-1.2,45.1-14.9,45.1-14.9s-0.3,14.5,7,33.1   c7.2,18.5,15.6,28.7,14.5,36.3c-3.4,24.6-15.5,54.2-15.5,54.2s-11.1,3-13.5,11h23.7c0.7-3.4-0.4-6.4-0.4-6.4s10-19.6,13.5-30.6   c3.5-11,7.2-23.8,7.2-23.8s6.9-5.5,6.3-11.8c-0.6-6.3-5.6-21.3-5.6-21.3s10.6,11.6,16.7,28.3c6.1,16.7,8.1,54.5,8.1,54.5   s-8.5,5.5-10.8,11.1c0,0,14.7,0,23.7,0c0-5.3-3.1-8.7-3.1-8.7s0.5-23.9,0.7-33.6c0.2-9.8,0.1-19,0.1-19s5.8-4.6,3.3-12   c-2.5-7.4-12.2-31.9-12.2-31.9c-1.1-20.2,5.7-26.9,3.9-57.7c-1.3-21.1-14.7-26.4-14.7-26.4c4.8,0.3,13-2.7,15.5-7.4   c1.8-3.3,5.8,0.1,4.1,2.2c-1,1.2-0.5,5.9,3.3,3.7c18.7-11,12.5-38.7-9.4-42c-18.9-2.8-26.7,15.6-27.6,19c-1,3.4-5,2.9-5,2.9   c-14.7-12.5-73.1-1.5-73.1-1.5s-18.6-3.7-37.7-5.4c-15.5-1.3-31.4,0.8-31.4,0.8s-3-0.3-7.2-19.3c-3.4-15,3.3-26.7-3.4-56.7   c-6.3-28.3-20-36.7-20-36.7s6.4-13.9-2.1-23.1c-5.2-5.6-9.8-3.8-9.1,0.9c0.4,2.9,0.1,6.6-0.5,8.7c-0.5-3.3-2.5-8-9.3-10.5   c-7.2-2.6-10.9,1.2-7.7,4.8c5.2,6,6.2,13.4,6.2,13.4l0,0c0,0-7.9,0.4-12.2,2.6c-3.9,2-4.4,6.9-12.2,8.6c-6,1.3-13.1,7.6-13.1,7.6   s-4.2,0.2-4.7,2.7c-0.4,2.2-0.3,3.7,0.6,5.6c-0.1,2.5-2.1,2.1-3.1,3.2V74.7z"
   id="path22" />
</g><g
   inkscape:groupmode="layer"
   id="layer1"
   inkscape:label="Layer 1"
   style="display:inline"><circle
     cx="506.05325"
     cy="150.65048"
     fill="#f0b90b"
     id="circle22"
     style="stroke-width:3.44827"
     r="100" /><path
     fill="#fffdfa"
     d="m 468.76018,150.65047 -15.3,15.4069 -15.40689,-15.4069 15.40689,-15.40689 z m 37.2931,-37.2931 26.35172,26.35172 15.4069,-15.40689 -26.34828,-26.244829 -15.41034,-15.406888 -41.65173,41.648267 15.4069,15.40689 z m 52.59309,21.88621 -15.29999,15.40689 15.4069,15.4069 15.29999,-15.4069 z m -52.59309,52.69998 -26.34828,-26.35172 -15.3,15.4069 41.64828,41.65172 41.75516,-41.75516 -15.40689,-15.3 z m 0,-21.88619 15.4069,-15.4069 -15.4069,-15.40689 -15.4069,15.40689 z"
     id="path24"
     style="stroke-width:3.44827" /><circle
     cx="145.8923"
     cy="149.91553"
     fill="url(#D)"
     id="circle30"
     style="fill:url(#D);stroke-width:2.29885"
     r="100" /><path
     d="m 80.938277,160.90403 -0.02528,1.12414 c 0,1.42069 0.124131,2.82529 0.365518,4.2069 h -0.365518 v 2.17701 a 24.413795,24.413792 0 0 0 0.2046,3.15632 c 2.648268,20.31494 30.636773,36.29884 64.774713,36.29884 34.13792,0 62.12873,-15.9839 64.777,-36.29884 a 24.413795,24.413792 0 0 0 0.2046,-3.15632 v -2.17701 h -0.36552 c 0.24138,-1.38161 0.36552,-2.78621 0.36552,-4.2069 0,-0.37702 -0.009,-0.75173 -0.0253,-1.12414 -0.98161,-21.26896 -29.68734,-38.32873 -64.95631,-38.32873 -35.26897,0 -63.974714,17.05747 -64.954034,38.32873 z m -5.337933,0 c 0.482763,-12.97701 9.301159,-23.87816 21.577022,-31.33104 12.724124,-7.72413 29.960914,-12.33103 48.714944,-12.33103 18.75401,0 35.99311,4.6046 48.71493,12.33103 12.27586,7.45288 21.09427,18.35403 21.57702,31.33104 h 0.0207 v 7.50805 c 0,13.47126 -8.97013,24.7885 -21.59772,32.45517 -12.72182,7.72643 -29.95861,12.32873 -48.71493,12.32873 -18.75632,0 -35.99082,-4.60459 -48.714944,-12.32873 -12.627559,-7.66667 -21.597681,-18.98391 -21.597681,-32.45517 v -7.50805 z"
     class="B C"
     id="path32"
     style="fill:#606063;fill-rule:evenodd;stroke-width:2.29885" /><path
     fill="#bebebe"
     d="m 210.87391,168.41208 c 0,21.7908 -29.09194,39.45286 -64.97931,39.45286 -35.88736,0 -64.981602,-17.66436 -64.981602,-39.45286 V 162.1661 H 210.87391 Z"
     id="path34"
     style="stroke-width:2.29885" /><path
     fill="#f5f3f3"
     d="m 210.87391,162.02817 c 0,21.7908 -29.09194,39.45516 -64.97931,39.45516 -35.88736,0 -64.981602,-17.66436 -64.981602,-39.45516 0,-21.79081 29.091932,-39.45287 64.981602,-39.45287 35.88966,0 64.97931,17.66436 64.97931,39.45517 z"
     id="path36"
     style="stroke-width:2.29885" /><path
     d="m 90.910682,150.88104 v 0.0736 c 0,1.79311 0.25978,3.55173 0.758631,5.25747 h -0.758631 v 2.31035 c 0,1.02069 0.08282,2.02759 0.248283,3.02069 2.475873,15.0023 23.202295,26.71034 48.402305,26.71034 25.2,0 45.92645,-11.71034 48.40459,-26.71034 0.16323,-0.9931 0.24829,-2.0023 0.24829,-3.02069 v -2.31035 h -0.75863 a 18.689656,18.689654 0 0 0 0.75863,-5.11034 v -0.22069 c -0.0644,-16.3862 -21.82299,-29.65747 -48.65057,-29.65747 -26.82759,0 -48.586222,13.27127 -48.652898,29.65747 z m -5.331017,0 v 0 7.64368 c 0,10.77011 7.124137,19.65747 16.802285,25.57241 9.77013,5.97012 22.93104,9.48966 37.18163,9.48966 14.25057,0 27.41149,-3.51954 37.18389,-9.48966 9.67818,-5.91494 16.80002,-14.8023 16.80002,-25.57241 v -7.4023 l 0.002,-0.16552 c 0,-10.77011 -7.12413,-19.65747 -16.80231,-25.57471 -9.7701,-5.97012 -22.93103,-9.49195 -37.1816,-9.49195 -14.25059,0 -27.41149,3.51953 -37.18393,9.49195 -9.657452,5.90115 -16.767797,14.76322 -16.799983,25.49885 z"
     class="B D"
     id="path38"
     style="fill:#612f01;fill-rule:evenodd;stroke-width:2.29885" /><path
     d="m 188.21415,158.52472 c 0,16.42068 -21.7816,29.73333 -48.65057,29.73333 -26.86897,0 -48.652898,-13.31265 -48.652898,-29.73333 v -6.97701 h 97.303468 z"
     class="E"
     id="path40"
     style="fill:#fedc90;stroke-width:2.29885" /><path
     d="m 188.21415,150.9546 c 0,16.4207 -21.7816,29.73334 -48.65057,29.73334 -26.86897,0 -48.652898,-13.31034 -48.652898,-29.73334 0,-16.42298 21.783928,-29.73333 48.652898,-29.73333 26.86897,0 48.65057,13.31265 48.65057,29.73333 z"
     class="F"
     id="path42"
     style="fill:#d1884f;stroke-width:2.29885" /><path
     d="m 105.57505,134.88564 v 0.0736 c 0,1.79311 0.25977,3.55173 0.75862,5.25747 h -0.76092 v 2.31035 c 0,1.02069 0.085,2.02758 0.24828,3.02069 2.47817,15.0023 23.20459,26.71034 48.40461,26.71034 25.19999,0 45.92644,-11.70804 48.40459,-26.71034 0.16322,-0.99311 0.24828,-2.0023 0.24828,-3.02069 v -2.31035 h -0.75863 a 18.689656,18.689654 0 0 0 0.75863,-5.11034 v -0.22073 c -0.0666,-16.3862 -21.82298,-29.65747 -48.65287,-29.65747 -26.82988,0 -48.58623,13.27127 -48.65059,29.65747 z m -5.33332,0 v 0 7.64368 c 0,10.77011 7.12183,19.65747 16.80228,25.57241 9.77013,5.97012 22.92877,9.48965 37.18163,9.48965 14.25287,0 27.4115,-3.51953 37.18161,-9.48965 9.68046,-5.91494 16.8023,-14.8023 16.8023,-25.57241 v -7.56782 c 0,-10.77011 -7.12184,-19.65747 -16.80001,-25.57471 -9.7724,-5.97242 -22.93103,-9.49195 -37.1839,-9.49195 -14.25286,0 -27.4115,3.51953 -37.18163,9.49195 -9.65745,5.90115 -16.7678,14.76322 -16.80228,25.49885 z"
     class="B D"
     id="path44"
     style="fill:#612f01;fill-rule:evenodd;stroke-width:2.29885" /><path
     d="m 202.87391,142.52932 c 0,16.42068 -21.7816,29.73333 -48.65057,29.73333 -26.86896,0 -48.65289,-13.31265 -48.65289,-29.73333 v -6.97701 h 97.30346 z"
     class="E"
     id="path46"
     style="fill:#fedc90;stroke-width:2.29885" /><path
     d="m 202.87391,134.9592 c 0,16.4207 -21.7816,29.73334 -48.65057,29.73334 -26.86896,0 -48.65289,-13.31264 -48.65289,-29.73334 0,-16.42068 21.78163,-29.73333 48.65289,-29.73333 26.87126,0 48.65057,13.31265 48.65057,29.73333 z"
     class="F"
     id="path48"
     style="fill:#d1884f;stroke-width:2.29885" /><path
     d="m 90.910682,118.89024 v 0.0736 c 0,1.79541 0.25978,3.55173 0.758631,5.25747 h -0.758631 v 2.31035 c 0,1.02069 0.08282,2.02758 0.248283,3.02069 2.475873,15.00229 23.202295,26.71034 48.402305,26.71034 25.2,0 45.92645,-11.70805 48.40459,-26.71034 0.16323,-0.99311 0.24829,-2.0023 0.24829,-3.02069 v -2.31035 h -0.75863 a 18.689656,18.689654 0 0 0 0.75863,-5.11035 v -0.22068 c -0.0644,-16.38621 -21.82299,-29.65747 -48.65057,-29.65747 -26.82759,0 -48.586222,13.27126 -48.652898,29.65747 z m -5.331017,0 v 0 7.64368 c 0,10.77011 7.124137,19.65747 16.802285,25.57241 9.77013,5.97012 22.93104,9.49195 37.18163,9.49195 14.25057,0 27.41149,-3.51953 37.18389,-9.49195 9.67818,-5.91494 16.80002,-14.8023 16.80002,-25.57241 v -7.40231 l 0.002,-0.16551 c 0,-10.77011 -7.12413,-19.65747 -16.80231,-25.57241 -9.7701,-5.97242 -22.93103,-9.49195 -37.1816,-9.49195 -14.25059,0 -27.41149,3.51953 -37.18393,9.49195 -9.657452,5.90114 -16.767797,14.76092 -16.799983,25.49885 z"
     class="B D"
     id="path50"
     style="fill:#612f01;fill-rule:evenodd;stroke-width:2.29885" /><path
     d="m 188.21415,126.53392 c 0,16.42068 -21.7816,29.73332 -48.65057,29.73332 -26.86897,0 -48.652898,-13.31264 -48.652898,-29.73332 v -6.97701 h 97.303468 z"
     class="E"
     id="path52"
     style="fill:#fedc90;stroke-width:2.29885" /><path
     d="m 188.21415,118.9638 c 0,16.42069 -21.7816,29.73334 -48.65057,29.73334 -26.86897,0 -48.652898,-13.31265 -48.652898,-29.73334 0,-16.42069 21.783928,-29.73333 48.652898,-29.73333 26.86897,0 48.65057,13.31264 48.65057,29.73333 z"
     class="F"
     id="path54"
     style="fill:#d1884f;stroke-width:2.29885" /><g
     class="B"
     id="g60"
     style="fill-rule:evenodd"
     transform="matrix(2.2988507,0,0,2.2988505,-142.61346,-16.75113)"><path
       fill="url(#E)"
       d="m 106.588,59.841 c 0,2.385 1.733,4.521 4.467,5.958 l -1.895,3.281 h 0.001 -0.001 v 8.303 a 1.99,1.99 0 0 0 1.988,1.988 1.99,1.99 0 0 0 1.988,-1.988 V 70.78 l 2.038,-3.53 c 1.303,0.276 2.702,0.426 4.158,0.426 7.038,0 12.743,-3.508 12.743,-7.835 0,-4.327 -5.705,-7.835 -12.743,-7.835 -7.038,0 -12.744,3.508 -12.744,7.835 z"
       id="path56"
       style="fill:url(#E)" /><path
       fill="#633001"
       d="m 111.056,65.798 -0.87,-0.503 c -2.226,-1.411 -3.596,-3.334 -3.596,-5.455 0,-4.327 5.705,-7.835 12.743,-7.835 7.038,0 12.744,3.508 12.744,7.835 0,4.327 -5.705,7.835 -12.744,7.835 a 20.09,20.09 0 0 1 -4.157,-0.426 l -2.038,3.53 v 6.603 a 1.99,1.99 0 0 1 -1.988,1.988 1.99,1.99 0 0 1 -1.988,-1.988 v -8.303 z m -3.923,3.316 v 8.268 a 4.02,4.02 0 0 0 4.017,4.017 4.02,4.02 0 0 0 4.018,-4.017 v -6.059 l 1.057,-1.831 a 22.53,22.53 0 0 0 3.108,0.213 c 3.833,0 7.4,-0.951 10.074,-2.595 2.642,-1.624 4.699,-4.137 4.699,-7.269 0,-3.132 -2.057,-5.645 -4.699,-7.269 -2.674,-1.645 -6.241,-2.595 -10.074,-2.595 -3.833,0 -7.399,0.951 -10.074,2.595 -2.641,1.624 -4.699,4.137 -4.699,7.269 0,2.749 1.575,5.013 3.762,6.634 l -0.903,1.565 a 2.05,2.05 0 0 0 -0.204,0.465 2.02,2.02 0 0 0 -0.082,0.61 z"
       id="path58" /></g><g
     fill="#9e7200"
     id="g66"
     transform="matrix(2.2988507,0,0,2.2988505,-142.61346,-16.75113)"><path
       id="use62"
       d="m 110.571,56.54 c 0,2.242 2.856,4.059 6.378,4.059 3.522,0 6.378,-1.817 6.378,-4.059 0,-2.242 -2.855,-4.059 -6.378,-4.059 -3.523,0 -6.378,1.817 -6.378,4.059 z" /><path
       d="m 110.57,54.8 h 12.756 v 1.739 H 110.57 Z"
       id="path64" /></g><path
     id="use68"
     d="m 111.57277,109.22587 c 0,5.15403 6.5655,9.33104 14.66206,9.33104 8.09655,0 14.66207,-4.17701 14.66207,-9.33104 0,-5.15402 -6.56322,-9.33103 -14.66207,-9.33103 -8.09885,0 -14.66206,4.17701 -14.66206,9.33103 z"
     style="fill:#f0b90b;stroke-width:2.29885" /><path
     fill="#9e7200"
     d="m 120.66932,108.10173 4.13101,-2.62988 a 2.6666668,2.6666665 0 0 1 2.86209,0 l 4.13334,2.62988 a 1.3333334,1.3333333 0 0 1 0,2.24828 l -4.13334,2.62989 a 2.6666668,2.6666665 0 0 1 -2.86209,0 l -4.13101,-2.62989 a 1.3333334,1.3333333 0 0 1 0,-2.24828 z"
     id="path70"
     style="stroke-width:2.29885" /><path
     fill="#633001"
     d="m 113.35896,98.69254 c 3.51036,-2.23219 8.07357,-3.46207 12.87357,-3.46207 4.80001,0 9.36323,1.22988 12.87127,3.46207 3.45517,2.1977 6.45516,5.80919 6.45516,10.53333 v 4 c 0,4.72413 -2.99999,8.33563 -6.45516,10.53334 -3.50804,2.23447 -8.07356,3.46206 -12.87127,3.46206 -4.79771,0 -9.36321,-1.22989 -12.87357,-3.46206 -3.45287,-2.19771 -6.45517,-5.80921 -6.45517,-10.53334 v -4 c 0,-4.72414 3.0023,-8.33563 6.45517,-10.53333 z m 12.87357,1.2023 c -8.09885,0 -14.66207,4.17701 -14.66207,9.33103 v 4 c 0,5.15403 6.56322,9.33104 14.66207,9.33104 8.09885,0 14.66206,-4.17701 14.66206,-9.33104 v -4 c 0,-5.15402 -6.5655,-9.33103 -14.66206,-9.33103 z"
     class="B"
     id="path72"
     style="fill-rule:evenodd;stroke-width:2.29885" /></g>
</svg>
