<?xml version="1.0" encoding="UTF-8" standalone="no"?>
<svg
   xmlns:dc="http://purl.org/dc/elements/1.1/"
   xmlns:cc="http://creativecommons.org/ns#"
   xmlns:rdf="http://www.w3.org/1999/02/22-rdf-syntax-ns#"
   xmlns:svg="http://www.w3.org/2000/svg"
   xmlns="http://www.w3.org/2000/svg"
   xmlns:xlink="http://www.w3.org/1999/xlink"
   xmlns:sodipodi="http://sodipodi.sourceforge.net/DTD/sodipodi-0.dtd"
   xmlns:inkscape="http://www.inkscape.org/namespaces/inkscape"
   version="1.1"
   id="Layer_1"
   x="0px"
   y="0px"
   viewBox="0 0 208 208"
   xml:space="preserve"
   sodipodi:docname="cake.svg"
   width="208"
   height="208"
   inkscape:version="1.0.2-2 (e86c870879, 2021-01-15)"><metadata
   id="metadata22"><rdf:RDF><cc:Work
       rdf:about=""><dc:format>image/svg+xml</dc:format><dc:type
         rdf:resource="http://purl.org/dc/dcmitype/StillImage" /><dc:title /></cc:Work></rdf:RDF></metadata><defs
   id="defs20"><linearGradient
     id="D"
     x1="125.5"
     x2="125.5"
     y1="29"
     y2="116"
     xlink:href="#G"
     gradientTransform="matrix(1.1494129,0,0,1.1468947,-85.00182,73.497387)"><stop
       stop-color="#54dade"
       id="stop91" /><stop
       offset=".762"
       stop-color="#24c7d6"
       id="stop93" /></linearGradient><linearGradient
     id="G"
     gradientUnits="userSpaceOnUse" /><linearGradient
     id="E"
     x1="119.469"
     x2="119.469"
     y1="52.268002"
     y2="79.165001"
     xlink:href="#G"><stop
       stop-color="#9f4a08"
       id="stop96" /><stop
       offset=".37"
       stop-color="#7d3900"
       id="stop98" /><stop
       offset="1"
       stop-color="#8d4104"
       id="stop100" /></linearGradient></defs><sodipodi:namedview
   pagecolor="#ffffff"
   bordercolor="#666666"
   borderopacity="1"
   objecttolerance="10"
   gridtolerance="10"
   guidetolerance="10"
   inkscape:pageopacity="0"
   inkscape:pageshadow="2"
   inkscape:window-width="1368"
   inkscape:window-height="850"
   id="namedview18"
   showgrid="false"
   fit-margin-left="0"
   fit-margin-top="0"
   fit-margin-right="0"
   fit-margin-bottom="0"
   inkscape:zoom="1.3333333"
   inkscape:cx="104"
   inkscape:cy="112.75"
   inkscape:window-x="-6"
   inkscape:window-y="-6"
   inkscape:window-maximized="1"
   inkscape:current-layer="Layer_1"
   inkscape:document-rotation="0" />
<g
   id="g14"
   transform="translate(-136,-136)">
	<path
   style="clip-rule:evenodd;fill-rule:evenodd"
   d="m 240,136.077 c 57.395,0 103.923,46.528 103.923,103.923 0,57.395 -46.528,103.923 -103.923,103.923 -57.395,0 -103.923,-46.528 -103.923,-103.923 0,-57.395 46.528,-103.923 103.923,-103.923 z"
   id="path2" />
	<path
   style="clip-rule:evenodd;fill:#e3be6d;fill-rule:evenodd"
   d="m 240,143.357 c 53.374,0 96.642,43.268 96.642,96.642 0,44.693 -30.339,82.295 -71.544,93.346 0.104,-3.719 0.065,-7.438 -0.316,-11.147 -0.782,-7.622 -2.894,-14.695 -6.218,-21.428 -0.191,-1.356 -0.403,-2.71 -0.636,-4.058 2.124,1.231 3.225,3.047 4.429,5.507 l 0.297,0.606 -0.108,-0.666 c -0.165,-1.02 -0.323,-2.041 -0.484,-3.061 -1.591,-10.076 -3.712,-17.161 -10.42,-24.955 -0.072,-0.179 -0.142,-0.358 -0.215,-0.536 2.148,0.032 3.778,1.875 5.123,3.339 l 0.312,0.34 -0.143,-0.439 c -2.437,-7.457 -5.714,-12.72 -12.204,-17.296 l -0.203,-0.143 0.245,-0.038 c 3.131,-0.483 5.797,1.317 8.088,3.215 l 0.32,0.265 -0.165,-0.382 c -2.304,-5.344 -8.501,-7.155 -13.618,-9.808 l -0.238,-0.285 c 3.079,0.433 6.344,-0.373 9.233,-1.324 2.199,-0.722 4.337,-1.607 6.53,-2.336 0.965,-0.321 2.918,-0.944 3.954,-0.736 6.22,1.646 16.874,4.134 19.288,-3.903 4.427,-1.447 9.657,-4.032 10.427,-9.031 0.993,-6.458 -6.463,-13.673 -10.67,-17.755 -2.174,-2.109 -4.406,-4.16 -6.553,-6.294 -1.481,-1.473 -3.255,-3.266 -4.376,-5.044 -0.783,-1.595 -1.604,-3.124 -2.462,-4.585 -0.548,-2.639 -1.78,-5.074 -4.095,-7.033 l -0.436,-0.369 0.535,0.199 c 1.456,0.54 3.707,0.908 5.263,0.883 l 0.27,-0.004 -0.208,-0.173 c -4.987,-4.14 -9.535,-12.85 -17.133,-11.599 l -0.303,0.05 0.215,-0.219 c 2.142,-2.179 5.315,-1.71 6.589,-5.029 l 0.074,-0.192 -0.196,0.06 c -5.782,1.772 -11.553,-1.849 -17.306,0.223 l -0.437,0.157 0.333,-0.323 c 1.875,-1.819 2.795,-4.072 3.125,-6.633 l 0.045,-0.346 -0.221,0.271 c -2.509,3.065 -6.215,5.012 -9.87,6.545 -0.367,-3.58 -1.202,-7.041 -3.071,-9.707 -0.585,-0.834 -1.206,-1.73 -1.878,-2.496 -0.74,-0.843 -1.779,-1.548 -2.949,-1.035 -1.242,0.545 -1.331,1.803 -1.324,2.956 0.005,0.775 0.025,1.539 -0.051,2.313 -0.451,4.585 -2.381,8.908 -4.283,13.243 -9.888,4.277 -17.383,9.813 -22.761,19.7 l -0.219,0.402 0.367,-0.274 c 0.662,-0.494 2.154,-1.617 2.992,-1.485 0.338,0.053 0.665,0.214 0.983,0.334 l 0.16,0.06 -0.13,0.11 c -3.946,3.326 -4.991,11.193 -5.911,16.037 -0.747,3.939 -1.566,8.306 -3.581,11.815 l -0.079,0.137 0.158,0.012 c 0.383,0.03 0.738,0.118 1.093,0.262 0.196,0.08 0.469,0.227 0.678,0.229 0.285,0.003 0.549,-0.289 0.72,-0.49 l 0.372,-0.438 -0.203,0.539 c -0.787,2.094 -1.164,4.323 -1.41,6.538 -0.463,4.166 -0.311,11.078 -3.088,14.387 -0.221,0.263 -0.462,0.509 -0.72,0.735 l -0.404,0.353 0.504,-0.184 c 1.939,-0.707 2.77,-1.597 4.15,-3.071 l 0.292,-0.312 -0.123,0.409 c -1.202,3.994 -1.906,8.112 -2.824,12.175 -0.708,3.133 -1.646,6.661 -3.822,9.117 -0.385,0.434 -0.809,0.835 -1.266,1.193 l -0.273,0.215 0.345,-0.036 c 3.054,-0.32 5.247,-4.093 6.662,-6.476 l 0.297,-0.5 -0.113,0.57 c -1.561,7.879 -4.944,22.546 -12.057,27.142 l -0.078,0.05 0.088,0.163 0.085,-0.037 c 4.437,-1.97 8.292,-7.999 10.046,-12.366 l 0.278,-0.692 -0.085,0.741 c -0.769,6.659 -4.288,13.205 -8.167,18.571 -2.339,3.236 -5.166,6.565 -8.26,9.615 C 154.193,290.868 143.359,266.701 143.359,240 143.357,186.626 186.626,143.357 240,143.357 Z"
   id="path4" />
	<path
   style="clip-rule:evenodd;fill:#e3be6d;fill-rule:evenodd"
   d="m 261.933,334.139 c -0.69,0.161 -1.385,0.313 -2.081,0.459 0.1,-2.102 0.148,-4.177 0.143,-6.215 l -10e-4,-0.32 0.183,0.262 c 0.9,1.291 1.409,3.733 1.756,5.814 z"
   id="path6" />
	<path
   style="clip-rule:evenodd;fill:#e3be6d;fill-rule:evenodd"
   d="m 230.372,201.531 -0.008,-0.043 -0.003,0.062 -0.182,-0.66 c -1.031,-3.728 -0.732,-8.065 -0.661,-11.897 0.051,-2.782 0.125,-5.571 -0.127,-8.347 l -0.007,-0.074 h 0.001 c -0.336,-3.617 -1.142,-6.878 -3.053,-9.366 -3.988,-5.195 -2.704,-2.47 -3.062,0.843 -0.443,4.111 -2.174,8.101 -4.019,12.029 l -0.105,0.223 -0.678,1.433 -0.063,0.133 -0.212,0.448 -0.158,0.333 -0.116,0.248 -0.067,0.142 -0.183,0.39 -0.022,0.048 c -0.174,0.374 -0.346,0.747 -0.515,1.12 l -0.017,0.038 -0.008,0.016 c -0.168,0.371 -0.332,0.742 -0.493,1.111 l -0.012,0.028 -0.006,0.014 -0.229,0.535 -0.022,0.052 -0.222,0.535 -0.007,0.017 c -0.071,0.172 -0.139,0.345 -0.207,0.517 l -0.045,0.114 c -0.067,0.172 -0.133,0.343 -0.198,0.514 l -0.002,0.006 c -0.065,0.172 -0.127,0.343 -0.189,0.515 l -0.043,0.119 c -0.061,0.172 -0.121,0.345 -0.18,0.517 l -0.002,0.005 c -0.057,0.171 -0.113,0.341 -0.168,0.511 l -0.042,0.132 c -0.045,0.144 -0.089,0.287 -0.132,0.431 l -0.021,0.071 -0.004,0.015 -0.001,0.004 c -0.049,0.167 -0.095,0.333 -0.141,0.5 l -0.032,0.118 c -0.041,0.154 -0.081,0.308 -0.119,0.462 l -0.013,0.05 -0.006,0.027 c -0.04,0.165 -0.077,0.33 -0.113,0.495 l -0.025,0.116 c -0.035,0.161 -0.067,0.323 -0.098,0.484 l -0.007,0.035 c -0.032,0.171 -0.062,0.342 -0.089,0.513 l -0.018,0.115 c -0.025,0.162 -0.048,0.324 -0.069,0.485 l -0.005,0.037 c -0.022,0.17 -0.04,0.34 -0.056,0.511 l -0.012,0.133 c -0.014,0.155 -0.025,0.31 -0.035,0.465 L 214.041,199 c -0.01,0.177 -0.017,0.354 -0.021,0.53 l -0.001,0.087 c -0.003,0.165 -0.004,0.331 -0.002,0.496 l 0.001,0.037 c 0.003,0.183 0.01,0.366 0.02,0.549 l 0.002,0.043 c 0.01,0.177 0.023,0.353 0.04,0.53 l 0.002,0.028 c 0.018,0.187 0.04,0.374 0.066,0.562 l 0.002,0.016 c 0.053,0.38 0.121,0.76 0.207,1.141 l 0.002,0.008 c 0.13,0.574 0.299,1.149 0.512,1.725 l 0.002,0.006 c 0.141,0.382 0.301,0.766 0.482,1.148 l 0.007,0.014 c 0.179,0.38 0.377,0.759 0.597,1.14 l 0.017,0.029 c 0.218,0.376 0.457,0.754 0.717,1.131 l 0.027,0.038 c 0.13,0.188 0.265,0.378 0.407,0.566 l 0.002,0.002 c 0.146,0.194 0.297,0.388 0.454,0.583 l -0.004,-0.001 0.027,0.035 -0.218,-0.071 c -1.07,-0.241 -1.707,-1.053 -2.229,-1.405 -0.439,-0.2 -0.84,-0.133 -1.211,0.589 l -0.072,0.14 -0.004,0.008 -0.067,0.133 -0.008,0.016 -0.062,0.126 -0.011,0.023 -0.058,0.119 -0.015,0.03 -0.054,0.112 -0.018,0.038 -0.071,0.15 -0.047,0.1 -0.023,0.05 -0.043,0.094 -0.025,0.057 -0.068,0.151 -0.037,0.083 -0.03,0.068 -0.034,0.078 -0.032,0.074 c -1.059,2.464 -1.698,5.018 -1.722,7.45 v 0.029 0.127 0.022 l 0.001,0.134 v 0.015 l 0.003,0.141 v 0.007 l 0.004,0.148 c 0.204,5.937 4.079,8.163 8.448,10.343 l 0.001,10e-4 0.003,0.001 c 5.613,2.739 12.04,5.386 12.541,15.972 z"
   id="path8" />
	<path
   style="clip-rule:evenodd;fill:#e3be6d;fill-rule:evenodd"
   d="m 230.401,238.259 v -10e-4 c 4.194,14.029 18.432,1.88 23.641,3.02 8.729,2.294 13.863,2.101 14.814,-3.021 22.306,-6.612 -4.402,-22.03 -9.639,-30.406 -0.132,-0.266 -0.265,-0.531 -0.4,-0.795 -0.017,0.496 -0.052,0.995 -0.101,1.497 l -0.006,0.057 -0.019,0.185 -0.004,0.038 v 0.001 l -0.012,0.112 -0.013,0.112 c -0.166,1.442 -0.442,2.876 -0.753,4.25 l -0.002,0.005 -0.025,0.111 -0.019,0.081 -0.007,0.03 -0.025,0.111 -0.026,0.111 -0.003,0.014 -0.022,0.097 -0.026,0.11 -0.026,0.11 -0.025,0.107 v -0.002 l -10e-4,0.006 c -0.531,-3.53 -1.43,-5.947 -2.671,-7.83 -1.423,-2.092 -3.448,-3.735 -6.376,-5.803 l -0.006,-0.004 -0.079,-0.055 c -0.018,0.032 -0.036,0.065 -0.052,0.097 l -0.031,0.065 -0.019,0.042 -0.031,0.074 -0.012,0.032 -0.03,0.088 -0.004,0.011 c -0.176,0.564 -0.057,1.12 0.212,1.677 l 0.005,0.011 0.009,0.017 c 0.78,1.553 2.745,3.093 2.621,4.892 l -0.012,0.264 -0.016,-0.029 -0.001,0.009 c -0.067,-0.135 -0.137,-0.264 -0.209,-0.388 l -0.017,-0.031 -0.003,-0.004 -0.02,-0.034 -0.062,-0.102 -0.021,-0.034 -0.041,-0.065 -0.001,-0.002 -0.022,-0.033 -0.022,-0.033 -0.022,-0.033 -0.001,-10e-4 -0.089,-0.129 -0.023,-0.032 c -0.122,-0.171 -0.253,-0.335 -0.391,-0.493 l -0.026,-0.03 -0.106,-0.116 -0.027,-0.029 -0.027,-0.029 -0.055,-0.057 -0.028,-0.028 -0.028,-0.028 -0.028,-0.028 -0.028,-0.028 -0.028,-0.028 -0.029,-0.027 -0.109,-0.101 -0.005,-0.005 -0.003,-0.002 -0.03,-0.027 -0.118,-0.103 -0.002,-0.002 -0.006,-0.006 -0.005,-0.004 c -1.395,-1.187 -3.228,-1.83 -5.265,-2.826 l -0.002,-0.001 -0.083,-0.04 -0.114,-0.057 c -1.783,-0.886 -3.713,-2.062 -5.638,-4.115 l -0.003,-0.003 -0.086,-0.092 -0.008,-0.008 -0.069,-0.076 c -0.116,-0.127 -0.232,-0.257 -0.346,-0.388 l -0.146,-0.168 c -0.005,0.084 -0.006,0.169 -0.004,0.252 l 0.001,0.034 0.005,0.107 v 0.003 c 0.101,1.433 1.192,2.646 2.22,3.891 0.798,0.952 1.559,1.927 1.79,3.078 l 0.061,0.301 -0.015,-0.016 v 0.001 l -0.187,-0.205 -0.007,-0.007 -0.123,-0.134 -0.057,-0.062 -0.07,-0.075 -0.118,-0.127 -0.012,-0.014 c -1.683,-1.803 -3.414,-3.428 -5.123,-4.632 l -0.016,-0.011 -0.142,-0.099 c -1.843,-1.264 -3.822,-2.144 -5.689,-1.994 l -0.022,0.002 -0.151,0.015 -0.053,0.006 c -0.063,0.007 -0.125,0.017 -0.187,0.027 l -0.04,0.008 -0.004,0.001 c -0.422,0.096 -0.676,0.54 -0.831,1.065 l -0.001,10e-4 -0.005,0.018 c -0.171,0.61 -0.237,1.418 -0.257,2.288 z"
   id="path10" />
	<path
   style="clip-rule:evenodd;fill-rule:evenodd"
   d="m 255.908,213.915 c -2.655,-3.53 -6.502,-6.437 -11.109,-4.079 0.622,-0.067 1.44,-0.256 2.057,0 -0.02,4.233 1.873,5.312 3.356,5.534 1.458,0.219 3.127,-0.263 3.345,-2.29 0.876,-0.041 1.494,0.347 2.351,0.835 z"
   id="path12" />
</g>
<rect
   id="_x3C_Slice_x3E_"
   x="0"
   y="0"
   style="clip-rule:evenodd;fill:none;fill-rule:evenodd"
   width="208"
   height="208" />
<ellipse
   cx="59.249512"
   cy="156.64726"
   fill="url(#D)"
   id="circle30"
   style="fill:url(#D);stroke-width:1.14816"
   rx="49.999462"
   ry="49.889923" /><path
   d="m 26.77285,162.12942 -0.0127,0.56083 c 0,0.70878 0.0621,1.40952 0.18276,2.09881 h -0.18276 v 1.08611 a 12.206766,12.180022 0 0 0 0.1023,1.57469 c 1.32413,10.1351 15.31823,18.10947 32.38701,18.10947 17.06878,0 31.06404,-7.97437 32.38816,-18.10947 a 12.206766,12.180022 0 0 0 0.1023,-1.57469 v -1.08611 h -0.18276 c 0.12069,-0.68929 0.18276,-1.39003 0.18276,-2.09881 0,-0.18809 -0.005,-0.37503 -0.0127,-0.56083 -0.4908,-10.61108 -14.84352,-19.12218 -32.47781,-19.12218 -17.63429,0 -31.98701,8.50995 -32.47666,19.12218 z m -2.66894,0 c 0.24138,-6.47423 4.65053,-11.91281 10.78839,-15.63103 6.362,-3.85357 14.9803,-6.15195 24.35721,-6.15195 9.37691,0 17.99636,2.29723 24.35721,6.15195 6.13787,3.71822 10.54701,9.1568 10.78839,15.63103 h 0.0104 v 3.74575 c 0,6.72081 -4.48501,12.36696 -10.79874,16.19186 -6.36085,3.85472 -14.97915,6.1508 -24.35721,6.1508 -9.37806,0 -17.99521,-2.29723 -24.35721,-6.1508 -6.31372,-3.8249 -10.79873,-9.47105 -10.79873,-16.19186 v -3.74575 z"
   class="B C"
   id="path32"
   style="fill:#606063;fill-rule:evenodd;stroke-width:1.14816" /><path
   fill="#bebebe"
   d="m 91.73997,165.87517 c 0,10.87142 -14.54582,19.68301 -32.48931,19.68301 -17.94349,0 -32.49046,-8.81273 -32.49046,-19.68301 v -3.1161 h 64.97977 z"
   id="path34"
   style="stroke-width:1.14816" /><path
   fill="#f5f3f3"
   d="m 91.73997,162.69025 c 0,10.87141 -14.54582,19.68415 -32.48931,19.68415 -17.94349,0 -32.49046,-8.81274 -32.49046,-19.68415 0,-10.87142 14.54583,-19.68301 32.49046,-19.68301 17.94464,0 32.48931,8.81273 32.48931,19.68416 z"
   id="path36"
   style="stroke-width:1.14816" /><path
   d="m 31.759,157.12895 v 0.0367 c 0,0.89458 0.12989,1.77196 0.37931,2.62296 H 31.759 v 1.15263 c 0,0.50922 0.0414,1.01156 0.12414,1.50702 1.23792,7.48463 11.60102,13.32577 24.20089,13.32577 12.59986,0 22.96297,-5.84229 24.20204,-13.32577 0.0816,-0.49546 0.12413,-0.99895 0.12413,-1.50702 v -1.15263 h -0.3793 a 9.3447273,9.3242543 0 0 0 0.3793,-2.54955 v -0.11011 c -0.0322,-8.17506 -10.91137,-14.79609 -24.32502,-14.79609 -13.41365,0 -24.29285,6.62103 -24.32618,14.79609 z m -2.66549,0 v 0 3.81343 c 0,5.3732 3.56203,9.8071 8.40106,12.75806 4.88501,2.97849 11.4654,4.73437 18.59061,4.73437 7.12521,0 13.7056,-1.75588 18.59175,-4.73437 4.83903,-2.95096 8.39991,-7.38486 8.39991,-12.75806 v -3.693 l 10e-4,-0.0826 c 0,-5.3732 -3.56203,-9.80709 -8.40106,-12.7592 -4.885,-2.97849 -11.46539,-4.73553 -18.5906,-4.73553 -7.12521,0 -13.7056,1.75589 -18.59176,4.73553 -4.82868,2.94408 -8.38382,7.36535 -8.39991,12.72135 z"
   class="B D"
   id="path38"
   style="fill:#612f01;fill-rule:evenodd;stroke-width:1.14816" /><path
   d="m 80.4102,160.94238 c 0,8.19227 -10.89068,14.83394 -24.32502,14.83394 -13.43434,0 -24.32618,-6.64167 -24.32618,-14.83394 v -3.48083 h 48.6512 z"
   class="E"
   id="path40"
   style="fill:#fedc90;stroke-width:1.14816" /><path
   d="m 80.4102,157.16565 c 0,8.19227 -10.89068,14.83394 -24.32502,14.83394 -13.43434,0 -24.32618,-6.64052 -24.32618,-14.83394 0,-8.19341 10.89184,-14.83393 24.32618,-14.83393 13.43434,0 24.32502,6.64167 24.32502,14.83393 z"
   class="F"
   id="path42"
   style="fill:#d1884f;stroke-width:1.14816" /><path
   d="m 39.09111,149.14887 v 0.0367 c 0,0.89456 0.12988,1.77194 0.3793,2.62293 h -0.38045 v 1.15264 c 0,0.50922 0.0425,1.01156 0.12413,1.50702 1.23907,7.48464 11.60218,13.32577 24.20204,13.32577 12.59987,0 22.96297,-5.84113 24.20204,-13.32577 0.0816,-0.49546 0.12414,-0.99895 0.12414,-1.50702 V 151.8085 H 87.363 a 9.3447273,9.3242543 0 0 0 0.37931,-2.54953 v -0.1101 c -0.0333,-8.17508 -10.91138,-14.79609 -24.32618,-14.79609 -13.4148,0 -24.29284,6.62101 -24.32502,14.79609 z m -2.66664,0 v 0 3.81341 c 0,5.37321 3.56088,9.80711 8.40106,12.75806 4.885,2.97849 11.46424,4.73438 18.5906,4.73438 7.12636,0 13.7056,-1.75589 18.59061,-4.73438 4.84018,-2.95095 8.40106,-7.38485 8.40106,-12.75806 v -3.77557 c 0,-5.3732 -3.56088,-9.8071 -8.39991,-12.75921 -4.88616,-2.97963 -11.4654,-4.73552 -18.59176,-4.73552 -7.12636,0 -13.7056,1.75589 -18.5906,4.73552 -4.82869,2.94408 -8.38382,7.36536 -8.40106,12.72137 z"
   class="B D"
   id="path44"
   style="fill:#612f01;fill-rule:evenodd;stroke-width:1.14816" /><path
   d="m 87.74001,152.96228 c 0,8.19228 -10.89069,14.83394 -24.32503,14.83394 -13.43434,0 -24.32617,-6.64166 -24.32617,-14.83394 v -3.48081 h 48.6512 z"
   class="E"
   id="path46"
   style="fill:#fedc90;stroke-width:1.14816" /><path
   d="m 87.74001,149.18557 c 0,8.19226 -10.89069,14.83392 -24.32503,14.83392 -13.43434,0 -24.32617,-6.64166 -24.32617,-14.83392 0,-8.19228 10.89069,-14.83394 24.32617,-14.83394 13.43549,0 24.32503,6.64166 24.32503,14.83394 z"
   class="F"
   id="path48"
   style="fill:#d1884f;stroke-width:1.14816" /><path
   d="m 31.759,141.16876 v 0.0367 c 0,0.89572 0.12989,1.77195 0.37931,2.62295 H 31.759 v 1.15263 c 0,0.50922 0.0414,1.01156 0.12414,1.50702 1.23792,7.48463 11.60102,13.32577 24.20089,13.32577 12.59986,0 22.96297,-5.84114 24.20204,-13.32577 0.0816,-0.49546 0.12413,-0.99895 0.12413,-1.50702 v -1.15263 h -0.3793 a 9.3447273,9.3242543 0 0 0 0.3793,-2.54955 v -0.11011 c -0.0322,-8.17506 -10.91137,-14.79608 -24.32502,-14.79608 -13.41365,0 -24.29285,6.62102 -24.32618,14.79608 z m -2.66549,0 v 0 3.81343 c 0,5.3732 3.56203,9.8071 8.40106,12.75806 4.88501,2.97849 11.4654,4.73553 18.59061,4.73553 7.12521,0 13.7056,-1.7559 18.59175,-4.73553 4.83903,-2.95096 8.39991,-7.38486 8.39991,-12.75806 v -3.693 l 10e-4,-0.0826 c 0,-5.37319 -3.56203,-9.80709 -8.40106,-12.75805 -4.885,-2.97964 -11.46539,-4.73554 -18.5906,-4.73554 -7.12521,0 -13.7056,1.7559 -18.59176,4.73554 -4.82868,2.94408 -8.38382,7.36421 -8.39991,12.72135 z"
   class="B D"
   id="path50"
   style="fill:#612f01;fill-rule:evenodd;stroke-width:1.14816" /><path
   d="m 80.4102,144.98219 c 0,8.19227 -10.89068,14.83394 -24.32502,14.83394 -13.43434,0 -24.32618,-6.64167 -24.32618,-14.83394 v -3.48083 h 48.6512 z"
   class="E"
   id="path52"
   style="fill:#fedc90;stroke-width:1.14816" /><path
   d="m 80.4102,141.20547 c 0,8.19227 -10.89068,14.83393 -24.32502,14.83393 -13.43434,0 -24.32618,-6.64166 -24.32618,-14.83393 0,-8.19227 10.89184,-14.83394 24.32618,-14.83394 13.43434,0 24.32502,6.64167 24.32502,14.83394 z"
   class="F"
   id="path54"
   style="fill:#d1884f;stroke-width:1.14816" /><g
   class="B"
   id="g60"
   style="fill-rule:evenodd"
   transform="matrix(1.1494129,0,0,1.1468947,-85.00181,73.497386)"><path
     fill="url(#E)"
     d="m 106.588,59.841 c 0,2.385 1.733,4.521 4.467,5.958 l -1.895,3.281 h 0.001 -0.001 v 8.303 a 1.99,1.99 0 0 0 1.988,1.988 1.99,1.99 0 0 0 1.988,-1.988 V 70.78 l 2.038,-3.53 c 1.303,0.276 2.702,0.426 4.158,0.426 7.038,0 12.743,-3.508 12.743,-7.835 0,-4.327 -5.705,-7.835 -12.743,-7.835 -7.038,0 -12.744,3.508 -12.744,7.835 z"
     id="path56"
     style="fill:url(#E)" /><path
     fill="#633001"
     d="m 111.056,65.798 -0.87,-0.503 c -2.226,-1.411 -3.596,-3.334 -3.596,-5.455 0,-4.327 5.705,-7.835 12.743,-7.835 7.038,0 12.744,3.508 12.744,7.835 0,4.327 -5.705,7.835 -12.744,7.835 a 20.09,20.09 0 0 1 -4.157,-0.426 l -2.038,3.53 v 6.603 a 1.99,1.99 0 0 1 -1.988,1.988 1.99,1.99 0 0 1 -1.988,-1.988 v -8.303 z m -3.923,3.316 v 8.268 a 4.02,4.02 0 0 0 4.017,4.017 4.02,4.02 0 0 0 4.018,-4.017 v -6.059 l 1.057,-1.831 a 22.53,22.53 0 0 0 3.108,0.213 c 3.833,0 7.4,-0.951 10.074,-2.595 2.642,-1.624 4.699,-4.137 4.699,-7.269 0,-3.132 -2.057,-5.645 -4.699,-7.269 -2.674,-1.645 -6.241,-2.595 -10.074,-2.595 -3.833,0 -7.399,0.951 -10.074,2.595 -2.641,1.624 -4.699,4.137 -4.699,7.269 0,2.749 1.575,5.013 3.762,6.634 l -0.903,1.565 a 2.05,2.05 0 0 0 -0.204,0.465 2.02,2.02 0 0 0 -0.082,0.61 z"
     id="path58" /></g><g
   fill="#9e7200"
   id="g66"
   transform="matrix(1.1494129,0,0,1.1468947,-85.00181,73.497386)"><path
     id="use62"
     d="m 110.571,56.54 c 0,2.242 2.856,4.059 6.378,4.059 3.522,0 6.378,-1.817 6.378,-4.059 0,-2.242 -2.855,-4.059 -6.378,-4.059 -3.523,0 -6.378,1.817 -6.378,4.059 z" /><path
     d="m 110.57,54.8 h 12.756 v 1.739 H 110.57 Z"
     id="path64" /></g><path
   id="use68"
   d="m 42.08992,136.34722 c 0,2.57134 3.28273,4.65525 7.33096,4.65525 4.04823,0 7.33096,-2.08391 7.33096,-4.65525 0,-2.57133 -3.28158,-4.65524 -7.33096,-4.65524 -4.04938,0 -7.33096,2.08391 -7.33096,4.65524 z"
   style="fill:#f0b90b;stroke-width:1.14816" /><path
   fill="#9e7200"
   d="m 46.63815,135.78639 2.0655,-1.31204 a 1.333319,1.3303979 0 0 1 1.43102,0 l 2.06664,1.31204 a 0.66665951,0.66519895 0 0 1 0,1.12166 l -2.06664,1.31205 a 1.333319,1.3303979 0 0 1 -1.43102,0 l -2.0655,-1.31205 a 0.66665951,0.66519895 0 0 1 0,-1.12166 z"
   id="path70"
   style="stroke-width:1.14816" /><path
   fill="#633001"
   d="m 42.98302,131.09215 c 1.75515,-1.11363 4.03674,-1.72722 6.43671,-1.72722 2.39998,0 4.68156,0.61359 6.43556,1.72722 1.72757,1.09643 3.22756,2.89821 3.22756,5.25507 v 1.99559 c 0,2.35687 -1.49999,4.15865 -3.22756,5.25508 -1.754,1.11478 -4.03673,1.72722 -6.43556,1.72722 -2.39882,0 -4.68156,-0.61358 -6.43671,-1.72722 -1.72642,-1.09643 -3.22755,-2.89821 -3.22755,-5.25508 v -1.99559 c 0,-2.35686 1.50113,-4.15864 3.22755,-5.25507 z m 6.43671,0.59983 c -4.04938,0 -7.33095,2.08391 -7.33095,4.65524 v 1.99559 c 0,2.57134 3.28157,4.65525 7.33095,4.65525 4.04938,0 7.33096,-2.08391 7.33096,-4.65525 v -1.99559 c 0,-2.57133 -3.28273,-4.65524 -7.33096,-4.65524 z"
   class="B"
   id="path72"
   style="fill-rule:evenodd;stroke-width:1.14816" /></svg>
