<?xml version="1.0" encoding="UTF-8" standalone="no"?>
<svg
   xmlns:dc="http://purl.org/dc/elements/1.1/"
   xmlns:cc="http://creativecommons.org/ns#"
   xmlns:rdf="http://www.w3.org/1999/02/22-rdf-syntax-ns#"
   xmlns:svg="http://www.w3.org/2000/svg"
   xmlns="http://www.w3.org/2000/svg"
   xmlns:xlink="http://www.w3.org/1999/xlink"
   xmlns:sodipodi="http://sodipodi.sourceforge.net/DTD/sodipodi-0.dtd"
   xmlns:inkscape="http://www.inkscape.org/namespaces/inkscape"
   version="1.1"
   x="0px"
   y="0px"
   viewBox="0 0 648 396"
   style="enable-background:new 0 0 648 396;"
   xml:space="preserve"
   id="svg25"
   sodipodi:docname="usdt-bnb.svg"
   inkscape:version="1.0.2-2 (e86c870879, 2021-01-15)"><metadata
   id="metadata31"><rdf:RDF><cc:Work
       rdf:about=""><dc:format>image/svg+xml</dc:format><dc:type
         rdf:resource="http://purl.org/dc/dcmitype/StillImage" /><dc:title /></cc:Work></rdf:RDF></metadata><defs
   id="defs29"><linearGradient
     id="D"
     x1="125.5"
     x2="125.5"
     y1="29"
     y2="116"
     xlink:href="#G"
     gradientTransform="matrix(2.2988508,0,0,2.2988506,-142.61345,-16.75114)"><stop
       stop-color="#54dade"
       id="stop91" /><stop
       offset=".762"
       stop-color="#24c7d6"
       id="stop93" /></linearGradient><linearGradient
     id="G"
     gradientUnits="userSpaceOnUse" /><linearGradient
     id="E"
     x1="119.469"
     x2="119.469"
     y1="52.268002"
     y2="79.165001"
     xlink:href="#G"><stop
       stop-color="#9f4a08"
       id="stop96" /><stop
       offset=".37"
       stop-color="#7d3900"
       id="stop98" /><stop
       offset="1"
       stop-color="#8d4104"
       id="stop100" /></linearGradient></defs><sodipodi:namedview
   pagecolor="#ffffff"
   bordercolor="#666666"
   borderopacity="1"
   objecttolerance="10"
   gridtolerance="10"
   guidetolerance="10"
   inkscape:pageopacity="0"
   inkscape:pageshadow="2"
   inkscape:window-width="1368"
   inkscape:window-height="850"
   id="namedview27"
   showgrid="false"
   inkscape:zoom="1.0421558"
   inkscape:cx="220.58682"
   inkscape:cy="291.89609"
   inkscape:window-x="-6"
   inkscape:window-y="-6"
   inkscape:window-maximized="1"
   inkscape:current-layer="layer1"
   inkscape:pagecheckerboard="false"
   inkscape:document-rotation="0" />
<style
   type="text/css"
   id="style2">
	.st0{fill-rule:evenodd;clip-rule:evenodd;fill:#B1B3B6;}
	.st1{fill-rule:evenodd;clip-rule:evenodd;fill:#F48FA6;}
	.st2{fill-rule:evenodd;clip-rule:evenodd;fill:#FFFFFF;}
	.st3{fill-rule:evenodd;clip-rule:evenodd;fill:#808285;}
</style>
<g
   id="Background">
</g>
<g
   id="Guides">
</g>
<g
   id="Foreground">
	<path
   class="st0"
   d="M326,74.7c-1.6,2.6-7.4,4.8-13.1,4.2c-4.5-0.5-11.3-0.7-13.8,0.2c-2.4,0.9-5.5,4.5-11.4,4.8   c0,0-12.1,5.4-10.5,24.1c1.7,19.4,12.7,26,15.3,51.8c4.8,46.6-34.5,66.4-34.5,66.4c-0.3,5.1-5.7,16.6-16.2,19.1   c-8.7,28.5-7,59.4-7,59.4c2.8,3.6,4.1,10.7-0.8,15.6c0,0-2.5,28.1,5.5,45.7c4.7,1.9,9.2,5.5,11.1,10.4c0,0-14.1,0-21.4,0   c0,0-0.7-4.3,0.3-6.7c0,0-9-25.3-9.8-53.4c-4.6-6.6-5.4-20.2-5.4-20.2c-2,4.9-1.3,11.5-1.3,11.5c2.4,3.8,2.3,10.5-3,15   c0,0-6,26.5-1.4,43.4c0,0,8.6,3.6,10,10.3c-6-0.2-14.1,0-22.1,0c0,0-0.5-3.1,1-7c-3.3-26.8-3-34.3-1.7-51.8c0,0-5.6-5.4-6.2-29.7   c-0.3-12.2,0.7-28.9,0.7-28.9s-2.2-2.1-3.4-5.3c0,0-10.5,3.4-21.8,3c-32.4-1.2-45.1-14.9-45.1-14.9s0.3,14.5-7,33.1   c-7.2,18.5-15.6,28.7-14.5,36.3c3.4,24.6,15.5,54.2,15.5,54.2s11.1,3,13.5,11h-23.7c-0.7-3.4,0.4-6.4,0.4-6.4s-10-19.6-13.5-30.6   c-3.5-11-7.2-23.8-7.2-23.8s-6.9-5.5-6.3-11.8c0.6-6.3,5.6-21.3,5.6-21.3S72.3,294,66.2,310.7c-6.1,16.7-8.1,54.5-8.1,54.5   s8.5,5.5,10.8,11.1c0,0-14.7,0-23.7,0c0-5.3,3.1-8.7,3.1-8.7s-0.5-23.9-0.7-33.6c-0.2-9.8-0.1-19-0.1-19s-5.8-4.6-3.3-12   c2.5-7.4,12.2-31.9,12.2-31.9c1.1-20.2-5.7-26.9-3.9-57.7c1.3-21.1,14.7-26.4,14.7-26.4c-4.8,0.3-13-2.7-15.5-7.4   c-1.8-3.3-5.8,0.1-4.1,2.2c1,1.2,0.5,5.9-3.3,3.7c-18.7-11-12.5-38.7,9.4-42c18.9-2.8,26.7,15.6,27.6,19c1,3.4,5,2.9,5,2.9   c14.7-12.5,73.1-1.5,73.1-1.5s18.6-3.7,37.7-5.4c15.5-1.3,31.4,0.8,31.4,0.8s3-0.3,7.2-19.3c3.4-15-3.3-26.7,3.4-56.7   c6.3-28.3,20-36.7,20-36.7s-6.4-13.9,2.1-23.1c5.2-5.6,9.8-3.8,9.1,0.9c-0.4,2.9-0.1,6.6,0.5,8.7c0.5-3.3,2.5-8,9.3-10.5   c7.2-2.6,10.9,1.2,7.7,4.8c-5.2,6-6.2,13.4-6.2,13.4l0,0c0,0,7.9,0.4,12.2,2.6c3.9,2,4.4,6.9,12.2,8.6c6,1.3,13.1,7.6,13.1,7.6   s4.2,0.2,4.7,2.7c0.4,2.2,0.3,3.7-0.6,5.6c0.1,2.5,2.1,2.1,3.1,3.2V74.7z"
   id="path6" />
	
	
	<path
   class="st3"
   d="M326,74.7c1.6,2.6,7.4,4.8,13.1,4.2c4.5-0.5,11.3-0.7,13.8,0.2c2.4,0.9,5.5,4.5,11.4,4.8   c0,0,12.1,5.4,10.5,24.1c-1.7,19.4-12.7,26-15.3,51.8c-4.8,46.6,34.5,66.4,34.5,66.4c0.3,5.1,5.7,16.6,16.2,19.1   c8.7,28.5,7,59.4,7,59.4c-2.8,3.6-4.1,10.7,0.8,15.6c0,0,2.5,28.1-5.5,45.7c-4.7,1.9-9.2,5.5-11.1,10.4c0,0,14.1,0,21.4,0   c0,0,0.7-4.3-0.3-6.7c0,0,9-25.3,9.8-53.4c4.6-6.6,5.4-20.2,5.4-20.2c2,4.9,1.3,11.5,1.3,11.5c-2.4,3.8-2.3,10.5,3,15   c0,0,6,26.5,1.4,43.4c0,0-8.6,3.6-10,10.3c6-0.2,14.1,0,22.1,0c0,0,0.5-3.1-1-7c3.3-26.8,3-34.3,1.7-51.8c0,0,5.6-5.4,6.2-29.7   c0.3-12.2-0.7-28.9-0.7-28.9s2.2-2.1,3.4-5.3c0,0,10.5,3.4,21.8,3c32.4-1.2,45.1-14.9,45.1-14.9s-0.3,14.5,7,33.1   c7.2,18.5,15.6,28.7,14.5,36.3c-3.4,24.6-15.5,54.2-15.5,54.2s-11.1,3-13.5,11h23.7c0.7-3.4-0.4-6.4-0.4-6.4s10-19.6,13.5-30.6   c3.5-11,7.2-23.8,7.2-23.8s6.9-5.5,6.3-11.8c-0.6-6.3-5.6-21.3-5.6-21.3s10.6,11.6,16.7,28.3c6.1,16.7,8.1,54.5,8.1,54.5   s-8.5,5.5-10.8,11.1c0,0,14.7,0,23.7,0c0-5.3-3.1-8.7-3.1-8.7s0.5-23.9,0.7-33.6c0.2-9.8,0.1-19,0.1-19s5.8-4.6,3.3-12   c-2.5-7.4-12.2-31.9-12.2-31.9c-1.1-20.2,5.7-26.9,3.9-57.7c-1.3-21.1-14.7-26.4-14.7-26.4c4.8,0.3,13-2.7,15.5-7.4   c1.8-3.3,5.8,0.1,4.1,2.2c-1,1.2-0.5,5.9,3.3,3.7c18.7-11,12.5-38.7-9.4-42c-18.9-2.8-26.7,15.6-27.6,19c-1,3.4-5,2.9-5,2.9   c-14.7-12.5-73.1-1.5-73.1-1.5s-18.6-3.7-37.7-5.4c-15.5-1.3-31.4,0.8-31.4,0.8s-3-0.3-7.2-19.3c-3.4-15,3.3-26.7-3.4-56.7   c-6.3-28.3-20-36.7-20-36.7s6.4-13.9-2.1-23.1c-5.2-5.6-9.8-3.8-9.1,0.9c0.4,2.9,0.1,6.6-0.5,8.7c-0.5-3.3-2.5-8-9.3-10.5   c-7.2-2.6-10.9,1.2-7.7,4.8c5.2,6,6.2,13.4,6.2,13.4l0,0c0,0-7.9,0.4-12.2,2.6c-3.9,2-4.4,6.9-12.2,8.6c-6,1.3-13.1,7.6-13.1,7.6   s-4.2,0.2-4.7,2.7c-0.4,2.2-0.3,3.7,0.6,5.6c-0.1,2.5-2.1,2.1-3.1,3.2V74.7z"
   id="path22" />
</g><g
   inkscape:groupmode="layer"
   id="layer1"
   inkscape:label="Layer 1"
   style="display:inline"><circle
     cx="506.05325"
     cy="150.65048"
     fill="#f0b90b"
     id="circle22"
     style="stroke-width:3.44827"
     r="100" /><path
     fill="#fffdfa"
     d="m 468.76018,150.65047 -15.3,15.4069 -15.40689,-15.4069 15.40689,-15.40689 z m 37.2931,-37.2931 26.35172,26.35172 15.4069,-15.40689 -26.34828,-26.244829 -15.41034,-15.406888 -41.65173,41.648267 15.4069,15.40689 z m 52.59309,21.88621 -15.29999,15.40689 15.4069,15.4069 15.29999,-15.4069 z m -52.59309,52.69998 -26.34828,-26.35172 -15.3,15.4069 41.64828,41.65172 41.75516,-41.75516 -15.40689,-15.3 z m 0,-21.88619 15.4069,-15.4069 -15.4069,-15.40689 -15.4069,15.40689 z"
     id="path24"
     style="stroke-width:3.44827" /><path
     fill="#24a980"
     d="m 147.03146,250.79466 c 55.22759,0 100,-44.7921 100,-100.04397 0,-55.25184 -44.77241,-100.04394 -100,-100.04394 -55.22759,0 -100,44.7921 -100,100.04394 0,55.25187 44.77241,100.04397 100,100.04397 z"
     id="path28"
     style="stroke-width:2.29937" /><path
     fill="#fffdfa"
     d="m 159.44526,160.72291 -12.2184,0.32198 c -6.43219,0 -10.77241,-0.16099 -12.38161,-0.32198 -24.27586,-0.96596 -42.6046,-5.3081 -42.6046,-10.2942 0,-5.14707 18.16782,-9.32823 42.6046,-10.45516 v 16.56591 c 1.6092,0.16099 6.11034,0.32198 12.54023,0.32198 7.55632,0 11.41609,-0.32198 12.05978,-0.32198 v -16.56591 c 24.43677,1.12693 42.60459,5.30809 42.60459,10.45516 0,4.9861 -18.16782,9.32824 -42.60459,10.2942 z m 0,-22.51794 v -14.79733 h 34.08276 v -22.67892 h -92.60461 v 22.67892 h 34.08276 v 14.79733 c -27.65287,1.28561 -48.3908,6.75469 -48.3908,13.35068 0,6.59602 20.73793,12.06278 48.3908,13.3507 v 47.60941 h 24.60001 v -47.61171 c 27.65057,-1.28562 48.3908,-6.75469 48.3908,-13.3507 -0.16092,-6.59369 -20.89885,-12.06277 -48.55172,-13.35068 z"
     id="path30"
     style="stroke-width:2.29937" /></g>
</svg>
