<?xml version="1.0" encoding="iso-8859-1"?>
<!-- Generator: Adobe Illustrator 19.0.0, SVG Export Plug-In . SVG Version: 6.00 Build 0)  -->
<svg version="1.1" id="Layer_1" xmlns="http://www.w3.org/2000/svg" xmlns:xlink="http://www.w3.org/1999/xlink" x="0px" y="0px"
	 viewBox="4 29.139 604.579 782.751" style="enable-background:new 4 29.139 604.579 782.751;" xml:space="preserve">
<g>
	<g>
		<path style="fill:#FFFFFF;" d="M454.409,29.139l-7.657,3.57c-0.2,3.569-0.14,6.917,0.247,9.948l-5.594-7.454l-22.857,10.658
			c-2.975,21.281-6.48,43.626-11.45,65.219c-4.854-10.315-11.073-30.134-13.754-36.309c-6.293,23.347-9.936,56.327-15.003,77.689
			l-12.941-13.507c-6.374,16.831-14.166,39.873-19.634,64.633c-3.783-5.297-14.996-28.514-18.792-33.816
			c-2.941,28.901-10.72,70.12-18.478,98.111c-1.348-10.251-9.09-26.402-12.459-36.372c-5.672,18.81-6.145,57.714-24.028,96.076
			l-0.005,0.013c-1.416,3.044-2.944,6.084-4.598,9.117c-0.226,0.414,2.022,3.106,3.41,4.545c0.144,0.143,0.292,0.294,0.44,0.446
			c0.122,0.12,0.239,0.253,0.361,0.372c1.228,1.237,2.622,2.595,4.215,4.07l0.004,0.009c11.282,10.518,31.309,26.821,54,44.343
			c2.086,1.609,4.184,3.224,6.319,4.843c0.166,0.143,0.346,0.269,0.521,0.408c0.009-0.004,0.013,0.005,0.013,0.005
			c0.144,0.12,0.298,0.236,0.455,0.361c13.414,10.24,27.497,20.754,41.086,30.659c0.158,0.103,0.316,0.228,0.469,0.344
			c0.184,0.135,0.377,0.265,0.548,0.395c2.18,1.576,4.348,3.148,6.475,4.682c0,0,0.004,0.009,0.013,0.005l0.004,0.009
			c23.578,16.987,44.919,31.542,57.651,38.9l0.004,0.009c2.22,1.282,4.186,2.351,5.846,3.166c0.19,0.099,0.375,0.189,0.556,0.27
			c0.159,0.08,0.304,0.156,0.468,0.223c2.853,1.34,4.644,1.796,5.156,1.215c14.952-17.035,27.601-21.19,28.09-21.727
			c20.896-23.216,54.425-63.589,78.554-80.986c-10.308-2.608-12.653-1.912-19.303-2.496c16.49-23.076,40.552-38.111,65.813-51.873
			v-10.06c-4.234-0.132-8.282,0.608-12.709,1.828c4.191-3.663,8.408-7.279,12.709-10.784V29.139H454.409z"/>
	</g>
	<g>
		<path style="fill:#FFFFFF;" d="M502.138,340.205c8.44-15.58,13.612-39.597,21.74-60.172c-20.34,9.701-25.921,9.332-41.023,13.263
			c2.448-18.135,4.452-43.141,0.547-61.02c-14.757,14.398-28.563,21.385-46.188,25.673c0.998-7.626,2.113-17.786,3.152-32.052
			c-26.798,10.027-34.954,16.447-50.661,33.92c-2.204-9.575-4.301-20.049-3.336-27.493c-11.193,7.914-21.763,22.765-29.973,34.095
			c-3.12-8.537-4.865-13.668-5.43-22.773c-19.322,16.593-30.801,32.738-45.899,54.124c-2.945-10.88-2.175-18.492-2.736-23.457
			c-11.457,20.964-32.07,52.822-40.483,75.182c-2.34-5.096-3.43-10.644-3.651-14.866c-12.301,11.561-22.215,37.331-24.892,54.664
			c-2.303-2.833-4.696-5.544-6.561-8.554c-1.996,6.625-4.559,15.909-6.259,25.976C108.835,417.514,64.143,527.141,46.029,560.031
			c3.511-0.25,18.587-14.223,22.204-13.939c-8.043,26.514-10.209,52.278-8.771,77.38c20.178-31.279,50.118-39.307,75.594-58.58
			c22.718-16.823,35.957-33.512,46.553-41.507c10.587-8.161,24.504-26.861,40.305-37.661c9.065,20.793,24.628,39.654,44.65,55.359
			c0.706,0.561,1.384,1.15,2.109,1.693c0.192,0.143,0.394,0.267,0.586,0.407c0.327,0.248,0.636,0.508,0.966,0.753
			c15.842,11.806,42.758,19.993,67.91,22.071c-4.483,19.883-20.947,41.09-26.277,54.814c-4.678,12.423-16.95,29.836-26.673,56.379
			c-11.296,29.881-10.543,60.868-34.852,89.058c24.486-5.708,48.59-15.06,71.754-30.262c1.294,3.39-7.854,21.797-7.103,25.236
			c26.646-26.874,120.45-101.659,97.296-213.264c-1.047-4.603-1.777-7.769-2.411-10.147c19.803-7.012,34.141-15.374,51.129-28.521
			c-10.935,1.06-14.378,1.383-19.753,0.865c22.186-16.287,46.44-39.714,63.273-61.491c-6.48,3.365-13.704,5.288-21,5.59
			c13.393-24.176,26.785-48.351,40.178-72.527c-5.962,2.053-11.924,4.106-17.885,6.159c11.414-19.027,18.305-40.746,19.948-62.872
			C519.601,329.234,508.296,335.997,502.138,340.205z"/>
	</g>
	<g>
		<g>
			<path style="fill:#DDDDDD;" d="M353.343,570.378c4.303,12.609,0.79,37.028-7.352,49.231
				c-5.226,7.855-14.669,14.239-14.914,23.147c3.417-3.615,7.848-6.248,12.517-7.405c-13.556,24.213-25.8,50.085-36.795,76.73
				c12.526-20.587,39.319-30.734,54.321-51.112c11.64-15.946,13.283-35.572,24.763-50.327c1.856,1.964,3.702,3.934,5.537,5.91
				c8.911-21.633,6.502-35.432-1.625-59.187C378.631,568.462,366.175,569.984,353.343,570.378z"/>
		</g>
		<g>
			<path style="fill:#DDDDDD;" d="M163.24,445.855c2.413,1.203,4.825,2.416,7.233,3.642c-10.913,15.179-29.276,22.297-41.286,37.965
				c-15.313,20.144-17.483,48.714-33.694,66.542c22.456-18.07,43.818-37.121,63.219-56.962c0.209,4.806-1.066,9.8-3.57,14.1
				c8.476-2.751,11.934-13.612,17.993-20.843c9.407-11.256,31.841-21.521,45.152-20.953c-3.245-12.423-5.302-24.801,2.19-38.644
				C195.395,429.613,181.476,431.198,163.24,445.855z"/>
		</g>
	</g>
	<g>
		<g>
			<path style="fill:#DDDDDD;" d="M426.737,320.218c-0.771-0.631-1.609-1.285-2.458-1.92c-1.803-1.349-3.607-2.482-5.379-3.403
				c-24.67-12.937-45.483,13.114-51.541,21.862c-1.501,2.151-3.902,3.626-6.523,3.694c-0.013,0.017-0.031,0.005-0.061,0.009
				c-16.518,0.353-29.697,11.752-29.409,25.464c0.226,11.013,9.047,20.155,21.083,23.154c5.299,1.34,10.162,4.058,14.056,7.891
				c0.36,0.351,0.703,0.688,1.058,1.008c3.513,3.222,6.221,7.195,7.811,11.685c3.899,10.949,12.995,18.564,23.45,18.327
				c13.729-0.277,24.575-13.908,24.235-30.443c-0.01-0.819-0.08-1.628-0.15-2.438c-0.399-4.491,0.661-8.944,3.242-12.612
				c0.164-0.255,0.346-0.499,0.51-0.754C440.806,360.953,451.844,340.704,426.737,320.218z"/>
		</g>
		<g>
			<path style="fill:#403F43;" d="M418.899,314.895c-3.637,4.501-7.828,12.561-13.86,20.625c-3.269,4.37-6.763,8.138-9.818,11.424
				c-3.66,3.916-8.716,6.192-14.069,6.298c-13.53,0.264-30.197,0.453-29.712,11.122c0.414,9.424,8.107,13.529,18.441,13.092
				c4.955-0.189,9.156,3.523,9.755,8.433c1.921,15.581,8.264,24.599,19.176,22.594c16.022-2.943,10.117-25.887,3.666-41.016
				c-2.432-5.715-2.051-12.19,1.061-17.543c1.92-3.325,4.107-6.935,6.753-10.473c6.174-8.254,13.184-14.478,16.443-19.233
				c-0.771-0.631-1.609-1.284-2.458-1.92C422.475,316.948,420.671,315.816,418.899,314.895z"/>
		</g>
	</g>
	<g>
		<g>
			<path style="fill:#394E69;" d="M433.395,437.44c-19.049-17.522-48.83-17.408-72.809-1.73c-2.783,1.84-6.334,2.212-9.363,0.839
				c-3.177-1.429-5.552-3.099-8.829-5.551c-2.289-1.712-4.661-3.784-6.903-6.354c-2.208-2.544-2.871-6.068-1.896-9.288
				c8.213-27.391-0.108-55.929-22.243-69.214c-24.03-14.406-54.395-4.363-76.505,18.359c-3.566,3.665-7.247,4.067-10.212,7.289
				c-3.475,3.778-2.287,9.891,1.71,13.044l0.173,0.13c0.208,0.156,0.43,0.294,0.651,0.432l0.139,0.103
				c15.18,10.328,55.171,22.234,103.674,58.517c45.398,33.961,71.441,69.428,86.864,83.264l0.017,0.013
				c0.591,0.982,1.362,1.831,2.333,2.557c0.815,0.61,1.686,1.073,2.609,1.358l0.017,0.013c3.757,1.268,8.343,0.271,10.542-3.283
				c3.209-5.187,2.596-9.64,5.335-13.966C455.107,488.066,453.48,455.927,433.395,437.44z"/>
		</g>
		<g>
			<g>
				<g>
					<path style="fill:#3E3D44;" d="M308.568,350.79c-22.692-13.617-54.084-2.988-70.124,23.742l82.167,49.306
						C336.651,397.109,331.26,364.407,308.568,350.79z"/>
				</g>
				<g>
					<path style="fill:#3E3D44;" d="M429.721,441.422c-19.47-17.924-52.363-13.862-73.477,9.073l70.5,64.902
						C447.857,492.462,449.19,459.347,429.721,441.422z"/>
				</g>
			</g>
			<g>
				<g>
					<g>
						<g>
							<path style="fill:#FFFFFF;" d="M434.438,493.715c-0.444-0.332-1.014-0.494-1.607-0.41l-17.896,2.581
								c-1.184,0.17-2.006,1.269-1.835,2.452c0.171,1.185,1.268,2.005,2.452,1.835l17.896-2.58c1.185-0.171,2.006-1.269,1.835-2.452
								C435.198,494.549,434.881,494.047,434.438,493.715z"/>
						</g>
					</g>
					<g>
						<g>
							<path style="fill:#FFFFFF;" d="M437.982,487.579c-0.444-0.332-1.014-0.495-1.607-0.409l-27.391,3.947
								c-1.185,0.171-2.005,1.268-1.835,2.452c0.171,1.185,1.268,2.005,2.452,1.835l27.391-3.947
								c1.185-0.171,2.005-1.268,1.835-2.452C438.743,488.412,438.426,487.911,437.982,487.579z"/>
						</g>
					</g>
				</g>
				<g>
					<g>
						<g>
							<path style="fill:#FFFFFF;" d="M321.892,402.101c-0.493-0.369-1.138-0.526-1.783-0.378l-17.624,4.043
								c-1.167,0.267-1.895,1.428-1.627,2.595c0.266,1.17,1.433,1.893,2.594,1.626l17.624-4.042
								c1.167-0.267,1.895-1.429,1.627-2.595C322.586,402.83,322.286,402.396,321.892,402.101z"/>
						</g>
					</g>
					<g>
						<g>
							<path style="fill:#FFFFFF;" d="M324.917,395.69c-0.491-0.368-1.136-0.525-1.781-0.376l-26.973,6.188
								c-1.166,0.267-1.893,1.429-1.626,2.594c0.264,1.161,1.43,1.894,2.594,1.626l26.973-6.188
								c1.166-0.267,1.893-1.429,1.626-2.594C325.613,396.42,325.314,395.987,324.917,395.69z"/>
						</g>
					</g>
				</g>
			</g>
		</g>
	</g>
</g>
</svg>
