<?xml version="1.0" encoding="iso-8859-1"?>
<!-- Generator: Adobe Illustrator 19.0.0, SVG Export Plug-In . SVG Version: 6.00 Build 0)  -->
<svg version="1.1" id="Layer_1" xmlns="http://www.w3.org/2000/svg" xmlns:xlink="http://www.w3.org/1999/xlink" x="0px" y="0px"
	 viewBox="0 0 524.974 938.516" style="enable-background:new 0 0 524.974 938.516;" xml:space="preserve">
<g>
	<g>
		<path style="fill:#F2F2F2;" d="M146.212,315.356c5.838,8.694,24.967,23.054,24.967,23.054s-14.461,12.051-4.556,37.798
			c4.186,10.883,13.822,23.079,24.285,17.935c-7.329,17.46,15.667,38.174,32.269,29.067c-19.019,15.168-14.438,50.5,7.82,60.317
			c-5.345,21.993-15.151,44.057-15.151,71.023c0,11.006,10.766,20.051,10.766,20.051s-20.572,53.497-5.619,70.242
			c-12.734,15.482,2.304,75.009-0.244,96.033c-1.031,8.503-4.754,18.246-3.786,26.854c1.124,9.991,6.999,13.657,4.255,26.109
			c-8.814,40-33.911,80.733-35.992,121.64c-0.358,7.048-9.82,15.375-3.988,19.348c-4.092,1.017-7.452,2.254-10.427,3.69h266.556
			c-9.522-10.438-16.841-26.651-18.041-33.393c-3.779-21.237-22.204-73.074-27.638-108.008c-4.165-26.774-5.225-54.03-3.152-81.047
			c0.672-8.758-1.137-15.573-2.46-23.924c-0.743-4.688-5.417-5.963-5.326-11.266c0.06-3.478,7.319-45.45-8.149-54.744
			c12.404-2.941,22.211-59.326,9.514-84.929c7.793-16.074,1.958-56.025,1.958-56.025s36.927-38.428,25.143-54.739
			c19.37-5.193,33.528-25.38,31.814-45.36c26.149-2.713,41.403-39.053,25.025-59.617c13.821,1.402,25.773-11.514,28.418-25.152
			c2.645-13.638-1.531-27.573-5.662-40.837c14.507-9.773,16.023-33.847,2.857-45.363c8.01-14.123,14.646-29.785,13.885-46.003
			c-0.761-16.219-10.701-32.901-26.387-37.096c13.887-6.657,18.437-27.305,8.635-39.183c-9.801-11.878-30.937-11.33-40.11,1.041
			c0.036-2.652-0.064-5.306-0.298-7.948c-1.931-21.811-28.826-31.944-44.403-16.555c-0.096,0.095-0.192,0.191-0.288,0.287
			l-7.402-2.988c-10.728-19.909-40.853-25.751-58.246-11.295c-16.373-35.093-78.035-31.847-90.633,4.771
			c-15.733-13.58-45.111,4.189-40.388,24.429c-24.151-9.103-50.809,24.161-36.663,45.749c-28.598,5.202-37.153,51.252-12.331,66.378
			c-15.515,2.232-14.387,30.849,1.256,31.852C133.696,248.523,128.192,288.519,146.212,315.356z"/>
	</g>
	<g>
		<path style="fill:#FDD8D2;" d="M430.066,140.287l-11.31-10.262l-18.902-17.2l-12.933-11.755
			c31.128-15.498,55.397-44.218,65.502-77.493c1.44-4.817,2.827-10.027,6.676-13.273c5.602-4.686,14.582-3.063,19.949,1.885
			c5.367,4.948,7.801,12.278,9.215,19.452C496.877,75.309,471.169,123.27,430.066,140.287z"/>
	</g>
	<path style="fill:#F3B2B0;" d="M477.4,53.841c-2.827,19.268-15.917,40.212-31.625,55.92c-2.827,2.827-14.268,12.671-17.671,14.739
		c-2.487,1.518-5.786,3.56-9.346,5.524l-18.902-17.2c10.76-4.791,20.368-12.148,28.588-20.551
		c8.613-8.797,16.415-18.457,22.777-29.034c6.571-10.943,10.21-23.248,16.624-34.243c0.576-1.021,1.44-2.094,2.618-2.147
		c0.602-0.026,1.204,0.236,1.728,0.576C479.546,32.452,478.473,46.38,477.4,53.841z"/>
	<g>
		<path style="fill:#FDD8D2;" d="M208.663,109.604l-11.493,13.875l-21.127,25.526l-13.299,16.048
			c-27.018-36.966-39.191-84.535-33.222-129.957c0.759-5.76,1.885-11.702,5.262-16.441c3.377-4.739,9.608-7.906,15.132-6.048
			c6.283,2.094,9.006,9.268,11.231,15.499C171.644,57.951,187.849,85.781,208.663,109.604z"/>
	</g>
	<path style="fill:#F3B2B0;" d="M197.169,123.48l-21.127,25.526c-10.76-10.812-19.085-23.798-24.976-37.961
		c-9.163-22.122-14.87-46.024-11.022-70.031c0.471-2.985,3.194-6.676,6.624-6.231c3.246,0.419,4.922,4.032,6.048,7.095
		C163.424,71.094,177.273,99.682,197.169,123.48z"/>
	<g>
		<g>
			<path style="fill:#FDDCD6;" d="M342.138,314.016c-6.587-9.505-18.502-15.036-30.013-13.934
				c-15.059,1.442-27.022,12.827-37.478,23.76c-13.701,14.326-27.051,28.989-40.033,43.97c-6.541,7.548-13.391,16.383-12.397,26.321
				c0.851,8.514,7.574,15.551,15.351,19.12c7.778,3.568,91.399,7.922,121.952,4.609c7.313-0.793,15.055-1.913,20.69-6.641
				c11.275-9.46,10.515-24.019,2.975-36.659C375.645,361.921,342.138,314.016,342.138,314.016z"/>
		</g>
		<path style="fill:#2A3138;" d="M339.804,333.288c-11.987,0.327-21.163,4.298-28.785,12.824c-2.757-2.576-7-4.639-9.385-6.017
			c-5.758-3.325-12.813-7.123-19.672-6.807c-3.475,0.16-3.495,5.583,0,5.423c5.559-0.255,11.217,2.864,15.921,5.491
			c2.359,1.318,4.68,2.732,6.883,4.298c0.909,0.647,1.76,1.348,2.641,2.029c0.526,0.406,1.144,1.666,0.861,0.652
			c0.022,0.077,0.052,0.145,0.077,0.217c-0.001,0.024-0.007,0.045-0.008,0.07c-0.167,13.318-0.444,26.645-0.167,39.964
			c0.073,3.485,5.496,3.497,5.423,0c-0.278-13.319-0.001-26.646,0.167-39.964c0.001-0.099-0.017-0.184-0.024-0.277
			c6.776-8.52,15.145-12.182,26.067-12.48C343.286,338.616,343.3,333.193,339.804,333.288z"/>
		<path style="fill:#2A3138;" d="M253.727,390.436c14.348,11.407,32.934,10.331,50.078,7.649
			c18.384-2.876,40.855-8.271,56.592,5.032c2.65,2.24,6.504-1.578,3.834-3.835c-14-11.834-32.75-11.032-49.856-8.427
			c-18.409,2.803-40.726,8.536-56.814-4.253C254.857,384.451,250.995,388.264,253.727,390.436L253.727,390.436z"/>
	</g>
	<g>
		<g>
			<path style="fill:#333333;" d="M509.364,217.764c-4.841-1.939-9.842-3.493-14.831-4.999
				c-19.263-5.818-39.271-11.67-59.464-12.799c-20.594-1.151-41.549-0.79-61.92,2.686c-5.999,1.024-11.952,2.3-17.968,3.226
				c-9.487,1.459-19.181,2.001-28.772,2.149c-0.677,0.01-12.85,0.041-12.846-0.169c-0.003,0.21-12.169-0.183-12.846-0.213
				c-9.583-0.433-19.256-1.262-28.696-3.003c-5.985-1.104-11.899-2.557-17.864-3.758c-10.517-2.118-21.218-3.389-31.961-4.058
				c-9.018-0.982-18.521-1.58-28.221-1.33c-14.089,0.361-28.566,1.539-41.147,6.676c-6.835,1.614-13.614,3.407-20.301,5.211
				c-5.031,1.358-10.077,2.762-14.973,4.556c-6.777,2.484-5.421,10.99-5.236,16.829c0.106,3.335,0.955,5.654,3.151,8.053
				c1.334,1.457,2.394,3.123,3.335,4.853c0.808,1.487,1.244,3.108,2.994,3.741c1.894,0.684,3.989,0.348,5.857-0.343
				c0.866,14.173,2.899,26.098,6.317,36.987c4.799,15.292,11.099,30.547,24.578,38.564c1.716,1.022,3.609,1.949,5.625,2.759
				l0.003,0.001c6.808,2.727,14.246,3.792,20.809,4.732l0.916,0.132c4.633,0.667,9.21,1.108,13.7,1.32
				c4.325,0.204,8.571,0.195,12.704-0.026c19.498-1.045,36.781-6.987,49.979-17.185c6.052-4.677,11.597-10.691,16.036-17.393
				c9.316-14.064,16.055-31.292,18.491-47.271c0.536-3.522,0.973-7.343,0.912-11.211c0.458-0.275,0.913-0.559,1.355-0.856
				c4.514-3.042,7.404-3.776,14.127-3.87c6.718,0.294,9.584,1.114,14.006,4.289c0.859,0.617,1.765,1.196,2.668,1.705
				c-0.26,4.122,0.065,8.229,0.525,11.999c1.959,16.045,8.185,33.467,17.077,47.797c4.235,6.829,9.598,13.005,15.513,17.862
				c12.888,10.586,29.987,17.04,49.445,18.664c1.434,0.12,2.88,0.213,4.34,0.282c7.102,0.335,14.514,0.072,22.089-0.79l0.92-0.104
				c6.587-0.744,14.055-1.588,20.941-4.113l0.002,0c2.036-0.747,3.955-1.618,5.703-2.59c13.715-7.614,20.464-22.676,25.717-37.818
				c3.838-11.068,6.262-23.247,7.523-37.88c1.464,0.403,3.007,0.516,4.452,0.042c1.768-0.581,2.251-2.188,3.104-3.65
				c0.992-1.701,2.101-3.335,3.477-4.751c2.267-2.333,3.184-4.625,3.389-7.956C514.456,228.91,516.065,220.448,509.364,217.764z
				 M254.306,302.027c-11.091,8.57-25.856,13.578-42.697,14.48c-7.57,0.407-15.592,0.009-23.845-1.18l-0.926-0.133
				c-6.12-0.878-12.451-1.783-17.805-3.929c-1.389-0.558-2.671-1.183-3.808-1.86c-9.714-5.778-14.776-18.437-18.799-31.257
				c-3.678-11.719-5.616-24.907-6.098-41.505c-0.201-6.928,3.689-14.292,9.679-18.323c11.739-7.898,28.23-9.368,44.303-9.778
				c17.258-0.442,34.179,1.978,48.461,4.404c9.926,1.685,21.3,3.866,30.645,8.454c5.409,2.658,9.133,5.857,10.217,8.78
				c1.654,4.457,1.07,10.36,0.28,15.546c-2.161,14.17-8.163,29.489-16.47,42.029C263.783,293.279,259.24,298.214,254.306,302.027z
				 M479.823,284.66c-4.404,12.694-9.84,25.198-19.723,30.684c-1.158,0.645-2.458,1.231-3.859,1.746
				c-5.416,1.985-11.77,2.703-17.917,3.398l-0.926,0.105c-8.283,0.942-16.319,1.096-23.869,0.469
				c-16.806-1.403-31.416-6.846-42.248-15.742c-4.821-3.96-9.215-9.028-12.705-14.657c-7.93-12.779-13.476-28.27-15.213-42.5
				c-0.637-5.209-1.044-11.127,0.74-15.531c1.171-2.889,4.989-5.977,10.473-8.471c9.476-4.307,20.911-6.151,30.885-7.541
				c13.99-1.95,30.492-3.819,47.286-3.027c0.426,0.02,0.854,0.041,1.283,0.065c16.054,0.889,32.495,2.848,43.992,11.092
				c5.868,4.208,9.539,11.683,9.132,18.602C486.177,259.926,483.849,273.052,479.823,284.66z"/>
			<path style="fill:#333333;" d="M487.147,243.355c-0.964,16.582-3.302,29.693-7.327,41.309
				c-4.411,12.701-9.833,25.185-19.715,30.681c-1.157,0.651-2.458,1.229-3.856,1.735c-5.423,2-11.785,2.724-17.931,3.398
				l-0.916,0.12c-8.291,0.94-16.316,1.085-23.884,0.458c-0.337-0.024-0.699-0.048-1.036-0.096c-3.904-0.362-7.64-0.94-11.255-1.759
				h-0.024c-2.217-0.458-4.362-1.012-6.459-1.687c-5.085-1.518-9.833-3.519-14.196-5.929c-3.326-1.832-6.435-3.928-9.279-6.266
				c-4.82-3.953-9.207-9.038-12.701-14.653c-7.929-12.773-13.472-28.271-15.208-42.49c-0.627-5.23-1.036-11.135,0.747-15.545
				c1.157-2.892,4.989-5.977,10.46-8.459c9.496-4.314,20.92-6.17,30.897-7.544c11.761-1.639,25.33-3.229,39.357-3.229
				c2.627,0,5.278,0.072,7.929,0.193c0.41,0.024,0.844,0.048,1.277,0.072c2.434,0.121,4.893,0.289,7.327,0.506
				c2.314,0.169,4.627,0.41,6.917,0.699c3.832,0.482,7.568,1.109,11.159,1.976c6.917,1.615,13.28,4.097,18.582,7.905
				C483.893,228.967,487.556,236.438,487.147,243.355z"/>
			<path style="fill:#333333;" d="M283.903,245.717c-2.145,14.171-8.146,29.5-16.461,42.032c-3.663,5.519-8.194,10.46-13.135,14.268
				c-11.086,8.58-25.86,13.593-42.707,14.485c-4.844,0.265-9.857,0.193-15.015-0.193c-2.892-0.217-5.857-0.554-8.821-0.988
				l-0.916-0.12c-0.554-0.072-1.133-0.169-1.711-0.241c-2.241-0.337-4.507-0.675-6.724-1.108c-3.302-0.627-6.483-1.422-9.375-2.579
				c-1.398-0.554-2.675-1.181-3.808-1.856c-0.434-0.265-0.868-0.53-1.302-0.868c-8.869-6.073-13.665-18.148-17.497-30.391
				c-3.687-11.737-5.615-24.921-6.097-41.502c-0.217-6.941,3.687-14.292,9.665-18.341c11.737-7.881,28.246-9.351,44.322-9.761
				c4.917-0.12,9.785-0.024,14.581,0.265c5.543,0.289,10.966,0.82,16.196,1.47c2.314,0.289,4.579,0.603,6.821,0.916
				c3.76,0.554,7.375,1.157,10.845,1.735c0.145,0.024,0.265,0.048,0.41,0.072c9.833,1.663,21.016,3.88,30.247,8.387
				c5.399,2.651,9.134,5.857,10.219,8.773C285.276,234.631,284.698,240.535,283.903,245.717z"/>
		</g>
		<path style="fill:#FFFFFF;" d="M243.172,213.012l-46.587,103.297c-2.892-0.217-5.857-0.554-8.821-0.988l-0.916-0.12
			c-0.554-0.072-1.133-0.169-1.711-0.241l46.78-103.755c3.76,0.554,7.375,1.157,10.845,1.735
			C242.907,212.964,243.027,212.988,243.172,213.012z"/>
		<path style="fill:#FFFFFF;" d="M225.096,210.288l-46.684,103.562c-3.302-0.627-6.483-1.422-9.375-2.579
			c-1.398-0.554-2.675-1.181-3.808-1.856c-0.434-0.265-0.868-0.53-1.302-0.868l44.973-99.73
			C214.443,209.107,219.866,209.638,225.096,210.288z"/>
		<path style="fill:#FFFFFF;" d="M459.431,216.844L412.482,320.96c-3.904-0.362-7.64-0.94-11.255-1.759l47.045-104.333
			C452.104,215.35,455.839,215.976,459.431,216.844z"/>
		<path style="fill:#FFFFFF;" d="M441.355,214.169l-46.611,103.345c-5.085-1.518-9.833-3.519-14.196-5.929l44.274-98.188
			c2.627,0,5.278,0.072,7.929,0.193c0.41,0.024,0.844,0.048,1.277,0.072C436.462,213.783,438.921,213.952,441.355,214.169z"/>
	</g>
	<g>
		<path style="fill:#E6E6E6;" d="M322.767,172.112c2.613-3.484-19.195-20.784-21.152-22.094
			c-22.347-14.957-50.417-16.108-76.05-10.704c-20.462,4.314-40.005,12.476-58.469,22.156
			c-12.249,6.422-24.085,13.606-35.605,21.253c-11.263,7.476-21.901,15.848-34.342,21.369
			c-30.213,13.407-70.561,0.845-83.679-30.606c-5.841-14.004-4.498-28.47,0.803-42.345c4.538-11.879,12.051-21.691,21.691-31.331
			c-1.482,1.164-8.135,17.811-9.947,23.648c-5.376,17.312-8.029,39.52,10.018,50.388c28.799,17.342,63.011-8.956,85.202-25.679
			c17.763-13.386,34.606-27.856,47.282-36.306c28.921-19.281,91.584-77.123,166.297-16.871
			C334.817,94.989,351.688,133.551,322.767,172.112z"/>
		<path style="fill:#E6E6E6;" d="M321.33,175.898c-2.896-4.216-6.452-6.881-9.96-8.864c-3.546-1.963-7.112-3.284-10.897-4.363
			c-7.573-2.062-16.134-3.618-28.481-4.496c-12.375-0.897-24.804,0.023-36.804,2.502c-12.068,2.351-23.522,6.537-34.472,12.084
			c-2.743,1.387-4.855,2.484-6.615,3.454c-1.77,0.928-3.19,1.718-4.542,2.49c-2.712,1.516-5.15,2.97-9.44,5.817
			c-8.584,5.672-17.37,11.35-26.705,16.474c-9.372,5.114-19.018,9.829-29.55,13.396c-5.298,1.704-10.863,3.031-16.575,3.347
			c-5.677,0.369-11.538-0.48-16.58-2.728l0.34-1.652c10.543-0.434,19.371-4.714,27.935-9.844
			c8.548-5.234,17.081-11.132,25.649-16.923c8.597-5.814,17.494-11.484,27.016-16.463c4.786-2.49,7.441-3.871,10.362-5.39
			c1.462-0.77,2.996-1.572,4.945-2.501c1.923-0.962,4.266-2.043,7.344-3.36c12.326-5.251,25.514-9.08,38.824-10.745
			c13.33-1.631,26.805-1.496,39.941,0.544c13.124,2.281,21.649,5.18,29.411,8.692c3.849,1.803,7.457,3.873,10.955,6.603
			c3.459,2.74,6.88,6.225,9.358,11.08L321.33,175.898z"/>
		<path style="fill:#E6E6E6;" d="M321.658,173.95c-6.641-1.496-11.544-1.608-16.677-1.339c-5.119,0.359-10.584,1.091-18.043,3.411
			c-3.729,1.132-7.326,2.604-10.713,4.4c-3.388,1.831-6.481,3.922-9.562,6.389c-6.226,4.8-12.235,10.829-19.965,16.093
			c-3.913,2.6-6.291,3.711-8.42,4.714c-2.156,0.977-4.111,1.87-7.747,3.277c-3.646,1.384-7.467,2.333-11.352,2.845
			c-3.889,0.486-7.77,0.619-11.975,0.087c-4.13-0.562-8.396-1.683-12.469-3.984c-2.023-1.155-3.976-2.621-5.657-4.408
			c-1.672-1.81-3.054-3.748-4.108-6.408c-1.834-5.094-1-10.019,1.182-13.971c1.122-1.968,2.701-3.724,4.677-4.861
			c1.96-1.155,4.304-1.515,6.238-1.048l0.133,1.682c-3.013,1.547-3.734,4.301-3.779,6.783c-0.016,2.496,0.896,4.99,2.195,6.047
			c0.513,0.396,1.424,1.091,2.328,1.534c0.911,0.462,1.905,0.818,2.996,1.098c2.187,0.553,4.768,0.756,7.464,0.709
			c2.643-0.051,5.649-0.331,8.565-0.675c2.921-0.36,5.839-0.821,8.761-1.426c2.93-0.593,4.506-1.168,6.204-1.834
			c1.699-0.696,3.51-1.474,6.78-3.207c6.607-3.502,13.143-8.757,20.711-13.499c3.796-2.332,7.986-4.465,12.24-6.097
			c4.276-1.619,8.676-2.796,13.116-3.552c4.457-0.67,8.228-0.876,11.57-0.724c3.339,0.096,6.243,0.48,9,0.97
			c5.497,1.066,10.475,2.567,16.861,5.402L321.658,173.95z"/>
	</g>
	<g>
		<path style="fill:#E6E6E6;" d="M267.905,535.714c-0.245-0.99,0.006-1.072,0.293-0.075c0.69,2.459,1.01,5.295,1.241,8.25
			c0.246,2.951,0.416,6.067,1.145,9.047c0.741,2.963,2.064,5.821,4.013,7.956c1.924,2.104,4.621,3.426,6.986,3.21
			c2.183-0.224,4.269-1.438,5.622-3.168c0.669-0.867,1.16-1.874,1.307-2.92c0.155-1.046-0.08-2.103-0.64-2.992l0.915-0.535
			c2.091,3.869,2.353,8.242,3.17,12.261c0.393,2.021,0.988,3.97,1.94,5.75c0.943,1.763,2.235,3.36,3.913,4.316
			c1.868,1.088,4.172,1.212,6.21,0.419c2.041-0.78,3.825-2.27,5.098-4.08c1.27-1.824,2.044-4.007,2.548-6.23
			c0.253-1.117,0.441-2.255,0.596-3.402l0.111-0.867l0.185-1.673l0.346-3.244c0.359,0.955,0.679,1.901,1.097,2.848l0.592,1.409
			c0.023,0.047,0.049,0.097,0.093,0.162l0.044,0.068l0.089,0.136l0.177,0.273c0.468,0.732,1.065,1.377,1.699,1.977
			c1.306,1.164,2.878,2.04,4.561,2.549c1.804,0.507,3.747,0.619,5.559,0.137c1.805-0.484,3.475-1.499,4.738-2.918
			c2.574-2.778,3.729-6.942,2.702-10.653c-0.536-1.54-0.163-1.767,0.458-0.138c1.192,3.867,0.117,8.278-2.563,11.325
			c-1.315,1.552-3.11,2.712-5.09,3.284c-1.985,0.57-4.113,0.485-6.086-0.04c-1.842-0.524-3.568-1.45-5.022-2.712
			c-0.708-0.65-1.376-1.356-1.91-2.166l-0.345-0.52l-0.041-0.071c-0.028-0.044-0.042-0.088-0.059-0.125
			c-0.015-0.007-0.011,0.12-0.017,0.16l-0.005,0.081l-0.104,0.875c-0.147,1.173-0.331,2.348-0.586,3.516
			c-0.513,2.33-1.306,4.658-2.706,6.697c-1.406,2.013-3.356,3.672-5.695,4.576c-2.322,0.925-5.137,0.793-7.331-0.5
			c-1.978-1.134-3.4-2.947-4.408-4.861c-1.014-1.925-1.628-4.034-2.008-6.121c-0.778-4.147-0.993-8.381-2.883-11.997l0.915-0.535
			c0.677,1.097,0.949,2.45,0.737,3.707c-0.2,1.262-0.793,2.402-1.558,3.362c-1.55,1.906-3.83,3.194-6.295,3.42
			c-2.746,0.197-5.578-1.29-7.618-3.538c-2.043-2.281-3.373-5.253-4.103-8.311c-0.714-3.081-0.836-6.214-1.024-9.167
			C268.736,540.972,268.494,538.167,267.905,535.714z"/>
		<path style="fill:#E6E6E6;" d="M296.777,756.419c0.278-1.054,0.675-0.932,0.464,0.103c-0.485,2.557-0.581,5.524,0.16,8.454
			c0.713,2.903,2.441,5.792,5.097,7.354c2.64,1.52,6.095,1.323,8.66,0.006c0.637-0.347,1.228-0.743,1.746-1.207
			c0.25-0.293,0.457-0.393,0.74-0.833l0.438-0.73c0.147-0.283,0.28-0.267,0.463-1.315l0.513-2.413l0.256-1.206
			c0.019-0.076,0.049-0.256,0.058-0.247l0.024,0.061l0.049,0.123l0.194,0.496c0.063,0.16,0.148,0.418,0.128,0.224l0.015-0.255
			l0.007-0.125c0-0.058,0.002-0.107,0.033,0.078c0.094,0.488,0.187,0.97,0.278,1.444c0.222,1.181,0.429,2.275,0.526,3.685
			c0.031,0.331,0.069,0.669,0.075,1.022l0.021,0.704l0.018,1.291c0.006,1.715-0.045,3.412-0.003,5.081
			c0.052,3.301,0.62,6.682,2.78,8.912c2.021,2.27,5.597,2.365,8.42,1.177c2.855-1.126,5.374-3.635,5.563-6.556
			c0.114-0.523-0.06-1.053-0.057-1.582l2.06-0.105c-0.262,2.873,1.28,5.694,3.612,7.539c2.312,1.878,5.377,2.931,8.332,2.707
			c2.934-0.228,5.827-1.71,8.009-3.842c2.212-2.139,3.866-4.876,4.917-7.819c1.322-3.731,1.545-7.815,1.216-11.828
			c-0.353-4.027-1.266-8.017-2.301-11.972c-0.451-1.698,0.194-1.89,0.722-0.207c1.214,3.92,2.313,7.915,2.829,12.049
			c0.489,4.115,0.406,8.422-0.927,12.481c-1.052,3.183-2.766,6.186-5.18,8.605c-2.408,2.411-5.591,4.169-9.135,4.495
			c-3.526,0.292-7.036-0.894-9.766-3.07c-2.731-2.118-4.739-5.618-4.404-9.318l2.06-0.105c0.032,0.712,0.217,1.428,0.088,2.141
			c-0.144,1.963-1.067,3.784-2.325,5.169c-1.278,1.382-2.862,2.407-4.577,3.077c-1.715,0.663-3.591,0.981-5.471,0.753
			c-1.875-0.201-3.743-1.119-5.008-2.562c-2.594-2.841-3.036-6.739-3.016-10.119c0-1.729,0.093-3.43,0.125-5.113l0.005-2.047
			c-0.004-0.294-0.025-0.609-0.066-0.941l-0.062-0.396c-0.018-0.042-0.026,0.188-0.041,0.276c-0.044,0.241-0.134,0.493-0.277,0.736
			c-0.063,0.123-0.231,0.319-0.344,0.479c-0.157,0.192-0.533,0.545-0.795,0.81c-0.612,0.534-1.298,0.98-2.027,1.362
			c-2.92,1.437-6.717,1.62-9.734-0.165c-2.958-1.815-4.712-4.993-5.375-8.068C295.903,762.064,296.133,759.005,296.777,756.419z"/>
	</g>
</g>
</svg>
