<?xml version="1.0" encoding="utf-8"?>
<!-- Generator: Adobe Illustrator 19.0.0, SVG Export Plug-In . SVG Version: 6.00 Build 0)  -->
<svg version="1.1" id="Livello_1" xmlns="http://www.w3.org/2000/svg" xmlns:xlink="http://www.w3.org/1999/xlink" x="0px" y="0px"
	 viewBox="0 0 841.9 154.5" style="enable-background:new 0 0 841.9 154.5;" xml:space="preserve">
<style type="text/css">
	.st0{fill:#E2C187;}
	.st1{fill:none;}
</style>
<g>
	<path d="M220.1,113.5v-89h5v84h34.5v5H220.1z"/>
	<path d="M278,24.5v89h-5v-89H278z"/>
	<path d="M353.6,113.5h-5v-11.1c-1,1.3-2,2.5-3.2,3.7c-6,6-13.2,9-21.6,9c-8.4,0-15.6-3-21.6-9c-6-6-9-13.2-9-21.6
		c0-8.5,3-15.7,9-21.6c6-6,13.2-9,21.6-9c8.5,0,15.7,3,21.6,9c1.1,1.2,2.2,2.4,3.2,3.7v-7.7h5V113.5z M348.6,89.4v-9.9
		c-0.9-4.9-3.2-9.2-7-12.9c-4.9-4.9-10.9-7.4-17.9-7.4s-12.9,2.5-17.9,7.4c-4.9,4.9-7.4,10.9-7.4,17.9c0,7,2.5,12.9,7.4,17.8
		c4.9,4.9,10.9,7.4,17.9,7.4s12.9-2.5,17.9-7.4C345.4,98.6,347.7,94.3,348.6,89.4z"/>
	<path d="M370.3,58.9h5v1.3c3.1-3,6.8-4.5,11.2-4.5c4.5,0,8.3,1.6,11.5,4.7c0.9,0.9,1.6,1.8,2.2,2.8c0.6-1,1.4-1.9,2.3-2.8
		c3.2-3.2,7-4.7,11.5-4.7c4.5,0,8.3,1.6,11.5,4.7c3,3,4.6,6.7,4.7,11v42.2h-5V71.3h0.1c-0.1-2.9-1.2-5.4-3.3-7.4
		c-2.2-2.2-4.9-3.3-8-3.3s-5.7,1.1-7.9,3.3c-2.2,2.2-3.3,4.9-3.3,8.2v41.4h-5V71.3h0.1c-0.1-2.9-1.2-5.4-3.3-7.4
		c-2.2-2.2-4.9-3.3-8-3.3c-3.1,0-5.7,1.1-7.9,3.3c-1.9,1.9-3,4.2-3.3,7v42.6h-5V58.9z"/>
	<path d="M505.7,113.5h-5v-11.1c-1,1.3-2,2.5-3.2,3.7c-6,6-13.2,9-21.6,9c-8.4,0-15.6-3-21.6-9c-6-6-9-13.2-9-21.6
		c0-8.5,3-15.7,9-21.6c6-6,13.2-9,21.6-9c8.5,0,15.7,3,21.6,9c1.1,1.2,2.2,2.4,3.2,3.7v-7.7h5V113.5z M500.7,89.4v-9.9
		c-0.9-4.9-3.2-9.2-7-12.9c-4.9-4.9-10.9-7.4-17.9-7.4s-12.9,2.5-17.9,7.4c-4.9,4.9-7.4,10.9-7.4,17.9c0,7,2.5,12.9,7.4,17.8
		c4.9,4.9,10.9,7.4,17.9,7.4s12.9-2.5,17.9-7.4C497.5,98.6,499.8,94.3,500.7,89.4z"/>
	<path d="M544.6,64.2c-6.3-2.1-11.3-5-15-8.7s-5.5-8.1-5.5-13.3c0-5.1,1.8-9.5,5.5-13.2c3.7-3.7,8.1-5.5,13.3-5.5
		c5.2,0,9.6,1.8,13.3,5.5c2,2,3.4,4.2,4.2,6.6l-4.5,1.8c-0.7-1.8-1.8-3.5-3.3-5c-2.7-2.7-6-4-9.8-4c-3.8,0-7.1,1.3-9.8,4
		c-2.7,2.7-4.1,6-4.1,9.8c0,3.8,1.4,7.1,4.1,9.8c2.5,2.5,6,4.8,10.5,6.8c7.1,2.3,13.1,5.9,18,10.7c5.2,5.1,7.7,11.3,7.7,18.6
		c0,7.3-2.6,13.5-7.7,18.7s-11.4,7.7-18.6,7.7c-7.3,0-13.5-2.6-18.6-7.8c-4.1-4.1-6.6-8.9-7.4-14.4l4.7-1.7c0.5,4.8,2.6,9,6.2,12.6
		c4.2,4.2,9.2,6.3,15.1,6.3c5.9,0,11-2.1,15.2-6.3c4.2-4.2,6.3-9.3,6.3-15.2c0-5.9-2.1-10.9-6.3-15.1
		C554.4,69.3,549.9,66.4,544.6,64.2z"/>
	<path d="M607.7,99V58.9h5v38.9c0,3.3,1.1,6,3.3,8.2c2.2,2.2,4.8,3.3,7.9,3.3s5.7-1.1,8-3.3c2-2,3.1-4.5,3.3-7.4h-0.1V58.9h5v39.7
		c-0.1,4.3-1.7,7.9-4.7,10.9c-3.2,3.2-7,4.8-11.5,4.8c-4.5,0-8.3-1.6-11.5-4.8c-0.9-0.9-1.6-1.7-2.2-2.7c-0.6,0.9-1.4,1.8-2.3,2.7
		c-3.2,3.2-7,4.8-11.5,4.8c-4.5,0-8.3-1.6-11.5-4.8c-3-3-4.6-6.6-4.7-10.9V58.9h5v39.7h-0.1c0.1,2.9,1.3,5.4,3.3,7.4
		c2.2,2.2,4.8,3.3,7.9,3.3c3.1,0,5.7-1.1,8-3.3C606.4,104.1,607.5,101.8,607.7,99z"/>
	<path d="M714.1,113.5h-5v-11.1c-1,1.3-2,2.5-3.2,3.7c-6,6-13.2,9-21.6,9c-8.4,0-15.6-3-21.6-9c-6-6-9-13.2-9-21.6
		c0-8.5,3-15.7,9-21.6c6-6,13.2-9,21.6-9c8.5,0,15.7,3,21.6,9c1.1,1.2,2.2,2.4,3.2,3.7v-7.7h5V113.5z M709.1,89.4v-9.9
		c-0.9-4.9-3.2-9.2-7-12.9c-4.9-4.9-10.9-7.4-17.9-7.4c-7,0-12.9,2.5-17.9,7.4c-4.9,4.9-7.4,10.9-7.4,17.9c0,7,2.5,12.9,7.4,17.8
		c4.9,4.9,10.9,7.4,17.9,7.4c7,0,12.9-2.5,17.9-7.4C705.9,98.6,708.2,94.3,709.1,89.4z"/>
	<path d="M731.9,58.9h5v7.7c0.9-1.3,2-2.5,3.2-3.7c6-5.9,13.2-8.9,21.6-8.9c8.5,0,15.7,3,21.6,8.9c6,6,8.9,13.2,8.9,21.6
		c0,8.4-3,15.6-8.9,21.6c-6,6-13.2,9-21.6,9c-8.4,0-15.6-3-21.6-9c-1.2-1.2-2.2-2.4-3.2-3.7v31.9h-5V58.9z M736.9,79.3v10.5
		c1,4.8,3.3,9,6.9,12.6c4.9,4.9,10.9,7.4,17.9,7.4c7,0,12.9-2.5,17.9-7.4c4.9-4.9,7.4-10.9,7.4-17.9c0-7-2.5-12.9-7.4-17.9
		c-4.9-4.9-10.9-7.4-17.9-7.4c-7,0-12.9,2.5-17.9,7.4C740.2,70.3,737.9,74.5,736.9,79.3z"/>
</g>
<g>
	<g>
		<path d="M118.5,10.1c38,0,68.8,30.8,68.8,68.8s-30.8,68.8-68.8,68.8s-68.8-30.8-68.8-68.8S80.5,10.1,118.5,10.1L118.5,10.1z"/>
		<path class="st0" d="M118.5,14.9c35.3,0,63.9,28.6,63.9,63.9c0,29.6-20.1,54.4-47.3,61.8c0.1-2.5,0-4.9-0.2-7.4
			c-0.5-5-1.9-9.7-4.1-14.2c-0.1-0.9-0.3-1.8-0.4-2.7c1.4,0.8,2.1,2,2.9,3.6l0.2,0.4l-0.1-0.4c-0.1-0.7-0.2-1.4-0.3-2
			c-1.1-6.7-2.5-11.4-6.9-16.5c0-0.1-0.1-0.2-0.1-0.4c1.4,0,2.5,1.2,3.4,2.2l0.2,0.2l-0.1-0.3c-1.6-4.9-3.8-8.4-8.1-11.4l-0.1-0.1
			l0.2,0c2.1-0.3,3.8,0.9,5.4,2.1L127,94l-0.1-0.3c-1.5-3.5-5.6-4.7-9-6.5l-0.2-0.2c2,0.3,4.2-0.2,6.1-0.9c1.5-0.5,2.9-1.1,4.3-1.5
			c0.6-0.2,1.9-0.6,2.6-0.5c4.1,1.1,11.2,2.7,12.8-2.6c2.9-1,6.4-2.7,6.9-6c0.7-4.3-4.3-9-7.1-11.7c-1.4-1.4-2.9-2.8-4.3-4.2
			c-1-1-2.2-2.2-2.9-3.3c-0.5-1.1-1.1-2.1-1.6-3c-0.4-1.7-1.2-3.4-2.7-4.7l-0.3-0.2l0.4,0.1c1,0.4,2.5,0.6,3.5,0.6l0.2,0l-0.1-0.1
			c-3.3-2.7-6.3-8.5-11.3-7.7l-0.2,0l0.1-0.1c1.4-1.4,3.5-1.1,4.4-3.3l0-0.1l-0.1,0c-3.8,1.2-7.6-1.2-11.5,0.1l-0.3,0.1l0.2-0.2
			c1.2-1.2,1.8-2.7,2.1-4.4l0-0.2l-0.1,0.2c-1.7,2-4.1,3.3-6.5,4.3c-0.2-2.4-0.8-4.7-2-6.4c-0.4-0.6-0.8-1.1-1.2-1.7
			c-0.5-0.6-1.2-1-2-0.7c-0.8,0.4-0.9,1.2-0.9,2c0,0.5,0,1,0,1.5c-0.3,3-1.6,5.9-2.8,8.8c-6.5,2.8-11.5,6.5-15.1,13L88,54.5l0.2-0.2
			c0.4-0.3,1.4-1.1,2-1c0.2,0,0.4,0.1,0.7,0.2l0.1,0l-0.1,0.1c-2.6,2.2-3.3,7.4-3.9,10.6c-0.5,2.6-1,5.5-2.4,7.8l-0.1,0.1l0.1,0
			c0.3,0,0.5,0.1,0.7,0.2c0.1,0.1,0.3,0.2,0.4,0.2c0.2,0,0.4-0.2,0.5-0.3l0.2-0.3l-0.1,0.4c-0.5,1.4-0.8,2.9-0.9,4.3
			c-0.3,2.8-0.2,7.3-2,9.5c-0.1,0.2-0.3,0.3-0.5,0.5l-0.3,0.2l0.3-0.1c1.3-0.5,1.8-1.1,2.7-2l0.2-0.2l-0.1,0.3
			c-0.8,2.6-1.3,5.4-1.9,8.1c-0.5,2.1-1.1,4.4-2.5,6c-0.3,0.3-0.5,0.6-0.8,0.8l-0.2,0.1l0.2,0c2-0.2,3.5-2.7,4.4-4.3l0.2-0.3
			l-0.1,0.4c-1,5.2-3.3,14.9-8,18l-0.1,0l0.1,0.1l0.1,0c2.9-1.3,5.5-5.3,6.6-8.2l0.2-0.5l-0.1,0.5c-0.5,4.4-2.8,8.7-5.4,12.3
			c-1.5,2.1-3.4,4.3-5.5,6.4c-11.6-11.6-18.8-27.6-18.8-45.2C54.5,43.6,83.2,14.9,118.5,14.9L118.5,14.9z"/>
		<path class="st0" d="M133,141.2c-0.5,0.1-0.9,0.2-1.4,0.3c0.1-1.4,0.1-2.8,0.1-4.1l0-0.2l0.1,0.2
			C132.4,138.2,132.7,139.8,133,141.2L133,141.2z"/>
		<path class="st0" d="M112.1,53.4L112.1,53.4L112.1,53.4L112,53c-0.7-2.5-0.5-5.3-0.4-7.9c0-1.8,0.1-3.7-0.1-5.5l0,0h0
			c-0.2-2.4-0.8-4.6-2-6.2c-2.6-3.4-1.8-1.6-2,0.6c-0.3,2.7-1.4,5.4-2.7,8l-0.1,0.1l-0.4,0.9l0,0.1l-0.1,0.3l-0.1,0.2l-0.1,0.2
			l0,0.1l-0.1,0.3l0,0c-0.1,0.2-0.2,0.5-0.3,0.7l0,0l0,0c-0.1,0.2-0.2,0.5-0.3,0.7l0,0l0,0l-0.2,0.4l0,0l-0.1,0.4l0,0
			c0,0.1-0.1,0.2-0.1,0.3l0,0.1c0,0.1-0.1,0.2-0.1,0.3l0,0c0,0.1-0.1,0.2-0.1,0.3l0,0.1c0,0.1-0.1,0.2-0.1,0.3l0,0
			c0,0.1-0.1,0.2-0.1,0.3l0,0.1c0,0.1-0.1,0.2-0.1,0.3l0,0l0,0l0,0c0,0.1-0.1,0.2-0.1,0.3l0,0.1c0,0.1-0.1,0.2-0.1,0.3l0,0l0,0
			c0,0.1-0.1,0.2-0.1,0.3l0,0.1c0,0.1,0,0.2-0.1,0.3l0,0c0,0.1,0,0.2-0.1,0.3l0,0.1c0,0.1,0,0.2,0,0.3l0,0c0,0.1,0,0.2,0,0.3l0,0.1
			c0,0.1,0,0.2,0,0.3l0,0c0,0.1,0,0.2,0,0.4l0,0.1c0,0.1,0,0.2,0,0.3l0,0c0,0.1,0,0.2,0,0.4l0,0c0,0.1,0,0.2,0,0.4l0,0
			c0,0.1,0,0.2,0,0.4l0,0c0,0.3,0.1,0.5,0.1,0.8l0,0c0.1,0.4,0.2,0.8,0.3,1.1l0,0c0.1,0.3,0.2,0.5,0.3,0.8l0,0
			c0.1,0.3,0.2,0.5,0.4,0.8l0,0c0.1,0.2,0.3,0.5,0.5,0.7l0,0c0.1,0.1,0.2,0.3,0.3,0.4l0,0c0.1,0.1,0.2,0.3,0.3,0.4l0,0l0,0l-0.1,0
			c-0.7-0.2-1.1-0.7-1.5-0.9c-0.3-0.1-0.6-0.1-0.8,0.4l0,0.1l0,0l0,0.1l0,0l0,0.1l0,0l0,0.1l0,0l0,0.1l0,0l0,0.1l0,0.1l0,0l0,0.1
			l0,0l0,0.1l0,0.1l0,0l0,0.1l0,0c-0.7,1.6-1.1,3.3-1.1,4.9v0v0.1v0l0,0.1v0l0,0.1v0l0,0.1c0.1,3.9,2.7,5.4,5.6,6.8l0,0l0,0
			c3.7,1.8,8,3.6,8.3,10.6L112.1,53.4L112.1,53.4z"/>
		<path class="st0" d="M112.1,77.7L112.1,77.7c2.8,9.3,12.2,1.2,15.6,2c5.8,1.5,9.2,1.4,9.8-2c14.8-4.4-2.9-14.6-6.4-20.1
			c-0.1-0.2-0.2-0.4-0.3-0.5c0,0.3,0,0.7-0.1,1l0,0l0,0.1l0,0v0l0,0.1l0,0.1c-0.1,1-0.3,1.9-0.5,2.8l0,0l0,0.1l0,0.1l0,0l0,0.1
			l0,0.1l0,0l0,0.1l0,0.1l0,0.1l0,0.1v0l0,0c-0.4-2.3-0.9-3.9-1.8-5.2c-0.9-1.4-2.3-2.5-4.2-3.8l0,0l-0.1,0c0,0,0,0,0,0.1l0,0l0,0
			l0,0l0,0l0,0.1l0,0c-0.1,0.4,0,0.7,0.1,1.1l0,0l0,0c0.5,1,1.8,2,1.7,3.2l0,0.2l0,0l0,0c0-0.1-0.1-0.2-0.1-0.3l0,0l0,0l0,0l0-0.1
			l0,0l0,0l0,0l0,0l0,0l0,0l0,0l-0.1-0.1l0,0c-0.1-0.1-0.2-0.2-0.3-0.3l0,0l-0.1-0.1l0,0l0,0l0,0l0,0l0,0l0,0l0,0l0,0l0,0l-0.1-0.1
			l0,0l0,0l0,0l-0.1-0.1l0,0l0,0l0,0c-0.9-0.8-2.1-1.2-3.5-1.9l0,0l-0.1,0l-0.1,0c-1.2-0.6-2.5-1.4-3.7-2.7l0,0l-0.1-0.1l0,0l0-0.1
			c-0.1-0.1-0.2-0.2-0.2-0.3L117,51c0,0.1,0,0.1,0,0.2l0,0l0,0.1v0c0.1,0.9,0.8,1.8,1.5,2.6c0.5,0.6,1,1.3,1.2,2l0,0.2l0,0v0
			l-0.1-0.1l0,0l-0.1-0.1l0,0l0,0l-0.1-0.1l0,0c-1.1-1.2-2.3-2.3-3.4-3.1l0,0l-0.1-0.1c-1.2-0.8-2.5-1.4-3.8-1.3l0,0l-0.1,0l0,0
			c0,0-0.1,0-0.1,0l0,0l0,0c-0.3,0.1-0.4,0.4-0.5,0.7l0,0l0,0c-0.1,0.4-0.2,0.9-0.2,1.5L112.1,77.7L112.1,77.7z"/>
		<path d="M129,61.6c-1.8-2.3-4.3-4.3-7.3-2.7c0.4,0,1-0.2,1.4,0c0,2.8,1.2,3.5,2.2,3.7c1,0.1,2.1-0.2,2.2-1.5
			C128,61,128.4,61.3,129,61.6L129,61.6z"/>
	</g>
	<rect id="_x3C_Slice_x3E__4_" x="49.7" y="10.1" class="st1" width="137.6" height="137.6"/>
</g>
</svg>
