<?xml version="1.0" encoding="utf-8"?>
<!-- Generator: Adobe Illustrator 19.0.0, SVG Export Plug-In . SVG Version: 6.00 Build 0)  -->
<svg version="1.1" id="Livello_1" xmlns="http://www.w3.org/2000/svg" xmlns:xlink="http://www.w3.org/1999/xlink" x="0px" y="0px"
	 viewBox="0 0 841.9 160.5" style="enable-background:new 0 0 841.9 160.5;" xml:space="preserve">
<style type="text/css">
	.st0{fill:#FFFFFF;}
	.st1{fill:#D1D3D4;}
	.st2{fill:#E2C187;}
	.st3{fill:none;}
</style>
<g>
	<g>
		<polygon class="st0" points="219.7,116.8 219.7,27.1 225.5,27.1 225.5,111.1 260,111.1 260,116.8 		"/>
		<path class="st1" d="M225.1,27.5v84h34.5v5h-39.5v-89H225.1 M225.9,26.7h-0.8h-5h-0.8v0.8v89v0.8h0.8h39.5h0.8v-0.8v-5v-0.8h-0.8
			h-33.7V27.5V26.7L225.9,26.7z"/>
	</g>
	<g>
		<rect x="272.6" y="27.1" class="st0" width="5.8" height="89.7"/>
		<path class="st1" d="M278,27.5v89h-5v-89H278 M278.7,26.7H278h-5h-0.8v0.8v89v0.8h0.8h5h0.8v-0.8v-89V26.7L278.7,26.7z"/>
	</g>
	<g>
		<path class="st0" d="M323.8,118.4c-8.5,0-15.8-3-21.8-9.1c-6-6-9.1-13.4-9.1-21.8c0-8.5,3-15.9,9.1-21.9c6-6,13.4-9.1,21.8-9.1
			c8.5,0,15.9,3,21.9,9.1c0.9,0.9,1.7,1.9,2.5,2.9v-7h5.8v55.4h-5.8v-10.4c-0.8,1-1.6,2-2.5,2.9
			C339.7,115.4,332.3,118.4,323.8,118.4z M323.8,62.6c-6.8,0-12.8,2.5-17.6,7.3c-4.8,4.8-7.3,10.8-7.3,17.6c0,6.8,2.5,12.7,7.3,17.6
			c4.8,4.8,10.8,7.3,17.6,7.3c6.8,0,12.8-2.5,17.6-7.3c3.6-3.6,5.9-7.9,6.8-12.7l0-9.8c-0.9-4.7-3.2-9-6.8-12.6
			C336.6,65.1,330.6,62.6,323.8,62.6z"/>
		<path class="st1" d="M323.8,56.9c8.5,0,15.7,3,21.6,9c1.1,1.2,2.2,2.4,3.2,3.7v-7.7h5v54.6h-5v-11.1c-1,1.3-2,2.5-3.2,3.7
			c-6,6-13.2,9-21.6,9c-8.4,0-15.6-3-21.6-9c-6-6-9-13.2-9-21.6c0-8.5,3-15.7,9-21.6C308.2,59.9,315.4,56.9,323.8,56.9 M323.8,112.7
			c7,0,12.9-2.5,17.9-7.4c3.7-3.7,6-8,7-12.8v-9.9c-0.9-4.9-3.2-9.2-7-12.9c-4.9-4.9-10.9-7.4-17.9-7.4s-12.9,2.5-17.9,7.4
			c-4.9,4.9-7.4,10.9-7.4,17.9c0,7,2.5,12.9,7.4,17.8C310.9,110.2,316.8,112.7,323.8,112.7 M323.8,56.2c-8.6,0-16,3.1-22.1,9.2
			c-6.1,6.1-9.2,13.5-9.2,22.2c0,8.6,3.1,16,9.2,22.1c6.1,6.1,13.5,9.2,22.1,9.2c8.6,0,16.1-3.1,22.2-9.2c0.7-0.7,1.3-1.4,1.9-2.1v9
			v0.8h0.8h5h0.8v-0.8V61.9v-0.8h-0.8h-5h-0.8v0.8v5.6c-0.6-0.7-1.2-1.4-1.9-2.1C339.9,59.2,332.4,56.2,323.8,56.2L323.8,56.2z
			 M323.8,111.9c-6.7,0-12.6-2.4-17.3-7.2c-4.8-4.7-7.2-10.6-7.2-17.3c0-6.7,2.4-12.6,7.2-17.3c4.8-4.8,10.6-7.2,17.3-7.2
			c6.7,0,12.6,2.4,17.3,7.2c3.6,3.6,5.8,7.8,6.7,12.4v9.8c-0.9,4.7-3.2,8.8-6.7,12.4C336.4,109.5,330.5,111.9,323.8,111.9
			L323.8,111.9z"/>
	</g>
	<g>
		<path class="st0" d="M424.7,116.8V73.9h0c-0.2-2.6-1.3-4.9-3.1-6.8c-2.1-2.1-4.7-3.2-7.7-3.2c-3,0-5.5,1.1-7.7,3.2
			c-2.1,2.1-3.2,4.8-3.2,7.9v41.8h-5.8V73.9h0c-0.2-2.6-1.3-4.9-3.1-6.8c-2.1-2.1-4.7-3.2-7.7-3.2c-3,0-5.5,1.1-7.6,3.2
			c-1.9,1.8-2.9,4.1-3.2,6.7l0,42.9h-5.8V61.5h5.8v0.8c3-2.7,6.7-4,10.8-4c4.6,0,8.5,1.6,11.7,4.8c0.7,0.7,1.4,1.5,2,2.4
			c0.6-0.8,1.2-1.6,2-2.4c3.2-3.2,7.2-4.8,11.7-4.8s8.5,1.6,11.7,4.8c3.1,3.1,4.7,6.9,4.8,11.2v42.5H424.7z"/>
		<path class="st1" d="M413.9,58.6c4.5,0,8.3,1.6,11.5,4.7c3,3,4.6,6.7,4.7,11v42.2h-5V74.3h0.1c-0.1-2.9-1.2-5.4-3.3-7.4
			c-2.2-2.2-4.9-3.3-8-3.3s-5.7,1.1-7.9,3.3c-2.2,2.2-3.3,4.9-3.3,8.2v41.4h-5V74.3h0.1c-0.1-2.9-1.2-5.4-3.3-7.4
			c-2.2-2.2-4.9-3.3-8-3.3c-3.1,0-5.7,1.1-7.9,3.3c-1.9,1.9-3,4.2-3.3,7v42.6h-5V61.9h5v1.3c3.1-3,6.8-4.5,11.2-4.5
			c4.5,0,8.3,1.6,11.5,4.7c0.9,0.9,1.6,1.8,2.2,2.8c0.6-1,1.4-1.9,2.3-2.8C405.6,60.2,409.4,58.6,413.9,58.6 M413.9,57.9
			c-4.7,0-8.7,1.7-12,4.9c-0.6,0.6-1.2,1.3-1.7,2c-0.5-0.7-1.1-1.4-1.7-2c-3.3-3.3-7.3-4.9-12-4.9c-3.9,0-7.4,1.2-10.4,3.6v-0.4
			h-0.8h-5h-0.8v0.8v54.6v0.8h0.8h5h0.8v-0.8V73.9c0.2-2.5,1.3-4.7,3.1-6.5c2.1-2.1,4.5-3.1,7.4-3.1c2.9,0,5.3,1,7.4,3.1
			c1.7,1.7,2.7,3.8,3,6.2v0.7v42.2v0.8h0.8h5h0.8v-0.8V75.1c0-3.1,1-5.6,3.1-7.6c2.1-2.1,4.5-3.1,7.4-3.1c2.9,0,5.3,1,7.4,3.1
			c1.7,1.7,2.7,3.8,3,6.2v0.7v42.2v0.8h0.8h5h0.8v-0.8V74.3c-0.2-4.5-1.8-8.3-4.9-11.5C422.6,59.5,418.6,57.9,413.9,57.9L413.9,57.9
			z"/>
	</g>
	<g>
		<path class="st0" d="M475.9,118.4c-8.5,0-15.8-3-21.8-9.1c-6-6-9.1-13.4-9.1-21.8c0-8.5,3-15.9,9.1-21.9c6-6,13.4-9.1,21.8-9.1
			c8.5,0,15.9,3,21.9,9.1c0.9,0.9,1.7,1.9,2.5,2.9v-7h5.8v55.4h-5.8v-10.4c-0.8,1-1.6,2-2.5,2.9
			C491.8,115.4,484.4,118.4,475.9,118.4z M475.9,62.6c-6.8,0-12.8,2.5-17.6,7.3c-4.8,4.8-7.3,10.8-7.3,17.6c0,6.8,2.5,12.7,7.3,17.6
			c4.8,4.8,10.8,7.3,17.6,7.3c6.8,0,12.8-2.5,17.6-7.3c3.6-3.6,5.9-7.9,6.8-12.7l0-9.8c-0.9-4.7-3.2-9-6.8-12.6
			C488.7,65.1,482.8,62.6,475.9,62.6z"/>
		<path class="st1" d="M475.9,56.9c8.5,0,15.7,3,21.6,9c1.1,1.2,2.2,2.4,3.2,3.7v-7.7h5v54.6h-5v-11.1c-1,1.3-2,2.5-3.2,3.7
			c-6,6-13.2,9-21.6,9c-8.4,0-15.6-3-21.6-9c-6-6-9-13.2-9-21.6c0-8.5,3-15.7,9-21.6C460.3,59.9,467.5,56.9,475.9,56.9 M475.9,112.7
			c7,0,12.9-2.5,17.9-7.4c3.7-3.7,6-8,7-12.8v-9.9c-0.9-4.9-3.2-9.2-7-12.9c-4.9-4.9-10.9-7.4-17.9-7.4s-12.9,2.5-17.9,7.4
			c-4.9,4.9-7.4,10.9-7.4,17.9c0,7,2.5,12.9,7.4,17.8C463,110.2,468.9,112.7,475.9,112.7 M475.9,56.2c-8.6,0-16,3.1-22.1,9.2
			c-6.1,6.1-9.2,13.5-9.2,22.2c0,8.6,3.1,16,9.2,22.1c6.1,6.1,13.5,9.2,22.1,9.2c8.6,0,16.1-3.1,22.2-9.2c0.7-0.7,1.3-1.4,1.9-2.1v9
			v0.8h0.8h5h0.8v-0.8V61.9v-0.8h-0.8h-5H500v0.8v5.6c-0.6-0.7-1.2-1.4-1.9-2.1C492,59.2,484.5,56.2,475.9,56.2L475.9,56.2z
			 M475.9,111.9c-6.7,0-12.6-2.4-17.3-7.2c-4.8-4.7-7.2-10.6-7.2-17.3c0-6.7,2.4-12.6,7.2-17.3c4.8-4.8,10.6-7.2,17.3-7.2
			c6.7,0,12.6,2.4,17.3,7.2c3.6,3.6,5.8,7.8,6.7,12.4v9.8c-0.9,4.7-3.2,8.8-6.7,12.4C488.5,109.5,482.7,111.9,475.9,111.9
			L475.9,111.9z"/>
	</g>
	<g>
		<path class="st0" d="M542.9,117.9c-7.3,0-13.7-2.7-18.9-7.9c-4.2-4.2-6.7-9.1-7.5-14.6l0-0.3l5.5-2l0.1,0.5
			c0.5,4.7,2.5,8.9,6.1,12.4c4.1,4.1,9.1,6.2,14.9,6.2c5.8,0,10.8-2.1,14.9-6.2c4.1-4.1,6.2-9.1,6.2-14.9c0-5.8-2.1-10.8-6.2-14.9
			c-3.6-3.6-8.1-6.5-13.4-8.7c-6.3-2.1-11.4-5.1-15.1-8.8c-3.7-3.7-5.6-8.3-5.6-13.6c0-5.2,1.9-9.7,5.6-13.5
			c3.7-3.7,8.3-5.6,13.6-5.6c5.3,0,9.8,1.9,13.6,5.6c2.1,2,3.5,4.3,4.3,6.8l0.1,0.3l-5.2,2l-0.1-0.4c-0.6-1.8-1.7-3.4-3.2-4.9
			c-2.6-2.6-5.8-3.9-9.5-3.9c-3.7,0-6.9,1.3-9.5,3.9c-2.6,2.6-4,5.8-4,9.6c0,3.7,1.3,6.9,4,9.5c2.5,2.4,6,4.7,10.3,6.8
			c7.1,2.3,13.2,5.9,18.1,10.8c5.2,5.2,7.8,11.5,7.8,18.8c0,7.4-2.6,13.8-7.8,19C556.6,115.3,550.2,117.9,542.9,117.9z"/>
		<path class="st1" d="M542.9,26.4c5.2,0,9.6,1.8,13.3,5.5c2,2,3.4,4.2,4.2,6.6l-4.5,1.8c-0.7-1.8-1.8-3.5-3.3-5c-2.7-2.7-6-4-9.8-4
			c-3.8,0-7.1,1.3-9.8,4c-2.7,2.7-4.1,6-4.1,9.8c0,3.8,1.4,7.1,4.1,9.8c2.5,2.5,6,4.8,10.5,6.8c7.1,2.3,13.1,5.9,18,10.7
			c5.2,5.1,7.7,11.3,7.7,18.6c0,7.3-2.6,13.5-7.7,18.7c-5.2,5.2-11.4,7.7-18.6,7.7c-7.3,0-13.5-2.6-18.6-7.8
			c-4.1-4.1-6.6-8.9-7.4-14.4l4.7-1.7c0.5,4.8,2.6,9,6.2,12.6c4.2,4.2,9.2,6.3,15.1,6.3c5.9,0,11-2.1,15.2-6.3
			c4.2-4.2,6.3-9.3,6.3-15.2c0-5.9-2.1-10.9-6.3-15.1c-3.7-3.7-8.2-6.6-13.5-8.8c-6.3-2.1-11.3-5-15-8.7c-3.7-3.7-5.5-8.1-5.5-13.3
			c0-5.1,1.8-9.5,5.5-13.2C533.2,28.3,537.7,26.4,542.9,26.4 M542.9,25.7c-5.4,0-10.1,1.9-13.9,5.8c-3.8,3.8-5.7,8.4-5.7,13.7
			c0,5.4,1.9,10.1,5.7,13.9c3.7,3.7,8.9,6.7,15.3,8.9c5.2,2.1,9.7,5,13.2,8.6c4,4,6.1,8.9,6.1,14.6c0,5.7-2,10.6-6.1,14.7
			c-4,4-9,6.1-14.7,6.1c-5.7,0-10.6-2-14.6-6.1c-3.5-3.5-5.5-7.6-6-12.2l-0.1-1l-0.9,0.3l-4.7,1.7l-0.6,0.2l0.1,0.6
			c0.8,5.6,3.4,10.6,7.6,14.8c5.3,5.3,11.7,8,19.2,8c7.4,0,13.9-2.7,19.2-7.9c5.3-5.3,8-11.7,8-19.2c0-7.4-2.7-13.9-8-19.1
			c-4.9-4.9-11-8.6-18.2-10.9c-4.3-2-7.8-4.3-10.2-6.7c-2.5-2.5-3.8-5.7-3.8-9.3c0-3.7,1.3-6.7,3.8-9.3c2.5-2.5,5.7-3.8,9.3-3.8
			c3.6,0,6.7,1.3,9.3,3.8c1.4,1.4,2.5,3,3.1,4.7l0.3,0.7l0.7-0.3l4.5-1.8l0.7-0.3l-0.2-0.7c-0.8-2.6-2.3-4.9-4.4-6.9
			C552.9,27.6,548.3,25.7,542.9,25.7L542.9,25.7z"/>
	</g>
	<g>
		<path class="st0" d="M624,117.6c-4.6,0-8.5-1.6-11.7-4.9c-0.7-0.7-1.4-1.5-2-2.3c-0.6,0.8-1.3,1.6-2,2.3
			c-3.2,3.2-7.1,4.9-11.7,4.9s-8.5-1.6-11.7-4.9c-3.1-3.1-4.7-6.8-4.8-11.2V61.5h5.8v40.5h0c0.2,2.6,1.3,4.9,3.2,6.8
			c2.1,2.1,4.7,3.2,7.6,3.2c3,0,5.5-1.1,7.7-3.2c1.8-1.8,2.9-4.1,3.1-6.7l0-40.5h5.8v39.3c0,3.1,1.1,5.8,3.2,7.9
			c2.1,2.1,4.7,3.2,7.7,3.2c3,0,5.5-1.1,7.7-3.2c1.9-1.9,3-4.2,3.2-6.9l0-0.3V61.5h5.8v40.1c-0.2,4.4-1.8,8.1-4.8,11.2
			C632.5,116,628.6,117.6,624,117.6z"/>
		<path class="st1" d="M640.2,61.9v39.7c-0.1,4.3-1.7,7.9-4.7,10.9c-3.2,3.2-7,4.8-11.5,4.8c-4.5,0-8.3-1.6-11.5-4.8
			c-0.9-0.9-1.6-1.7-2.2-2.7c-0.6,0.9-1.4,1.8-2.3,2.7c-3.2,3.2-7,4.8-11.5,4.8c-4.5,0-8.3-1.6-11.5-4.8c-3-3-4.6-6.6-4.7-10.9V61.9
			h5v39.7h-0.1c0.1,2.9,1.3,5.4,3.3,7.4c2.2,2.2,4.8,3.3,7.9,3.3c3.1,0,5.7-1.1,8-3.3c1.9-1.9,3-4.2,3.2-7V61.9h5v38.9
			c0,3.3,1.1,6,3.3,8.2c2.2,2.2,4.8,3.3,7.9,3.3s5.7-1.1,8-3.3c2-2,3.1-4.5,3.3-7.4h-0.1V61.9H640.2 M640.9,61.1h-0.8h-5h-0.8v0.8
			v39.7v0.7c-0.3,2.4-1.3,4.4-3,6.2c-2.1,2.1-4.5,3.1-7.4,3.1c-2.9,0-5.3-1-7.4-3.1c-2.1-2.1-3.1-4.6-3.1-7.6V61.9v-0.8h-0.8h-5H607
			v0.8V102c-0.2,2.5-1.3,4.7-3,6.5c-2.1,2.1-4.5,3.1-7.4,3.1c-2.9,0-5.3-1-7.4-3.1c-1.8-1.8-2.8-3.8-3.1-6.2v-0.7V61.9v-0.8h-0.8h-5
			h-0.8v0.8v39.7c0.2,4.5,1.8,8.3,4.9,11.4c3.3,3.3,7.3,5,12,5c4.7,0,8.7-1.7,12-5c0.6-0.6,1.2-1.3,1.7-1.9c0.5,0.7,1.1,1.3,1.7,1.9
			c3.3,3.3,7.3,5,12,5c4.7,0,8.7-1.7,12-5c3.1-3.1,4.8-7,4.9-11.4l0-39.7V61.1L640.9,61.1z"/>
	</g>
	<g>
		<path class="st0" d="M684.3,118.4c-8.5,0-15.8-3-21.8-9.1c-6-6-9.1-13.4-9.1-21.8c0-8.5,3-15.9,9.1-21.9c6-6,13.4-9.1,21.8-9.1
			c8.5,0,15.9,3,21.9,9.1c0.9,0.9,1.7,1.9,2.5,2.9v-7h5.8v55.4h-5.8v-10.4c-0.8,1-1.6,2-2.5,2.9
			C700.2,115.4,692.8,118.4,684.3,118.4z M684.3,62.6c-6.8,0-12.8,2.5-17.6,7.3c-4.8,4.8-7.3,10.8-7.3,17.6s2.5,12.7,7.3,17.6
			c4.8,4.8,10.8,7.3,17.6,7.3s12.8-2.5,17.6-7.3c3.6-3.6,5.9-7.9,6.8-12.7l0-9.8c-0.9-4.7-3.2-9-6.8-12.6
			C697.1,65.1,691.2,62.6,684.3,62.6z"/>
		<path class="st1" d="M684.3,56.9c8.5,0,15.7,3,21.6,9c1.1,1.2,2.2,2.4,3.2,3.7v-7.7h5v54.6h-5v-11.1c-1,1.3-2,2.5-3.2,3.7
			c-6,6-13.2,9-21.6,9c-8.4,0-15.6-3-21.6-9c-6-6-9-13.2-9-21.6c0-8.5,3-15.7,9-21.6C668.7,59.9,675.9,56.9,684.3,56.9 M684.3,112.7
			c7,0,12.9-2.5,17.9-7.4c3.7-3.7,6-8,7-12.8v-9.9c-0.9-4.9-3.2-9.2-7-12.9c-4.9-4.9-10.9-7.4-17.9-7.4c-7,0-12.9,2.5-17.9,7.4
			c-4.9,4.9-7.4,10.9-7.4,17.9c0,7,2.5,12.9,7.4,17.8C671.4,110.2,677.4,112.7,684.3,112.7 M684.3,56.2c-8.6,0-16,3.1-22.1,9.2
			c-6.1,6.1-9.2,13.5-9.2,22.2c0,8.6,3.1,16,9.2,22.1c6.1,6.1,13.5,9.2,22.1,9.2c8.6,0,16.1-3.1,22.2-9.2c0.7-0.7,1.3-1.4,1.9-2.1v9
			v0.8h0.8h5h0.8v-0.8V61.9v-0.8h-0.8h-5h-0.8v0.8v5.6c-0.6-0.7-1.2-1.4-1.9-2.1C700.4,59.2,693,56.2,684.3,56.2L684.3,56.2z
			 M684.3,111.9c-6.7,0-12.6-2.4-17.3-7.2c-4.8-4.7-7.2-10.6-7.2-17.3c0-6.7,2.4-12.6,7.2-17.3c4.8-4.8,10.6-7.2,17.3-7.2
			c6.7,0,12.6,2.4,17.3,7.2c3.6,3.6,5.8,7.8,6.7,12.4v9.8c-0.9,4.7-3.2,8.8-6.7,12.4C696.9,109.5,691.1,111.9,684.3,111.9
			L684.3,111.9z"/>
	</g>
	<g>
		<path class="st0" d="M731.6,137.7V61.5h5.8v6.9c0.8-1,1.6-1.9,2.5-2.8c6-6,13.4-9,21.8-9c8.5,0,15.9,3,21.9,9c6,6,9,13.4,9,21.9
			c0,8.5-3,15.8-9,21.8c-6,6-13.4,9.1-21.9,9.1c-8.5,0-15.8-3-21.8-9.1c-0.9-0.9-1.8-1.9-2.5-2.8v31.2H731.6z M761.7,62.6
			c-6.8,0-12.8,2.5-17.6,7.3c-3.6,3.6-5.8,7.7-6.8,12.4l0,10.4c0.9,4.6,3.2,8.8,6.8,12.4c4.8,4.8,10.8,7.3,17.6,7.3
			c6.8,0,12.8-2.5,17.6-7.3c4.8-4.8,7.3-10.8,7.3-17.6c0-6.8-2.5-12.8-7.3-17.6C774.5,65.1,768.5,62.6,761.7,62.6z"/>
		<path class="st1" d="M761.7,57c8.5,0,15.7,3,21.6,8.9c6,6,8.9,13.2,8.9,21.6c0,8.4-3,15.6-8.9,21.6c-6,6-13.2,9-21.6,9
			c-8.4,0-15.6-3-21.6-9c-1.2-1.2-2.2-2.4-3.2-3.7v31.9h-5V61.9h5v7.7c0.9-1.3,2-2.5,3.2-3.7C746.1,59.9,753.3,57,761.7,57
			 M761.7,112.7c7,0,12.9-2.5,17.9-7.4c4.9-4.9,7.4-10.9,7.4-17.9c0-7-2.5-12.9-7.4-17.9c-4.9-4.9-10.9-7.4-17.9-7.4
			c-7,0-12.9,2.5-17.9,7.4c-3.6,3.6-5.9,7.8-6.9,12.6v10.5c1,4.8,3.3,9,6.9,12.6C748.8,110.3,754.7,112.7,761.7,112.7 M761.7,56.2
			c-8.6,0-16,3.1-22.1,9.1c-0.7,0.7-1.3,1.4-1.9,2v-5.5v-0.8h-0.8h-5h-0.8v0.8v75.5v0.8h0.8h5h0.8v-0.8v-29.8c0.6,0.7,1.2,1.4,1.9,2
			c6.1,6.1,13.5,9.2,22.1,9.2c8.6,0,16.1-3.1,22.1-9.2c6.1-6.1,9.1-13.5,9.1-22.1c0-8.6-3.1-16.1-9.1-22.1
			C777.8,59.3,770.3,56.2,761.7,56.2L761.7,56.2z M737.7,82.3c0.9-4.6,3.2-8.7,6.7-12.2c4.8-4.8,10.6-7.2,17.3-7.2
			c6.7,0,12.6,2.4,17.3,7.2c4.8,4.8,7.2,10.6,7.2,17.3c0,6.7-2.4,12.6-7.2,17.3c-4.8,4.8-10.6,7.2-17.3,7.2
			c-6.7,0-12.6-2.4-17.3-7.2c-3.5-3.5-5.7-7.6-6.7-12.2V82.3L737.7,82.3z"/>
	</g>
</g>
<g>
	<g>
		<path d="M118.5,13.1c38,0,68.8,30.8,68.8,68.8s-30.8,68.8-68.8,68.8s-68.8-30.8-68.8-68.8S80.5,13.1,118.5,13.1L118.5,13.1z"/>
		<path class="st2" d="M118.5,17.9c35.3,0,63.9,28.6,63.9,63.9c0,29.6-20.1,54.4-47.3,61.8c0.1-2.5,0-4.9-0.2-7.4
			c-0.5-5-1.9-9.7-4.1-14.2c-0.1-0.9-0.3-1.8-0.4-2.7c1.4,0.8,2.1,2,2.9,3.6l0.2,0.4l-0.1-0.4c-0.1-0.7-0.2-1.4-0.3-2
			c-1.1-6.7-2.5-11.4-6.9-16.5c0-0.1-0.1-0.2-0.1-0.4c1.4,0,2.5,1.2,3.4,2.2l0.2,0.2l-0.1-0.3c-1.6-4.9-3.8-8.4-8.1-11.4l-0.1-0.1
			l0.2,0c2.1-0.3,3.8,0.9,5.4,2.1L127,97l-0.1-0.3c-1.5-3.5-5.6-4.7-9-6.5l-0.2-0.2c2,0.3,4.2-0.2,6.1-0.9c1.5-0.5,2.9-1.1,4.3-1.5
			c0.6-0.2,1.9-0.6,2.6-0.5c4.1,1.1,11.2,2.7,12.8-2.6c2.9-1,6.4-2.7,6.9-6c0.7-4.3-4.3-9-7.1-11.7c-1.4-1.4-2.9-2.8-4.3-4.2
			c-1-1-2.2-2.2-2.9-3.3c-0.5-1.1-1.1-2.1-1.6-3c-0.4-1.7-1.2-3.4-2.7-4.7l-0.3-0.2l0.4,0.1c1,0.4,2.5,0.6,3.5,0.6l0.2,0l-0.1-0.1
			c-3.3-2.7-6.3-8.5-11.3-7.7l-0.2,0l0.1-0.1c1.4-1.4,3.5-1.1,4.4-3.3l0-0.1l-0.1,0c-3.8,1.2-7.6-1.2-11.5,0.1l-0.3,0.1l0.2-0.2
			c1.2-1.2,1.8-2.7,2.1-4.4l0-0.2l-0.1,0.2c-1.7,2-4.1,3.3-6.5,4.3c-0.2-2.4-0.8-4.7-2-6.4c-0.4-0.6-0.8-1.1-1.2-1.7
			c-0.5-0.6-1.2-1-2-0.7c-0.8,0.4-0.9,1.2-0.9,2c0,0.5,0,1,0,1.5c-0.3,3-1.6,5.9-2.8,8.8c-6.5,2.8-11.5,6.5-15.1,13L88,57.5l0.2-0.2
			c0.4-0.3,1.4-1.1,2-1c0.2,0,0.4,0.1,0.7,0.2l0.1,0l-0.1,0.1c-2.6,2.2-3.3,7.4-3.9,10.6c-0.5,2.6-1,5.5-2.4,7.8l-0.1,0.1l0.1,0
			c0.3,0,0.5,0.1,0.7,0.2c0.1,0.1,0.3,0.2,0.4,0.2c0.2,0,0.4-0.2,0.5-0.3l0.2-0.3l-0.1,0.4c-0.5,1.4-0.8,2.9-0.9,4.3
			c-0.3,2.8-0.2,7.3-2,9.5c-0.1,0.2-0.3,0.3-0.5,0.5l-0.3,0.2l0.3-0.1c1.3-0.5,1.8-1.1,2.7-2l0.2-0.2l-0.1,0.3
			c-0.8,2.6-1.3,5.4-1.9,8.1c-0.5,2.1-1.1,4.4-2.5,6c-0.3,0.3-0.5,0.6-0.8,0.8l-0.2,0.1l0.2,0c2-0.2,3.5-2.7,4.4-4.3l0.2-0.3
			l-0.1,0.4c-1,5.2-3.3,14.9-8,18l-0.1,0l0.1,0.1l0.1,0c2.9-1.3,5.5-5.3,6.6-8.2l0.2-0.5l-0.1,0.5c-0.5,4.4-2.8,8.7-5.4,12.3
			c-1.5,2.1-3.4,4.3-5.5,6.4c-11.6-11.6-18.8-27.6-18.8-45.2C54.5,46.6,83.2,17.9,118.5,17.9L118.5,17.9z"/>
		<path class="st2" d="M133,144.2c-0.5,0.1-0.9,0.2-1.4,0.3c0.1-1.4,0.1-2.8,0.1-4.1l0-0.2l0.1,0.2
			C132.4,141.2,132.7,142.8,133,144.2L133,144.2z"/>
		<path class="st2" d="M112.1,56.4L112.1,56.4L112.1,56.4L112,56c-0.7-2.5-0.5-5.3-0.4-7.9c0-1.8,0.1-3.7-0.1-5.5l0,0h0
			c-0.2-2.4-0.8-4.6-2-6.2c-2.6-3.4-1.8-1.6-2,0.6c-0.3,2.7-1.4,5.4-2.7,8l-0.1,0.1l-0.4,0.9l0,0.1l-0.1,0.3l-0.1,0.2l-0.1,0.2
			l0,0.1l-0.1,0.3l0,0c-0.1,0.2-0.2,0.5-0.3,0.7l0,0l0,0c-0.1,0.2-0.2,0.5-0.3,0.7l0,0l0,0l-0.2,0.4l0,0l-0.1,0.4l0,0
			c0,0.1-0.1,0.2-0.1,0.3l0,0.1c0,0.1-0.1,0.2-0.1,0.3l0,0c0,0.1-0.1,0.2-0.1,0.3l0,0.1c0,0.1-0.1,0.2-0.1,0.3l0,0
			c0,0.1-0.1,0.2-0.1,0.3l0,0.1c0,0.1-0.1,0.2-0.1,0.3l0,0l0,0l0,0c0,0.1-0.1,0.2-0.1,0.3l0,0.1c0,0.1-0.1,0.2-0.1,0.3l0,0l0,0
			c0,0.1-0.1,0.2-0.1,0.3l0,0.1c0,0.1,0,0.2-0.1,0.3l0,0c0,0.1,0,0.2-0.1,0.3l0,0.1c0,0.1,0,0.2,0,0.3l0,0c0,0.1,0,0.2,0,0.3l0,0.1
			c0,0.1,0,0.2,0,0.3l0,0c0,0.1,0,0.2,0,0.4l0,0.1c0,0.1,0,0.2,0,0.3l0,0c0,0.1,0,0.2,0,0.4l0,0c0,0.1,0,0.2,0,0.4l0,0
			c0,0.1,0,0.2,0,0.4l0,0c0,0.3,0.1,0.5,0.1,0.8l0,0c0.1,0.4,0.2,0.8,0.3,1.1l0,0c0.1,0.3,0.2,0.5,0.3,0.8l0,0
			c0.1,0.3,0.2,0.5,0.4,0.8l0,0c0.1,0.2,0.3,0.5,0.5,0.7l0,0c0.1,0.1,0.2,0.3,0.3,0.4l0,0c0.1,0.1,0.2,0.3,0.3,0.4l0,0l0,0l-0.1,0
			c-0.7-0.2-1.1-0.7-1.5-0.9c-0.3-0.1-0.6-0.1-0.8,0.4l0,0.1l0,0l0,0.1l0,0l0,0.1l0,0l0,0.1l0,0l0,0.1l0,0l0,0.1l0,0.1l0,0l0,0.1
			l0,0l0,0.1l0,0.1l0,0l0,0.1l0,0c-0.7,1.6-1.1,3.3-1.1,4.9v0v0.1v0l0,0.1v0l0,0.1v0l0,0.1c0.1,3.9,2.7,5.4,5.6,6.8l0,0l0,0
			c3.7,1.8,8,3.6,8.3,10.6L112.1,56.4L112.1,56.4z"/>
		<path class="st2" d="M112.1,80.7L112.1,80.7c2.8,9.3,12.2,1.2,15.6,2c5.8,1.5,9.2,1.4,9.8-2c14.8-4.4-2.9-14.6-6.4-20.1
			c-0.1-0.2-0.2-0.4-0.3-0.5c0,0.3,0,0.7-0.1,1l0,0l0,0.1l0,0v0l0,0.1l0,0.1c-0.1,1-0.3,1.9-0.5,2.8l0,0l0,0.1l0,0.1l0,0l0,0.1
			l0,0.1l0,0l0,0.1l0,0.1l0,0.1l0,0.1v0l0,0c-0.4-2.3-0.9-3.9-1.8-5.2c-0.9-1.4-2.3-2.5-4.2-3.8l0,0l-0.1,0c0,0,0,0,0,0.1l0,0l0,0
			l0,0l0,0l0,0.1l0,0c-0.1,0.4,0,0.7,0.1,1.1l0,0l0,0c0.5,1,1.8,2,1.7,3.2l0,0.2l0,0l0,0c0-0.1-0.1-0.2-0.1-0.3l0,0l0,0l0,0l0-0.1
			l0,0l0,0l0,0l0,0l0,0l0,0l0,0l-0.1-0.1l0,0c-0.1-0.1-0.2-0.2-0.3-0.3l0,0l-0.1-0.1l0,0l0,0l0,0l0,0l0,0l0,0l0,0l0,0l0,0l-0.1-0.1
			l0,0l0,0l0,0l-0.1-0.1l0,0l0,0l0,0c-0.9-0.8-2.1-1.2-3.5-1.9l0,0l-0.1,0l-0.1,0c-1.2-0.6-2.5-1.4-3.7-2.7l0,0l-0.1-0.1l0,0l0-0.1
			c-0.1-0.1-0.2-0.2-0.2-0.3L117,54c0,0.1,0,0.1,0,0.2l0,0l0,0.1v0c0.1,0.9,0.8,1.8,1.5,2.6c0.5,0.6,1,1.3,1.2,2l0,0.2l0,0v0
			l-0.1-0.1l0,0l-0.1-0.1l0,0l0,0l-0.1-0.1l0,0c-1.1-1.2-2.3-2.3-3.4-3.1l0,0l-0.1-0.1c-1.2-0.8-2.5-1.4-3.8-1.3l0,0l-0.1,0l0,0
			c0,0-0.1,0-0.1,0l0,0l0,0c-0.3,0.1-0.4,0.4-0.5,0.7l0,0l0,0c-0.1,0.4-0.2,0.9-0.2,1.5L112.1,80.7L112.1,80.7z"/>
		<path d="M129,64.6c-1.8-2.3-4.3-4.3-7.3-2.7c0.4,0,1-0.2,1.4,0c0,2.8,1.2,3.5,2.2,3.7c1,0.1,2.1-0.2,2.2-1.5
			C128,64,128.4,64.3,129,64.6L129,64.6z"/>
	</g>
	<rect id="_x3C_Slice_x3E__4_" x="49.7" y="13.1" class="st3" width="137.6" height="137.6"/>
</g>
</svg>
