<?xml version="1.0" encoding="UTF-8" standalone="no"?>
<svg
   xmlns:dc="http://purl.org/dc/elements/1.1/"
   xmlns:cc="http://creativecommons.org/ns#"
   xmlns:rdf="http://www.w3.org/1999/02/22-rdf-syntax-ns#"
   xmlns:svg="http://www.w3.org/2000/svg"
   xmlns="http://www.w3.org/2000/svg"
   xmlns:sodipodi="http://sodipodi.sourceforge.net/DTD/sodipodi-0.dtd"
   xmlns:inkscape="http://www.inkscape.org/namespaces/inkscape"
   version="1.1"
   id="Layer_1"
   x="0px"
   y="0px"
   viewBox="0 0 250 250"
   xml:space="preserve"
   sodipodi:docname="lama-glasses-250.svg"
   width="250"
   height="250"
   inkscape:version="1.0.2-2 (e86c870879, 2021-01-15)"><metadata
   id="metadata55"><rdf:RDF><cc:Work
       rdf:about=""><dc:format>image/svg+xml</dc:format><dc:type
         rdf:resource="http://purl.org/dc/dcmitype/StillImage" /><dc:title></dc:title></cc:Work></rdf:RDF></metadata><defs
   id="defs53"><clipPath
     clipPathUnits="userSpaceOnUse"
     id="clipPath76"><rect
       style="fill:none"
       id="rect78"
       width="563.35779"
       height="623.37653"
       x="1.3640625"
       y="0" /></clipPath><clipPath
     clipPathUnits="userSpaceOnUse"
     id="clipPath80"><rect
       style="fill:none;stroke-width:0.998257"
       id="rect82"
       width="563.35779"
       height="621.20514"
       x="-1.3683503"
       y="0.0024012066"
       transform="matrix(1,0,0.00625479,0.99998044,0,0)" /></clipPath></defs><sodipodi:namedview
   pagecolor="#ffffff"
   bordercolor="#666666"
   borderopacity="1"
   objecttolerance="10"
   gridtolerance="10"
   guidetolerance="10"
   inkscape:pageopacity="0"
   inkscape:pageshadow="2"
   inkscape:window-width="1920"
   inkscape:window-height="1018"
   id="namedview51"
   showgrid="false"
   fit-margin-top="0"
   fit-margin-left="0"
   fit-margin-right="0"
   fit-margin-bottom="0"
   inkscape:zoom="0.73310424"
   inkscape:cx="234.12188"
   inkscape:cy="214.20777"
   inkscape:window-x="2729"
   inkscape:window-y="-6"
   inkscape:window-maximized="1"
   inkscape:current-layer="Layer_1" />
<g
   id="g48"
   transform="matrix(0.44591134,0,-0.00278914,0.40245142,0.61016304,-9.7e-4)"
   clip-path="url(#clipPath80)">
	<g
   id="g14">
		<g
   id="g6">
			<path
   style="fill:#ffffff"
   d="m 423.402,217.374 c 38.703,-75.673 65.768,-236.473 99.539,-214.676 34.793,29.445 60.992,163.943 2.906,222.105 -12.954,12.971 -42.807,24.356 -59.155,32.651 -29.819,15.131 -20.45,-6.205 -53.702,-2.687 -4.303,-13.958 4.464,-13.171 0.161,-27.129 -0.839,-2.723 -1.688,-5.52 -1.503,-8.364 0.21,-3.207 10.291,0.961 11.754,-1.9 z"
   id="path2" />
			<path
   style="fill:#efdbcb"
   d="m 544.273,103.801 c 1.128,-26.966 -3.953,-54.987 -19.519,-77.035 -5.809,98.89 -33.944,181.178 -48.292,210.211 5.972,-3.667 62.668,-10.21 67.811,-133.176 z"
   id="path4" />
		</g>
		<g
   id="g12">
			<path
   style="fill:#ffffff"
   d="M 137.606,217.374 C 98.903,141.701 71.838,-19.099 38.067,2.698 3.274,32.143 -22.925,166.641 35.161,224.803 c 12.954,12.971 42.807,24.356 59.155,32.651 29.819,15.131 20.45,-6.205 53.702,-2.687 4.302,-13.958 -4.464,-13.171 -0.162,-27.129 0.839,-2.723 1.688,-5.52 1.503,-8.364 -0.209,-3.207 -10.29,0.961 -11.753,-1.9 z"
   id="path8" />
			<path
   style="fill:#efdbcb"
   d="M 16.735,103.801 C 15.607,76.835 20.688,48.814 36.254,26.766 42.063,125.656 70.198,207.944 84.546,236.977 78.574,233.31 21.878,226.767 16.735,103.801 Z"
   id="path10" />
		</g>
	</g>
	<path
   style="fill:#ffffff"
   d="M 32.43,873 C 43.47,851.31 58.1,829.51 57.44,810.01 57.03,797.72 44.845,780.625 48.6,768.91 54.5,750.5 68.62,743.91 72.23,726.89 77.82,700.51 55.54,673.95 61.66,647.68 64.97,633.48 76.42,620.13 72.45,606.1 70.3,598.51 67.04,592.93 62.55,586.44 52,571.21 56.49,551.1 59.71,532.85 c 1.46,-8.21 3.59,-16.66 1.61,-24.76 -3.09,-12.69 -15.49,-21.46 -18.76,-34.1 -4.96,-19.16 22.79,-40.48 13.77,-58.1 -3.3,-6.44 -2.53,-10.76 -7.57,-15.96 -5.03,-5.2 -9.13,-12.7 -6.58,-19.47 2.69,-7.16 12.12,-14.03 7.49,-20.12 -6.67,-19.84 8.68,-20.93 4.95,-30.36 -1.64,-4.13 -3.98,-8.16 -4.12,-12.61 -0.41,-12.63 1.28,-18.32 10.83,-26.6 C 78.5,275.88 66.333,259 62.333,239.333 59.88,227.27 64.04,200.19 73.47,192.27 c 5.11,-4.29 12,-5.75 17.76,-9.13 14.67,-8.58 19.53,-27.53 31.75,-39.34 9.4,-9.08 23.21,-13.36 36.1,-11.18 8.91,1.51 17.8,5.89 26.57,3.74 6.75,-1.66 11.94,-6.87 17.6,-10.89 13.75,-9.76 32.02,-12.81 48.19,-8.07 6.97,2.05 13.51,5.44 20.6,7.03 28.85,6.49 58.9,-17.88 87.07,-8.85 16.72,5.37 28.6,21.58 45.7,25.55 17.27,4.02 39.45,-4.05 50.58,9.74 4.11,5.08 5.23,11.85 6.62,18.23 4.05,18.61 22.237,28.283 32.657,44.233 8.35,12.79 -2.791,42.065 -3,57.333 -0.334,24.334 12.143,26.674 9.803,41.774 -1.85,11.9 -3.43,12.71 -5.06,24.65 -2.65,19.3 22.94,38.42 21.22,57.83 -1.37,15.45 -10.38,29.27 -12.89,44.58 -0.27,1.64 -0.45,3.31 -0.59,4.98 0.02,5.44 12.6,17.03 8.6,26.51 -2.38,5.63 -7.71,9.45 -10.88,14.67 -14.72,24.25 23.94,56.07 10.28,80.93 -2.76,5.02 -7.39,8.86 -9.92,14 -5.7,11.6 0.83,25.08 4.67,37.43 6.89,22.18 4.69,46.54 -3.15,68.4 -6.49,18.1 -16.4,39.39 -5.05,54.91 4.14,5.65 10.57,9.34 14.6,15.08 10.43,14.85 1.02,36.2 7.6,53.11 4.21,10.83 14.47,18.39 18.97,29.11 4.5,10.67 2.8,23.25 5.27,34.37 z"
   id="path16" />
	<g
   id="g22">
		<path
   style="fill:#f1f2f2"
   d="m 447.202,200.119 c -0.97,-3.02 -2.773,-6.03 -5.166,-8.697 -1.207,-1.339 -2.478,-2.636 -3.978,-3.833 -1.486,-1.182 -3.121,-2.226 -4.858,-3.132 -3.478,-1.808 -7.348,-3.091 -11.383,-3.813 -4.039,-0.71 -8.239,-0.889 -12.426,-0.271 -0.268,0.035 -0.514,0.081 -0.763,0.125 -0.182,-0.245 -0.401,-0.573 -0.591,-0.857 l -1.709,-2.544 c -1.168,-1.69 -2.405,-3.331 -3.722,-4.889 -2.631,-3.115 -5.587,-5.899 -8.797,-8.129 -3.207,-2.232 -6.665,-3.893 -10.115,-4.893 -3.46,-0.975 -6.831,-1.468 -10.046,-1.182 -1.586,0.177 -3.07,0.542 -4.435,1.008 -1.353,0.501 -2.59,1.085 -3.694,1.73 -2.22,1.275 -3.906,2.753 -5.188,4.046 -1.29,1.291 -2.116,2.476 -2.701,3.275 -0.514,0.805 -0.788,1.234 -0.788,1.234 l 0.835,0.55 c 0,0 0.442,-0.32 1.217,-0.949 0.77,-0.545 1.912,-1.316 3.413,-2.117 1.499,-0.779 3.323,-1.61 5.412,-2.123 2.069,-0.536 4.381,-0.776 6.544,-0.455 0.537,0.119 1.067,0.175 1.574,0.346 l 0.191,0.052 0.095,0.025 0.048,0.012 0.024,0.006 c 0.089,0.009 -0.095,-0.005 -0.061,0 l 0.593,0.149 c 0.451,0.099 0.654,0.204 0.956,0.302 1.26,0.415 2.557,0.901 3.795,1.525 2.503,1.191 4.896,2.803 7.183,4.78 1.121,1.019 2.268,2.066 3.341,3.255 1.066,1.194 2.131,2.443 3.158,3.777 1.023,1.343 1.98,2.771 2.99,4.256 l 1.568,2.431 0.523,0.797 0.394,0.562 0.318,0.418 0.215,0.265 0.378,0.425 0.226,0.235 c 0.146,0.145 0.297,0.287 0.452,0.423 0.155,0.137 0.314,0.269 0.476,0.396 0.399,0.309 0.893,0.629 1.377,0.882 0.318,0.139 0.901,0.583 2.987,0.955 1.636,0.194 2.907,-0.054 2.979,-0.079 l 0.362,-0.061 c 0.251,-0.049 0.531,-0.104 0.626,-0.114 l 0.433,-0.071 0.548,-0.073 c 0.37,-0.04 0.739,-0.087 1.119,-0.11 0.753,-0.064 1.528,-0.082 2.307,-0.079 1.558,0.009 3.154,0.063 4.728,0.269 1.569,0.222 3.134,0.478 4.64,0.847 1.506,0.371 2.944,0.85 4.314,1.354 1.371,0.512 2.605,1.16 3.763,1.794 0.285,0.164 0.565,0.331 0.834,0.503 l 0.398,0.26 0.025,0.016 c -0.028,-0.029 0.098,0.088 -0.056,-0.061 l 0.067,0.052 0.134,0.104 0.268,0.208 c 0.582,0.449 1.158,0.893 1.726,1.33 1.109,0.87 2.048,1.776 2.884,2.678 0.851,0.899 1.55,1.838 2.158,2.829 1.231,1.965 2.014,4.25 2.556,6.492 0.526,2.24 0.914,4.389 1.179,6.171 0.231,1.783 0.529,3.234 0.667,4.213 0.161,0.984 0.278,1.515 0.278,1.515 l 0.99,0.143 c 0,0 0.079,-0.504 0.228,-1.448 0.146,-0.945 0.362,-2.332 0.594,-4.109 0.226,-1.777 0.48,-3.948 0.53,-6.475 0.047,-2.514 -0.139,-5.437 -1.141,-8.456 z m -39.019,-19.537 -0.029,0.005 c -0.042,0.01 -0.025,0.002 0.029,-0.005 z"
   id="path18" />
		<path
   style="fill:#f1f2f2"
   d="m 146.887,171.717 -1.961,1.166 -1.869,1.314 -1.769,1.45 -1.652,1.585 -1.52,1.714 -1.397,1.816 -1.268,1.909 -1.134,1.993 -0.994,2.068 -0.848,2.135 -0.696,2.191 -0.536,2.239 -0.369,2.275 -0.196,2.3 -0.008,1.14 -0.312,-0.052 -1.464,-0.129 -1.469,-0.021 -1.464,0.102 -1.45,0.211 -1.43,0.311 -1.404,0.407 -1.372,0.501 -1.335,0.592 -1.291,0.681 -1.242,0.767 -1.186,0.851 -1.123,0.933 -1.054,1.012 -0.997,1.114 -0.87,1.134 -0.799,1.224 -0.702,1.279 -0.605,1.325 -0.507,1.363 -0.409,1.394 -0.311,1.417 -0.213,1.434 -0.116,1.444 -0.01,1.447 0.102,1.442 0.2,1.43 0.298,1.412 0.397,1.385 0.495,1.352 0.602,1.329 0.672,1.225 0.888,-0.46 c 0.026,-0.538 0.025,-1.061 0.009,-1.577 l 0.148,-1.401 0.184,-1.366 0.247,-1.301 0.302,-1.239 c 0.128,-0.406 0.263,-0.8 0.364,-1.181 l 0.412,-1.122 c 0.173,-0.364 0.311,-0.718 0.452,-1.064 l 0.502,-1.004 c 0.202,-0.32 0.357,-0.637 0.526,-0.945 l 0.568,-0.882 c 0.22,-0.275 0.41,-0.549 0.59,-0.82 l 0.613,-0.754 c 0.221,-0.233 0.453,-0.45 0.641,-0.683 l 0.636,-0.625 0.663,-0.547 c -0.348,0.464 -0.092,0.124 -0.167,0.226 l 0.008,-0.007 0.016,-0.015 0.033,-0.03 0.066,-0.059 0.132,-0.118 0.258,-0.241 0.507,-0.49 c 0.185,-0.073 0.349,-0.147 0.498,-0.23 l 1.438,-0.808 0.742,-0.352 0.765,-0.3 c 0.264,-0.082 0.511,-0.189 0.76,-0.29 0.262,-0.076 0.519,-0.157 0.773,-0.243 0.265,-0.057 0.525,-0.12 0.782,-0.189 0.268,-0.03 0.52,-0.104 0.775,-0.17 0.259,-0.038 0.516,-0.081 0.772,-0.132 0.257,-0.019 0.513,-0.044 0.767,-0.077 0.253,-0.005 0.505,0.005 0.755,-0.038 0.247,0 0.493,-0.008 0.741,-0.023 0.241,0.018 0.482,0.028 0.726,0.03 0.234,0.036 0.468,0.064 0.706,0.083 l 1.114,0.09 c 0.334,0.024 0.673,0.03 1.016,0.016 4.89,-0.198 8.693,-4.322 8.496,-9.212 -0.021,-0.51 -0.077,-1.02 -0.128,-1.537 l -0.014,-1.571 c 0.031,-0.529 0.026,-1.066 0.031,-1.61 l 0.147,-1.637 0.192,-1.678 c 0.104,-0.557 0.234,-1.11 0.3,-1.7 l 0.375,-1.73 c 0.181,-0.559 0.311,-1.156 0.459,-1.757 0.184,-0.58 0.393,-1.155 0.56,-1.773 l 0.646,-1.799 c 0.258,-0.58 0.486,-1.203 0.742,-1.825 0.296,-0.58 0.566,-1.207 0.852,-1.844 0.328,-0.589 0.644,-1.216 0.968,-1.867 0.367,-0.594 0.721,-1.238 1.096,-1.894 0.402,-0.613 0.814,-1.251 1.23,-1.939 0.436,-0.651 0.917,-1.274 1.378,-2.008 l -0.428,-0.904 z"
   id="path20" />
	</g>
	<g
   id="g44">
		<g
   id="g36">
			<g
   id="g28">
				<path
   style="fill:#231f20"
   d="m 382.532,313.173 c 0,0 11.923,27.055 36.226,20.635 24.304,-6.42 10.088,-46.315 10.088,-46.315 0,0 -14.238,-7.605 -32.558,5.044 -9.629,6.65 -13.756,20.636 -13.756,20.636 z"
   id="path24" />
				<path
   style="fill:#ffffff"
   d="m 413.255,293.914 c 0,0 -6.42,-3.669 -12.152,-0.459 -5.732,3.21 -5.273,11.005 -5.273,11.005 0,0 18.801,10.548 17.425,-10.546 z"
   id="path26" />
			</g>
			<g
   id="g34">
				<path
   style="fill:#231f20"
   d="m 178.476,313.173 c 0,0 -11.923,27.055 -36.226,20.635 -24.304,-6.42 -10.088,-46.315 -10.088,-46.315 0,0 14.238,-7.605 32.558,5.044 9.629,6.65 13.756,20.636 13.756,20.636 z"
   id="path30" />
				<path
   style="fill:#ffffff"
   d="m 147.753,293.914 c 0,0 6.42,-3.669 12.152,-0.459 5.732,3.21 5.273,11.005 5.273,11.005 0,0 -18.801,10.548 -17.425,-10.546 z"
   id="path32" />
			</g>
		</g>
		<g
   id="g40">
			<path
   style="fill:#efdbcb"
   d="m 379.903,415.705 c -0.767,-25.45 -14.835,-43.285 -32.159,-55.635 -39.165,-27.922 -95.315,-27.922 -134.48,0 -17.323,12.35 -31.391,30.185 -32.159,55.635 -1.967,65.225 20.649,131.286 92.351,136.331 1.683,0.209 12.412,0.209 14.095,0 71.703,-5.046 94.319,-71.106 92.352,-136.331 z"
   id="path38" />
		</g>
		<path
   style="fill:#231f20"
   d="m 302.915,432.73 c 21.094,-8.254 43.563,-20.177 37.602,-29.348 -5.961,-9.171 -15.133,-18.801 -33.934,-15.591 -18.801,3.21 0.726,21.001 1.376,27.972 0.731,7.84 -11.464,21.094 -23.387,21.094 -1.744,0 -6.393,0 -8.137,0 -11.923,0 -24.117,-13.254 -23.387,-21.094 0.65,-6.971 20.177,-24.762 1.376,-27.972 -18.801,-3.21 -27.972,6.42 -33.934,15.591 -5.961,9.171 16.508,21.094 37.602,29.348 21.094,8.254 16.05,23.845 16.05,39.895 0,8.907 2.117,12.58 4.003,14.092 l -0.003,0.002 c -0.222,0.21 -22.473,20.947 -48.094,3.761 -1.571,-1.053 -3.696,-0.632 -4.749,0.936 -1.053,1.57 -0.633,3.696 0.936,4.749 24.914,16.707 47.157,2.893 54.269,-2.541 4.6,3.514 15.53,10.536 29.421,10.535 7.583,0 16.05,-2.094 24.848,-7.994 1.569,-1.053 1.988,-3.179 0.936,-4.749 -1.053,-1.57 -3.18,-1.988 -4.749,-0.936 -25.513,17.117 -47.189,-2.906 -48.094,-3.761 l -0.003,-0.002 c 1.885,-1.512 4.003,-5.185 4.003,-14.092 -10e-4,-16.049 -5.045,-31.641 16.049,-39.895 z"
   id="path42" />
	</g>
	<path
   style="fill:#282d4f"
   d="m 457.245,259.659 c -16.118,-1.34 -92.075,-5.629 -123.57,2.01 -31.495,7.639 -53.171,7.237 -53.171,7.237 0,0 -21.676,0.402 -53.17,-7.237 -31.495,-7.639 -107.452,-3.35 -123.57,-2.01 -16.118,1.34 -32.792,4.825 -32.792,4.825 l 2.038,20.371 1.002,0.178 c 6.31,1.123 11.196,4.733 12.615,9.32 l 10.283,33.254 c 0,0 5.002,28.412 53.17,28.412 48.168,0 65.002,-2.291 79.107,-13.268 24.455,-19.03 30.568,-56.957 51.318,-57.895 20.75,0.938 26.863,38.865 51.318,57.895 14.105,10.977 30.939,13.268 79.107,13.268 48.169,0 53.17,-28.412 53.17,-28.412 l 10.283,-33.254 c 1.418,-4.587 6.305,-8.197 12.615,-9.32 l 1.001,-0.178 2.038,-20.371 c -10e-4,0 -16.674,-3.484 -32.792,-4.825 z"
   id="path46" />
</g>
<rect
   style="fill:none;fill-rule:evenodd"
   id="rect72"
   width="559.26562"
   height="585.1828"
   x="1.3640625"
   y="0"
   clip-path="url(#clipPath76)"
   transform="matrix(0.44591134,0,0,0.40104172,-0.60825096,0)" /></svg>
