<?xml version="1.0" encoding="utf-8"?>
<!-- Generator: Adobe Illustrator 19.0.0, SVG Export Plug-In . SVG Version: 6.00 Build 0)  -->
<svg version="1.1" id="Layer_1" xmlns="http://www.w3.org/2000/svg" xmlns:xlink="http://www.w3.org/1999/xlink" x="0px" y="0px"
	 viewBox="-43 -73.5 525 938.5" style="enable-background:new -43 -73.5 525 938.5;" xml:space="preserve">
<style type="text/css">
	.st0{opacity:0.55;}
	.st1{fill:#F2F2F2;}
	.st2{fill:#FDD8D2;}
	.st3{fill:#F3B2B0;}
	.st4{fill:#FDDCD6;}
	.st5{fill:#2A3138;}
	.st6{fill:#333333;}
	.st7{fill:#FFFFFF;}
	.st8{fill:#E6E6E6;}
</style>
<g class="st0">
	<g>
		<path class="st1" d="M103.2,241.8c5.8,8.7,25,23.1,25,23.1s-14.5,12.1-4.6,37.8c4.2,10.9,13.8,23.1,24.3,17.9
			c-7.3,17.5,15.7,38.2,32.3,29.1c-19,15.2-14.4,50.5,7.8,60.3c-5.3,22-15.2,44.1-15.2,71c0,11,10.8,20.1,10.8,20.1
			s-20.6,53.5-5.6,70.2c-12.7,15.5,2.3,75-0.2,96c-1,8.5-4.8,18.2-3.8,26.9c1.1,10,7,13.7,4.3,26.1c-8.8,40-33.9,80.7-36,121.6
			c-0.4,7-9.8,15.4-4,19.3c-4.1,1-7.5,2.3-10.4,3.7h266.6c-9.5-10.4-16.8-26.7-18-33.4c-3.8-21.2-22.2-73.1-27.6-108
			c-4.2-26.8-5.2-54-3.2-81c0.7-8.8-1.1-15.6-2.5-23.9c-0.7-4.7-5.4-6-5.3-11.3c0.1-3.5,7.3-45.5-8.1-54.7
			c12.4-2.9,22.2-59.3,9.5-84.9c7.8-16.1,2-56,2-56s36.9-38.4,25.1-54.7c19.4-5.2,33.5-25.4,31.8-45.4c26.1-2.7,41.4-39.1,25-59.6
			c13.8,1.4,25.8-11.5,28.4-25.2s-1.5-27.6-5.7-40.8c14.5-9.8,16-33.8,2.9-45.4c8-14.1,14.6-29.8,13.9-46
			c-0.8-16.2-10.7-32.9-26.4-37.1c13.9-6.7,18.4-27.3,8.6-39.2c-9.8-11.9-30.9-11.3-40.1,1c0-2.7-0.1-5.3-0.3-7.9
			c-1.9-21.8-28.8-31.9-44.4-16.6c-0.1,0.1-0.2,0.2-0.3,0.3l-7.4-3c-10.7-19.9-40.9-25.8-58.2-11.3c-16.4-35.1-78-31.8-90.6,4.8
			C187.7-28,158.3-10.2,163,10.1c-24.2-9.1-50.8,24.2-36.7,45.7C97.8,61,89.2,107.1,114,122.2c-15.5,2.2-14.4,30.8,1.3,31.9
			C90.7,175,85.2,215,103.2,241.8z"/>
	</g>
	<g>
		<path class="st2" d="M387.1,66.8l-11.3-10.3l-18.9-17.2l-12.9-11.8c31.1-15.5,55.4-44.2,65.5-77.5c1.4-4.8,2.8-10,6.7-13.3
			c5.6-4.7,14.6-3.1,19.9,1.9s7.8,12.3,9.2,19.5C453.9,1.8,428.2,49.8,387.1,66.8z"/>
	</g>
	<path class="st3" d="M434.4-19.7c-2.8,19.3-15.9,40.2-31.6,55.9c-2.8,2.8-14.3,12.7-17.7,14.7c-2.5,1.5-5.8,3.6-9.3,5.5l-18.9-17.2
		c10.8-4.8,20.4-12.1,28.6-20.6c8.6-8.8,16.4-18.5,22.8-29c6.6-10.9,10.2-23.2,16.6-34.2c0.6-1,1.4-2.1,2.6-2.1
		c0.6,0,1.2,0.2,1.7,0.6C436.5-41.1,435.5-27.1,434.4-19.7z"/>
	<g>
		<path class="st2" d="M165.7,36.1L154.2,50L133,75.5l-13.3,16c-27-37-39.2-84.5-33.2-130c0.8-5.8,1.9-11.7,5.3-16.4s9.6-7.9,15.1-6
			c6.3,2.1,9,9.3,11.2,15.5C128.6-15.6,144.8,12.3,165.7,36.1z"/>
	</g>
	<path class="st3" d="M154.2,50L133,75.5c-10.8-10.8-19.1-23.8-25-38c-9.2-22.1-14.9-46-11-70c0.5-3,3.2-6.7,6.6-6.2
		c3.2,0.4,4.9,4,6,7.1C120.4-2.4,134.3,26.2,154.2,50z"/>
	<g>
		<g>
			<path class="st4" d="M299.1,240.5c-6.6-9.5-18.5-15-30-13.9c-15.1,1.4-27,12.8-37.5,23.8c-13.7,14.3-27.1,29-40,44
				c-6.5,7.5-13.4,16.4-12.4,26.3c0.9,8.5,7.6,15.6,15.4,19.1c7.8,3.6,91.4,7.9,122,4.6c7.3-0.8,15.1-1.9,20.7-6.6
				c11.3-9.5,10.5-24,3-36.7C332.6,288.4,299.1,240.5,299.1,240.5z"/>
		</g>
		<path class="st5" d="M296.8,259.8c-12,0.3-21.2,4.3-28.8,12.8c-2.8-2.6-7-4.6-9.4-6c-5.8-3.3-12.8-7.1-19.7-6.8
			c-3.5,0.2-3.5,5.6,0,5.4c5.6-0.3,11.2,2.9,15.9,5.5c2.4,1.3,4.7,2.7,6.9,4.3c0.9,0.6,1.8,1.3,2.6,2c0.5,0.4,1.1,1.7,0.9,0.7
			c0,0.1,0.1,0.1,0.1,0.2c0,0,0,0,0,0.1c-0.2,13.3-0.4,26.6-0.2,40c0.1,3.5,5.5,3.5,5.4,0c-0.3-13.3,0-26.6,0.2-40
			c0-0.1,0-0.2,0-0.3c6.8-8.5,15.1-12.2,26.1-12.5C300.3,265.1,300.3,259.7,296.8,259.8z"/>
		<path class="st5" d="M210.7,316.9c14.3,11.4,32.9,10.3,50.1,7.6c18.4-2.9,40.9-8.3,56.6,5c2.6,2.2,6.5-1.6,3.8-3.8
			c-14-11.8-32.8-11-49.9-8.4c-18.4,2.8-40.7,8.5-56.8-4.3C211.9,310.9,208,314.7,210.7,316.9L210.7,316.9z"/>
	</g>
	<g>
		<g>
			<path class="st6" d="M466.4,144.2c-4.8-1.9-9.8-3.5-14.8-5c-19.3-5.8-39.3-11.7-59.5-12.8c-20.6-1.2-41.5-0.8-61.9,2.7
				c-6,1-12,2.3-18,3.2c-9.5,1.5-19.2,2-28.8,2.1c-0.7,0-12.9,0-12.8-0.2c0,0.2-12.2-0.2-12.8-0.2c-9.6-0.4-19.3-1.3-28.7-3
				c-6-1.1-11.9-2.6-17.9-3.8c-10.5-2.1-21.2-3.4-32-4.1c-9-1-18.5-1.6-28.2-1.3c-14.1,0.4-28.6,1.5-41.1,6.7
				c-6.8,1.6-13.6,3.4-20.3,5.2c-5,1.4-10.1,2.8-15,4.6c-6.8,2.5-5.4,11-5.2,16.8c0.1,3.3,1,5.7,3.2,8.1c1.3,1.5,2.4,3.1,3.3,4.9
				c0.8,1.5,1.2,3.1,3,3.7c1.9,0.7,4,0.3,5.9-0.3c0.9,14.2,2.9,26.1,6.3,37c4.8,15.3,11.1,30.5,24.6,38.6c1.7,1,3.6,1.9,5.6,2.8l0,0
				c6.8,2.7,14.2,3.8,20.8,4.7l0.9,0.1c4.6,0.7,9.2,1.1,13.7,1.3c4.3,0.2,8.6,0.2,12.7,0c19.5-1,36.8-7,50-17.2
				c6.1-4.7,11.6-10.7,16-17.4c9.3-14.1,16.1-31.3,18.5-47.3c0.5-3.5,1-7.3,0.9-11.2c0.5-0.3,0.9-0.6,1.4-0.9
				c4.5-3,7.4-3.8,14.1-3.9c6.7,0.3,9.6,1.1,14,4.3c0.9,0.6,1.8,1.2,2.7,1.7c-0.3,4.1,0.1,8.2,0.5,12c2,16,8.2,33.5,17.1,47.8
				c4.2,6.8,9.6,13,15.5,17.9c12.9,10.6,30,17,49.4,18.7c1.4,0.1,2.9,0.2,4.3,0.3c7.1,0.3,14.5,0.1,22.1-0.8l0.9-0.1
				c6.6-0.7,14.1-1.6,20.9-4.1h0c2-0.7,4-1.6,5.7-2.6c13.7-7.6,20.5-22.7,25.7-37.8c3.8-11.1,6.3-23.2,7.5-37.9c1.5,0.4,3,0.5,4.5,0
				c1.8-0.6,2.3-2.2,3.1-3.6c1-1.7,2.1-3.3,3.5-4.8c2.3-2.3,3.2-4.6,3.4-8C471.5,155.4,473.1,146.9,466.4,144.2z M211.3,228.5
				c-11.1,8.6-25.9,13.6-42.7,14.5c-7.6,0.4-15.6,0-23.8-1.2l-0.9-0.1c-6.1-0.9-12.5-1.8-17.8-3.9c-1.4-0.6-2.7-1.2-3.8-1.9
				c-9.7-5.8-14.8-18.4-18.8-31.3c-3.7-11.7-5.6-24.9-6.1-41.5c-0.2-6.9,3.7-14.3,9.7-18.3c11.7-7.9,28.2-9.4,44.3-9.8
				c17.3-0.4,34.2,2,48.5,4.4c9.9,1.7,21.3,3.9,30.6,8.5c5.4,2.7,9.1,5.9,10.2,8.8c1.7,4.5,1.1,10.4,0.3,15.5
				c-2.2,14.2-8.2,29.5-16.5,42C220.8,219.8,216.2,224.7,211.3,228.5z M436.8,211.1c-4.4,12.7-9.8,25.2-19.7,30.7
				c-1.2,0.6-2.5,1.2-3.9,1.7c-5.4,2-11.8,2.7-17.9,3.4l-0.9,0.1c-8.3,0.9-16.3,1.1-23.9,0.5c-16.8-1.4-31.4-6.8-42.2-15.7
				c-4.8-4-9.2-9-12.7-14.7c-7.9-12.8-13.5-28.3-15.2-42.5c-0.6-5.2-1-11.1,0.7-15.5c1.2-2.9,5-6,10.5-8.5
				c9.5-4.3,20.9-6.2,30.9-7.5c14-1.9,30.5-3.8,47.3-3c0.4,0,0.9,0,1.3,0.1c16.1,0.9,32.5,2.8,44,11.1c5.9,4.2,9.5,11.7,9.1,18.6
				C443.2,186.4,440.8,199.5,436.8,211.1z"/>
			<path class="st6" d="M444.1,169.8c-1,16.6-3.3,29.7-7.3,41.3c-4.4,12.7-9.8,25.2-19.7,30.7c-1.2,0.7-2.5,1.2-3.9,1.7
				c-5.4,2-11.8,2.7-17.9,3.4l-0.9,0.1c-8.3,0.9-16.3,1.1-23.9,0.5c-0.3,0-0.7,0-1-0.1c-3.9-0.4-7.6-0.9-11.3-1.8h0
				c-2.2-0.5-4.4-1-6.5-1.7c-5.1-1.5-9.8-3.5-14.2-5.9c-3.3-1.8-6.4-3.9-9.3-6.3c-4.8-4-9.2-9-12.7-14.7
				c-7.9-12.8-13.5-28.3-15.2-42.5c-0.6-5.2-1-11.1,0.7-15.5c1.2-2.9,5-6,10.5-8.5c9.5-4.3,20.9-6.2,30.9-7.5
				c11.8-1.6,25.3-3.2,39.4-3.2c2.6,0,5.3,0.1,7.9,0.2c0.4,0,0.8,0,1.3,0.1c2.4,0.1,4.9,0.3,7.3,0.5c2.3,0.2,4.6,0.4,6.9,0.7
				c3.8,0.5,7.6,1.1,11.2,2c6.9,1.6,13.3,4.1,18.6,7.9C440.9,155.5,444.6,162.9,444.1,169.8z"/>
			<path class="st6" d="M240.9,172.2c-2.1,14.2-8.1,29.5-16.5,42c-3.7,5.5-8.2,10.5-13.1,14.3c-11.1,8.6-25.9,13.6-42.7,14.5
				c-4.8,0.3-9.9,0.2-15-0.2c-2.9-0.2-5.9-0.6-8.8-1l-0.9-0.1c-0.6-0.1-1.1-0.2-1.7-0.2c-2.2-0.3-4.5-0.7-6.7-1.1
				c-3.3-0.6-6.5-1.4-9.4-2.6c-1.4-0.6-2.7-1.2-3.8-1.9c-0.4-0.3-0.9-0.5-1.3-0.9c-8.9-6.1-13.7-18.1-17.5-30.4
				c-3.7-11.7-5.6-24.9-6.1-41.5c-0.2-6.9,3.7-14.3,9.7-18.3c11.7-7.9,28.2-9.4,44.3-9.8c4.9-0.1,9.8,0,14.6,0.3
				c5.5,0.3,11,0.8,16.2,1.5c2.3,0.3,4.6,0.6,6.8,0.9c3.8,0.6,7.4,1.2,10.8,1.7c0.1,0,0.3,0,0.4,0.1c9.8,1.7,21,3.9,30.2,8.4
				c5.4,2.7,9.1,5.9,10.2,8.8C242.3,161.1,241.7,167,240.9,172.2z"/>
		</g>
		<path class="st7" d="M200.2,139.5l-46.6,103.3c-2.9-0.2-5.9-0.6-8.8-1l-0.9-0.1c-0.6-0.1-1.1-0.2-1.7-0.2l46.8-103.8
			c3.8,0.6,7.4,1.2,10.8,1.7C199.9,139.4,200,139.5,200.2,139.5z"/>
		<path class="st7" d="M182.1,136.8l-46.7,103.6c-3.3-0.6-6.5-1.4-9.4-2.6c-1.4-0.6-2.7-1.2-3.8-1.9c-0.4-0.3-0.9-0.5-1.3-0.9
			l45-99.7C171.4,135.6,176.9,136.1,182.1,136.8z"/>
		<path class="st7" d="M416.4,143.3l-46.9,104.1c-3.9-0.4-7.6-0.9-11.3-1.8l47-104.3C409.1,141.8,412.8,142.5,416.4,143.3z"/>
		<path class="st7" d="M398.4,140.7L351.7,244c-5.1-1.5-9.8-3.5-14.2-5.9l44.3-98.2c2.6,0,5.3,0.1,7.9,0.2c0.4,0,0.8,0,1.3,0.1
			C393.5,140.3,395.9,140.4,398.4,140.7z"/>
	</g>
	<g>
		<path class="st8" d="M279.8,98.6c2.6-3.5-19.2-20.8-21.2-22.1c-22.3-15-50.4-16.1-76.1-10.7c-20.5,4.3-40,12.5-58.5,22.2
			c-12.2,6.4-24.1,13.6-35.6,21.3c-11.3,7.5-21.9,15.8-34.3,21.4C23.9,144-16.4,131.4-29.5,100c-5.8-14-4.5-28.5,0.8-42.3
			C-24.2,45.7-16.7,35.9-7,26.3c-1.5,1.2-8.1,17.8-9.9,23.6c-5.4,17.3-8,39.5,10,50.4c28.8,17.3,63-9,85.2-25.7
			c17.8-13.4,34.6-27.9,47.3-36.3c28.9-19.3,91.6-77.1,166.3-16.9C291.8,21.5,308.7,60,279.8,98.6z"/>
		<path class="st8" d="M278.3,102.4c-2.9-4.2-6.5-6.9-10-8.9c-3.5-2-7.1-3.3-10.9-4.4c-7.6-2.1-16.1-3.6-28.5-4.5
			c-12.4-0.9-24.8,0-36.8,2.5c-12.1,2.4-23.5,6.5-34.5,12.1c-2.7,1.4-4.9,2.5-6.6,3.5c-1.8,0.9-3.2,1.7-4.5,2.5
			c-2.7,1.5-5.1,3-9.4,5.8c-8.6,5.7-17.4,11.4-26.7,16.5c-9.4,5.1-19,9.8-29.6,13.4c-5.3,1.7-10.9,3-16.6,3.3
			c-5.7,0.4-11.5-0.5-16.6-2.7l0.3-1.7c10.5-0.4,19.4-4.7,27.9-9.8c8.5-5.2,17.1-11.1,25.6-16.9c8.6-5.8,17.5-11.5,27-16.5
			c4.8-2.5,7.4-3.9,10.4-5.4c1.5-0.8,3-1.6,4.9-2.5c1.9-1,4.3-2,7.3-3.4c12.3-5.3,25.5-9.1,38.8-10.7c13.3-1.6,26.8-1.5,39.9,0.5
			c13.1,2.3,21.6,5.2,29.4,8.7c3.8,1.8,7.5,3.9,11,6.6c3.5,2.7,6.9,6.2,9.4,11.1L278.3,102.4z"/>
		<path class="st8" d="M278.7,100.4c-6.6-1.5-11.5-1.6-16.7-1.3c-5.1,0.4-10.6,1.1-18,3.4c-3.7,1.1-7.3,2.6-10.7,4.4
			c-3.4,1.8-6.5,3.9-9.6,6.4c-6.2,4.8-12.2,10.8-20,16.1c-3.9,2.6-6.3,3.7-8.4,4.7c-2.2,1-4.1,1.9-7.7,3.3
			c-3.6,1.4-7.5,2.3-11.4,2.8c-3.9,0.5-7.8,0.6-12,0.1c-4.1-0.6-8.4-1.7-12.5-4c-2-1.2-4-2.6-5.7-4.4c-1.7-1.8-3.1-3.7-4.1-6.4
			c-1.8-5.1-1-10,1.2-14c1.1-2,2.7-3.7,4.7-4.9c2-1.2,4.3-1.5,6.2-1l0.1,1.7c-3,1.5-3.7,4.3-3.8,6.8c0,2.5,0.9,5,2.2,6
			c0.5,0.4,1.4,1.1,2.3,1.5c0.9,0.5,1.9,0.8,3,1.1c2.2,0.6,4.8,0.8,7.5,0.7c2.6-0.1,5.6-0.3,8.6-0.7c2.9-0.4,5.8-0.8,8.8-1.4
			c2.9-0.6,4.5-1.2,6.2-1.8c1.7-0.7,3.5-1.5,6.8-3.2c6.6-3.5,13.1-8.8,20.7-13.5c3.8-2.3,8-4.5,12.2-6.1c4.3-1.6,8.7-2.8,13.1-3.6
			c4.5-0.7,8.2-0.9,11.6-0.7c3.3,0.1,6.2,0.5,9,1c5.5,1.1,10.5,2.6,16.9,5.4L278.7,100.4z"/>
	</g>
	<g>
		<path class="st8" d="M224.9,462.2c-0.2-1,0-1.1,0.3-0.1c0.7,2.5,1,5.3,1.2,8.3c0.2,3,0.4,6.1,1.1,9c0.7,3,2.1,5.8,4,8
			c1.9,2.1,4.6,3.4,7,3.2c2.2-0.2,4.3-1.4,5.6-3.2c0.7-0.9,1.2-1.9,1.3-2.9c0.2-1-0.1-2.1-0.6-3l0.9-0.5c2.1,3.9,2.4,8.2,3.2,12.3
			c0.4,2,1,4,1.9,5.8c0.9,1.8,2.2,3.4,3.9,4.3c1.9,1.1,4.2,1.2,6.2,0.4c2-0.8,3.8-2.3,5.1-4.1c1.3-1.8,2-4,2.5-6.2
			c0.3-1.1,0.4-2.3,0.6-3.4l0.1-0.9l0.2-1.7l0.3-3.2c0.4,1,0.7,1.9,1.1,2.8l0.6,1.4c0,0,0,0.1,0.1,0.2l0,0.1l0.1,0.1l0.2,0.3
			c0.5,0.7,1.1,1.4,1.7,2c1.3,1.2,2.9,2,4.6,2.5c1.8,0.5,3.7,0.6,5.6,0.1c1.8-0.5,3.5-1.5,4.7-2.9c2.6-2.8,3.7-6.9,2.7-10.7
			c-0.5-1.5-0.2-1.8,0.5-0.1c1.2,3.9,0.1,8.3-2.6,11.3c-1.3,1.6-3.1,2.7-5.1,3.3c-2,0.6-4.1,0.5-6.1,0c-1.8-0.5-3.6-1.5-5-2.7
			c-0.7-0.7-1.4-1.4-1.9-2.2l-0.3-0.5l0-0.1c0,0,0-0.1-0.1-0.1c0,0,0,0.1,0,0.2l0,0.1l-0.1,0.9c-0.1,1.2-0.3,2.3-0.6,3.5
			c-0.5,2.3-1.3,4.7-2.7,6.7c-1.4,2-3.4,3.7-5.7,4.6c-2.3,0.9-5.1,0.8-7.3-0.5c-2-1.1-3.4-2.9-4.4-4.9c-1-1.9-1.6-4-2-6.1
			c-0.8-4.1-1-8.4-2.9-12l0.9-0.5c0.7,1.1,0.9,2.5,0.7,3.7c-0.2,1.3-0.8,2.4-1.6,3.4c-1.5,1.9-3.8,3.2-6.3,3.4
			c-2.7,0.2-5.6-1.3-7.6-3.5c-2-2.3-3.4-5.3-4.1-8.3c-0.7-3.1-0.8-6.2-1-9.2C225.7,467.5,225.5,464.7,224.9,462.2z"/>
		<path class="st8" d="M253.8,682.9c0.3-1.1,0.7-0.9,0.5,0.1c-0.5,2.6-0.6,5.5,0.2,8.5c0.7,2.9,2.4,5.8,5.1,7.4
			c2.6,1.5,6.1,1.3,8.7,0c0.6-0.3,1.2-0.7,1.7-1.2c0.3-0.3,0.5-0.4,0.7-0.8l0.4-0.7c0.1-0.3,0.3-0.3,0.5-1.3l0.5-2.4l0.3-1.2
			c0-0.1,0-0.3,0.1-0.2l0,0.1l0,0.1l0.2,0.5c0.1,0.2,0.1,0.4,0.1,0.2l0-0.3l0-0.1c0-0.1,0-0.1,0,0.1c0.1,0.5,0.2,1,0.3,1.4
			c0.2,1.2,0.4,2.3,0.5,3.7c0,0.3,0.1,0.7,0.1,1l0,0.7l0,1.3c0,1.7,0,3.4,0,5.1c0.1,3.3,0.6,6.7,2.8,8.9c2,2.3,5.6,2.4,8.4,1.2
			c2.9-1.1,5.4-3.6,5.6-6.6c0.1-0.5-0.1-1.1-0.1-1.6l2.1-0.1c-0.3,2.9,1.3,5.7,3.6,7.5c2.3,1.9,5.4,2.9,8.3,2.7
			c2.9-0.2,5.8-1.7,8-3.8c2.2-2.1,3.9-4.9,4.9-7.8c1.3-3.7,1.5-7.8,1.2-11.8c-0.4-4-1.3-8-2.3-12c-0.5-1.7,0.2-1.9,0.7-0.2
			c1.2,3.9,2.3,7.9,2.8,12c0.5,4.1,0.4,8.4-0.9,12.5c-1.1,3.2-2.8,6.2-5.2,8.6c-2.4,2.4-5.6,4.2-9.1,4.5c-3.5,0.3-7-0.9-9.8-3.1
			c-2.7-2.1-4.7-5.6-4.4-9.3l2.1-0.1c0,0.7,0.2,1.4,0.1,2.1c-0.1,2-1.1,3.8-2.3,5.2c-1.3,1.4-2.9,2.4-4.6,3.1
			c-1.7,0.7-3.6,1-5.5,0.8c-1.9-0.2-3.7-1.1-5-2.6c-2.6-2.8-3-6.7-3-10.1c0-1.7,0.1-3.4,0.1-5.1l0-2c0-0.3,0-0.6-0.1-0.9l-0.1-0.4
			c0,0,0,0.2,0,0.3c0,0.2-0.1,0.5-0.3,0.7c-0.1,0.1-0.2,0.3-0.3,0.5c-0.2,0.2-0.5,0.5-0.8,0.8c-0.6,0.5-1.3,1-2,1.4
			c-2.9,1.4-6.7,1.6-9.7-0.2c-3-1.8-4.7-5-5.4-8.1C252.9,688.5,253.1,685.5,253.8,682.9z"/>
	</g>
</g>
</svg>
